G04 #@! TF.GenerationSoftware,KiCad,Pcbnew,5.1.4*
G04 #@! TF.CreationDate,2019-09-23T19:39:08+02:00*
G04 #@! TF.ProjectId,so8,736f382e-6b69-4636-9164-5f7063625858,rev?*
G04 #@! TF.SameCoordinates,PX8caabe0PY5a1f4a0*
G04 #@! TF.FileFunction,Copper,L1,Top*
G04 #@! TF.FilePolarity,Positive*
%FSLAX46Y46*%
G04 Gerber Fmt 4.6, Leading zero omitted, Abs format (unit mm)*
G04 Created by KiCad (PCBNEW 5.1.4) date 2019-09-23 19:39:08*
%MOMM*%
%LPD*%
G04 APERTURE LIST*
%ADD10C,0.100000*%
%ADD11C,0.600000*%
%ADD12C,0.590000*%
%ADD13C,0.300000*%
%ADD14C,0.150000*%
G04 APERTURE END LIST*
D10*
G36*
X9764703Y-2295722D02*
G01*
X9779264Y-2297882D01*
X9793543Y-2301459D01*
X9807403Y-2306418D01*
X9820710Y-2312712D01*
X9833336Y-2320280D01*
X9845159Y-2329048D01*
X9856066Y-2338934D01*
X9865952Y-2349841D01*
X9874720Y-2361664D01*
X9882288Y-2374290D01*
X9888582Y-2387597D01*
X9893541Y-2401457D01*
X9897118Y-2415736D01*
X9899278Y-2430297D01*
X9900000Y-2445000D01*
X9900000Y-2745000D01*
X9899278Y-2759703D01*
X9897118Y-2774264D01*
X9893541Y-2788543D01*
X9888582Y-2802403D01*
X9882288Y-2815710D01*
X9874720Y-2828336D01*
X9865952Y-2840159D01*
X9856066Y-2851066D01*
X9845159Y-2860952D01*
X9833336Y-2869720D01*
X9820710Y-2877288D01*
X9807403Y-2883582D01*
X9793543Y-2888541D01*
X9779264Y-2892118D01*
X9764703Y-2894278D01*
X9750000Y-2895000D01*
X7050000Y-2895000D01*
X7035297Y-2894278D01*
X7020736Y-2892118D01*
X7006457Y-2888541D01*
X6992597Y-2883582D01*
X6979290Y-2877288D01*
X6966664Y-2869720D01*
X6954841Y-2860952D01*
X6943934Y-2851066D01*
X6934048Y-2840159D01*
X6925280Y-2828336D01*
X6917712Y-2815710D01*
X6911418Y-2802403D01*
X6906459Y-2788543D01*
X6902882Y-2774264D01*
X6900722Y-2759703D01*
X6900000Y-2745000D01*
X6900000Y-2445000D01*
X6900722Y-2430297D01*
X6902882Y-2415736D01*
X6906459Y-2401457D01*
X6911418Y-2387597D01*
X6917712Y-2374290D01*
X6925280Y-2361664D01*
X6934048Y-2349841D01*
X6943934Y-2338934D01*
X6954841Y-2329048D01*
X6966664Y-2320280D01*
X6979290Y-2312712D01*
X6992597Y-2306418D01*
X7006457Y-2301459D01*
X7020736Y-2297882D01*
X7035297Y-2295722D01*
X7050000Y-2295000D01*
X9750000Y-2295000D01*
X9764703Y-2295722D01*
X9764703Y-2295722D01*
G37*
D11*
X8400000Y-2595000D03*
D10*
G36*
X9764703Y-3565722D02*
G01*
X9779264Y-3567882D01*
X9793543Y-3571459D01*
X9807403Y-3576418D01*
X9820710Y-3582712D01*
X9833336Y-3590280D01*
X9845159Y-3599048D01*
X9856066Y-3608934D01*
X9865952Y-3619841D01*
X9874720Y-3631664D01*
X9882288Y-3644290D01*
X9888582Y-3657597D01*
X9893541Y-3671457D01*
X9897118Y-3685736D01*
X9899278Y-3700297D01*
X9900000Y-3715000D01*
X9900000Y-4015000D01*
X9899278Y-4029703D01*
X9897118Y-4044264D01*
X9893541Y-4058543D01*
X9888582Y-4072403D01*
X9882288Y-4085710D01*
X9874720Y-4098336D01*
X9865952Y-4110159D01*
X9856066Y-4121066D01*
X9845159Y-4130952D01*
X9833336Y-4139720D01*
X9820710Y-4147288D01*
X9807403Y-4153582D01*
X9793543Y-4158541D01*
X9779264Y-4162118D01*
X9764703Y-4164278D01*
X9750000Y-4165000D01*
X7050000Y-4165000D01*
X7035297Y-4164278D01*
X7020736Y-4162118D01*
X7006457Y-4158541D01*
X6992597Y-4153582D01*
X6979290Y-4147288D01*
X6966664Y-4139720D01*
X6954841Y-4130952D01*
X6943934Y-4121066D01*
X6934048Y-4110159D01*
X6925280Y-4098336D01*
X6917712Y-4085710D01*
X6911418Y-4072403D01*
X6906459Y-4058543D01*
X6902882Y-4044264D01*
X6900722Y-4029703D01*
X6900000Y-4015000D01*
X6900000Y-3715000D01*
X6900722Y-3700297D01*
X6902882Y-3685736D01*
X6906459Y-3671457D01*
X6911418Y-3657597D01*
X6917712Y-3644290D01*
X6925280Y-3631664D01*
X6934048Y-3619841D01*
X6943934Y-3608934D01*
X6954841Y-3599048D01*
X6966664Y-3590280D01*
X6979290Y-3582712D01*
X6992597Y-3576418D01*
X7006457Y-3571459D01*
X7020736Y-3567882D01*
X7035297Y-3565722D01*
X7050000Y-3565000D01*
X9750000Y-3565000D01*
X9764703Y-3565722D01*
X9764703Y-3565722D01*
G37*
D11*
X8400000Y-3865000D03*
D10*
G36*
X9764703Y-4835722D02*
G01*
X9779264Y-4837882D01*
X9793543Y-4841459D01*
X9807403Y-4846418D01*
X9820710Y-4852712D01*
X9833336Y-4860280D01*
X9845159Y-4869048D01*
X9856066Y-4878934D01*
X9865952Y-4889841D01*
X9874720Y-4901664D01*
X9882288Y-4914290D01*
X9888582Y-4927597D01*
X9893541Y-4941457D01*
X9897118Y-4955736D01*
X9899278Y-4970297D01*
X9900000Y-4985000D01*
X9900000Y-5285000D01*
X9899278Y-5299703D01*
X9897118Y-5314264D01*
X9893541Y-5328543D01*
X9888582Y-5342403D01*
X9882288Y-5355710D01*
X9874720Y-5368336D01*
X9865952Y-5380159D01*
X9856066Y-5391066D01*
X9845159Y-5400952D01*
X9833336Y-5409720D01*
X9820710Y-5417288D01*
X9807403Y-5423582D01*
X9793543Y-5428541D01*
X9779264Y-5432118D01*
X9764703Y-5434278D01*
X9750000Y-5435000D01*
X7050000Y-5435000D01*
X7035297Y-5434278D01*
X7020736Y-5432118D01*
X7006457Y-5428541D01*
X6992597Y-5423582D01*
X6979290Y-5417288D01*
X6966664Y-5409720D01*
X6954841Y-5400952D01*
X6943934Y-5391066D01*
X6934048Y-5380159D01*
X6925280Y-5368336D01*
X6917712Y-5355710D01*
X6911418Y-5342403D01*
X6906459Y-5328543D01*
X6902882Y-5314264D01*
X6900722Y-5299703D01*
X6900000Y-5285000D01*
X6900000Y-4985000D01*
X6900722Y-4970297D01*
X6902882Y-4955736D01*
X6906459Y-4941457D01*
X6911418Y-4927597D01*
X6917712Y-4914290D01*
X6925280Y-4901664D01*
X6934048Y-4889841D01*
X6943934Y-4878934D01*
X6954841Y-4869048D01*
X6966664Y-4860280D01*
X6979290Y-4852712D01*
X6992597Y-4846418D01*
X7006457Y-4841459D01*
X7020736Y-4837882D01*
X7035297Y-4835722D01*
X7050000Y-4835000D01*
X9750000Y-4835000D01*
X9764703Y-4835722D01*
X9764703Y-4835722D01*
G37*
D11*
X8400000Y-5135000D03*
D10*
G36*
X9764703Y-6105722D02*
G01*
X9779264Y-6107882D01*
X9793543Y-6111459D01*
X9807403Y-6116418D01*
X9820710Y-6122712D01*
X9833336Y-6130280D01*
X9845159Y-6139048D01*
X9856066Y-6148934D01*
X9865952Y-6159841D01*
X9874720Y-6171664D01*
X9882288Y-6184290D01*
X9888582Y-6197597D01*
X9893541Y-6211457D01*
X9897118Y-6225736D01*
X9899278Y-6240297D01*
X9900000Y-6255000D01*
X9900000Y-6555000D01*
X9899278Y-6569703D01*
X9897118Y-6584264D01*
X9893541Y-6598543D01*
X9888582Y-6612403D01*
X9882288Y-6625710D01*
X9874720Y-6638336D01*
X9865952Y-6650159D01*
X9856066Y-6661066D01*
X9845159Y-6670952D01*
X9833336Y-6679720D01*
X9820710Y-6687288D01*
X9807403Y-6693582D01*
X9793543Y-6698541D01*
X9779264Y-6702118D01*
X9764703Y-6704278D01*
X9750000Y-6705000D01*
X7050000Y-6705000D01*
X7035297Y-6704278D01*
X7020736Y-6702118D01*
X7006457Y-6698541D01*
X6992597Y-6693582D01*
X6979290Y-6687288D01*
X6966664Y-6679720D01*
X6954841Y-6670952D01*
X6943934Y-6661066D01*
X6934048Y-6650159D01*
X6925280Y-6638336D01*
X6917712Y-6625710D01*
X6911418Y-6612403D01*
X6906459Y-6598543D01*
X6902882Y-6584264D01*
X6900722Y-6569703D01*
X6900000Y-6555000D01*
X6900000Y-6255000D01*
X6900722Y-6240297D01*
X6902882Y-6225736D01*
X6906459Y-6211457D01*
X6911418Y-6197597D01*
X6917712Y-6184290D01*
X6925280Y-6171664D01*
X6934048Y-6159841D01*
X6943934Y-6148934D01*
X6954841Y-6139048D01*
X6966664Y-6130280D01*
X6979290Y-6122712D01*
X6992597Y-6116418D01*
X7006457Y-6111459D01*
X7020736Y-6107882D01*
X7035297Y-6105722D01*
X7050000Y-6105000D01*
X9750000Y-6105000D01*
X9764703Y-6105722D01*
X9764703Y-6105722D01*
G37*
D11*
X8400000Y-6405000D03*
D10*
G36*
X3964703Y-6105722D02*
G01*
X3979264Y-6107882D01*
X3993543Y-6111459D01*
X4007403Y-6116418D01*
X4020710Y-6122712D01*
X4033336Y-6130280D01*
X4045159Y-6139048D01*
X4056066Y-6148934D01*
X4065952Y-6159841D01*
X4074720Y-6171664D01*
X4082288Y-6184290D01*
X4088582Y-6197597D01*
X4093541Y-6211457D01*
X4097118Y-6225736D01*
X4099278Y-6240297D01*
X4100000Y-6255000D01*
X4100000Y-6555000D01*
X4099278Y-6569703D01*
X4097118Y-6584264D01*
X4093541Y-6598543D01*
X4088582Y-6612403D01*
X4082288Y-6625710D01*
X4074720Y-6638336D01*
X4065952Y-6650159D01*
X4056066Y-6661066D01*
X4045159Y-6670952D01*
X4033336Y-6679720D01*
X4020710Y-6687288D01*
X4007403Y-6693582D01*
X3993543Y-6698541D01*
X3979264Y-6702118D01*
X3964703Y-6704278D01*
X3950000Y-6705000D01*
X1250000Y-6705000D01*
X1235297Y-6704278D01*
X1220736Y-6702118D01*
X1206457Y-6698541D01*
X1192597Y-6693582D01*
X1179290Y-6687288D01*
X1166664Y-6679720D01*
X1154841Y-6670952D01*
X1143934Y-6661066D01*
X1134048Y-6650159D01*
X1125280Y-6638336D01*
X1117712Y-6625710D01*
X1111418Y-6612403D01*
X1106459Y-6598543D01*
X1102882Y-6584264D01*
X1100722Y-6569703D01*
X1100000Y-6555000D01*
X1100000Y-6255000D01*
X1100722Y-6240297D01*
X1102882Y-6225736D01*
X1106459Y-6211457D01*
X1111418Y-6197597D01*
X1117712Y-6184290D01*
X1125280Y-6171664D01*
X1134048Y-6159841D01*
X1143934Y-6148934D01*
X1154841Y-6139048D01*
X1166664Y-6130280D01*
X1179290Y-6122712D01*
X1192597Y-6116418D01*
X1206457Y-6111459D01*
X1220736Y-6107882D01*
X1235297Y-6105722D01*
X1250000Y-6105000D01*
X3950000Y-6105000D01*
X3964703Y-6105722D01*
X3964703Y-6105722D01*
G37*
D11*
X2600000Y-6405000D03*
D10*
G36*
X3964703Y-4835722D02*
G01*
X3979264Y-4837882D01*
X3993543Y-4841459D01*
X4007403Y-4846418D01*
X4020710Y-4852712D01*
X4033336Y-4860280D01*
X4045159Y-4869048D01*
X4056066Y-4878934D01*
X4065952Y-4889841D01*
X4074720Y-4901664D01*
X4082288Y-4914290D01*
X4088582Y-4927597D01*
X4093541Y-4941457D01*
X4097118Y-4955736D01*
X4099278Y-4970297D01*
X4100000Y-4985000D01*
X4100000Y-5285000D01*
X4099278Y-5299703D01*
X4097118Y-5314264D01*
X4093541Y-5328543D01*
X4088582Y-5342403D01*
X4082288Y-5355710D01*
X4074720Y-5368336D01*
X4065952Y-5380159D01*
X4056066Y-5391066D01*
X4045159Y-5400952D01*
X4033336Y-5409720D01*
X4020710Y-5417288D01*
X4007403Y-5423582D01*
X3993543Y-5428541D01*
X3979264Y-5432118D01*
X3964703Y-5434278D01*
X3950000Y-5435000D01*
X1250000Y-5435000D01*
X1235297Y-5434278D01*
X1220736Y-5432118D01*
X1206457Y-5428541D01*
X1192597Y-5423582D01*
X1179290Y-5417288D01*
X1166664Y-5409720D01*
X1154841Y-5400952D01*
X1143934Y-5391066D01*
X1134048Y-5380159D01*
X1125280Y-5368336D01*
X1117712Y-5355710D01*
X1111418Y-5342403D01*
X1106459Y-5328543D01*
X1102882Y-5314264D01*
X1100722Y-5299703D01*
X1100000Y-5285000D01*
X1100000Y-4985000D01*
X1100722Y-4970297D01*
X1102882Y-4955736D01*
X1106459Y-4941457D01*
X1111418Y-4927597D01*
X1117712Y-4914290D01*
X1125280Y-4901664D01*
X1134048Y-4889841D01*
X1143934Y-4878934D01*
X1154841Y-4869048D01*
X1166664Y-4860280D01*
X1179290Y-4852712D01*
X1192597Y-4846418D01*
X1206457Y-4841459D01*
X1220736Y-4837882D01*
X1235297Y-4835722D01*
X1250000Y-4835000D01*
X3950000Y-4835000D01*
X3964703Y-4835722D01*
X3964703Y-4835722D01*
G37*
D11*
X2600000Y-5135000D03*
D10*
G36*
X3964703Y-3565722D02*
G01*
X3979264Y-3567882D01*
X3993543Y-3571459D01*
X4007403Y-3576418D01*
X4020710Y-3582712D01*
X4033336Y-3590280D01*
X4045159Y-3599048D01*
X4056066Y-3608934D01*
X4065952Y-3619841D01*
X4074720Y-3631664D01*
X4082288Y-3644290D01*
X4088582Y-3657597D01*
X4093541Y-3671457D01*
X4097118Y-3685736D01*
X4099278Y-3700297D01*
X4100000Y-3715000D01*
X4100000Y-4015000D01*
X4099278Y-4029703D01*
X4097118Y-4044264D01*
X4093541Y-4058543D01*
X4088582Y-4072403D01*
X4082288Y-4085710D01*
X4074720Y-4098336D01*
X4065952Y-4110159D01*
X4056066Y-4121066D01*
X4045159Y-4130952D01*
X4033336Y-4139720D01*
X4020710Y-4147288D01*
X4007403Y-4153582D01*
X3993543Y-4158541D01*
X3979264Y-4162118D01*
X3964703Y-4164278D01*
X3950000Y-4165000D01*
X1250000Y-4165000D01*
X1235297Y-4164278D01*
X1220736Y-4162118D01*
X1206457Y-4158541D01*
X1192597Y-4153582D01*
X1179290Y-4147288D01*
X1166664Y-4139720D01*
X1154841Y-4130952D01*
X1143934Y-4121066D01*
X1134048Y-4110159D01*
X1125280Y-4098336D01*
X1117712Y-4085710D01*
X1111418Y-4072403D01*
X1106459Y-4058543D01*
X1102882Y-4044264D01*
X1100722Y-4029703D01*
X1100000Y-4015000D01*
X1100000Y-3715000D01*
X1100722Y-3700297D01*
X1102882Y-3685736D01*
X1106459Y-3671457D01*
X1111418Y-3657597D01*
X1117712Y-3644290D01*
X1125280Y-3631664D01*
X1134048Y-3619841D01*
X1143934Y-3608934D01*
X1154841Y-3599048D01*
X1166664Y-3590280D01*
X1179290Y-3582712D01*
X1192597Y-3576418D01*
X1206457Y-3571459D01*
X1220736Y-3567882D01*
X1235297Y-3565722D01*
X1250000Y-3565000D01*
X3950000Y-3565000D01*
X3964703Y-3565722D01*
X3964703Y-3565722D01*
G37*
D11*
X2600000Y-3865000D03*
D10*
G36*
X3964703Y-2295722D02*
G01*
X3979264Y-2297882D01*
X3993543Y-2301459D01*
X4007403Y-2306418D01*
X4020710Y-2312712D01*
X4033336Y-2320280D01*
X4045159Y-2329048D01*
X4056066Y-2338934D01*
X4065952Y-2349841D01*
X4074720Y-2361664D01*
X4082288Y-2374290D01*
X4088582Y-2387597D01*
X4093541Y-2401457D01*
X4097118Y-2415736D01*
X4099278Y-2430297D01*
X4100000Y-2445000D01*
X4100000Y-2745000D01*
X4099278Y-2759703D01*
X4097118Y-2774264D01*
X4093541Y-2788543D01*
X4088582Y-2802403D01*
X4082288Y-2815710D01*
X4074720Y-2828336D01*
X4065952Y-2840159D01*
X4056066Y-2851066D01*
X4045159Y-2860952D01*
X4033336Y-2869720D01*
X4020710Y-2877288D01*
X4007403Y-2883582D01*
X3993543Y-2888541D01*
X3979264Y-2892118D01*
X3964703Y-2894278D01*
X3950000Y-2895000D01*
X1250000Y-2895000D01*
X1235297Y-2894278D01*
X1220736Y-2892118D01*
X1206457Y-2888541D01*
X1192597Y-2883582D01*
X1179290Y-2877288D01*
X1166664Y-2869720D01*
X1154841Y-2860952D01*
X1143934Y-2851066D01*
X1134048Y-2840159D01*
X1125280Y-2828336D01*
X1117712Y-2815710D01*
X1111418Y-2802403D01*
X1106459Y-2788543D01*
X1102882Y-2774264D01*
X1100722Y-2759703D01*
X1100000Y-2745000D01*
X1100000Y-2445000D01*
X1100722Y-2430297D01*
X1102882Y-2415736D01*
X1106459Y-2401457D01*
X1111418Y-2387597D01*
X1117712Y-2374290D01*
X1125280Y-2361664D01*
X1134048Y-2349841D01*
X1143934Y-2338934D01*
X1154841Y-2329048D01*
X1166664Y-2320280D01*
X1179290Y-2312712D01*
X1192597Y-2306418D01*
X1206457Y-2301459D01*
X1220736Y-2297882D01*
X1235297Y-2295722D01*
X1250000Y-2295000D01*
X3950000Y-2295000D01*
X3964703Y-2295722D01*
X3964703Y-2295722D01*
G37*
D11*
X2600000Y-2595000D03*
D10*
G36*
X5176958Y-680710D02*
G01*
X5191276Y-682834D01*
X5205317Y-686351D01*
X5218946Y-691228D01*
X5232031Y-697417D01*
X5244447Y-704858D01*
X5256073Y-713481D01*
X5266798Y-723202D01*
X5276519Y-733927D01*
X5285142Y-745553D01*
X5292583Y-757969D01*
X5298772Y-771054D01*
X5303649Y-784683D01*
X5307166Y-798724D01*
X5309290Y-813042D01*
X5310000Y-827500D01*
X5310000Y-1172500D01*
X5309290Y-1186958D01*
X5307166Y-1201276D01*
X5303649Y-1215317D01*
X5298772Y-1228946D01*
X5292583Y-1242031D01*
X5285142Y-1254447D01*
X5276519Y-1266073D01*
X5266798Y-1276798D01*
X5256073Y-1286519D01*
X5244447Y-1295142D01*
X5232031Y-1302583D01*
X5218946Y-1308772D01*
X5205317Y-1313649D01*
X5191276Y-1317166D01*
X5176958Y-1319290D01*
X5162500Y-1320000D01*
X4867500Y-1320000D01*
X4853042Y-1319290D01*
X4838724Y-1317166D01*
X4824683Y-1313649D01*
X4811054Y-1308772D01*
X4797969Y-1302583D01*
X4785553Y-1295142D01*
X4773927Y-1286519D01*
X4763202Y-1276798D01*
X4753481Y-1266073D01*
X4744858Y-1254447D01*
X4737417Y-1242031D01*
X4731228Y-1228946D01*
X4726351Y-1215317D01*
X4722834Y-1201276D01*
X4720710Y-1186958D01*
X4720000Y-1172500D01*
X4720000Y-827500D01*
X4720710Y-813042D01*
X4722834Y-798724D01*
X4726351Y-784683D01*
X4731228Y-771054D01*
X4737417Y-757969D01*
X4744858Y-745553D01*
X4753481Y-733927D01*
X4763202Y-723202D01*
X4773927Y-713481D01*
X4785553Y-704858D01*
X4797969Y-697417D01*
X4811054Y-691228D01*
X4824683Y-686351D01*
X4838724Y-682834D01*
X4853042Y-680710D01*
X4867500Y-680000D01*
X5162500Y-680000D01*
X5176958Y-680710D01*
X5176958Y-680710D01*
G37*
D12*
X5015000Y-1000000D03*
D10*
G36*
X6146958Y-680710D02*
G01*
X6161276Y-682834D01*
X6175317Y-686351D01*
X6188946Y-691228D01*
X6202031Y-697417D01*
X6214447Y-704858D01*
X6226073Y-713481D01*
X6236798Y-723202D01*
X6246519Y-733927D01*
X6255142Y-745553D01*
X6262583Y-757969D01*
X6268772Y-771054D01*
X6273649Y-784683D01*
X6277166Y-798724D01*
X6279290Y-813042D01*
X6280000Y-827500D01*
X6280000Y-1172500D01*
X6279290Y-1186958D01*
X6277166Y-1201276D01*
X6273649Y-1215317D01*
X6268772Y-1228946D01*
X6262583Y-1242031D01*
X6255142Y-1254447D01*
X6246519Y-1266073D01*
X6236798Y-1276798D01*
X6226073Y-1286519D01*
X6214447Y-1295142D01*
X6202031Y-1302583D01*
X6188946Y-1308772D01*
X6175317Y-1313649D01*
X6161276Y-1317166D01*
X6146958Y-1319290D01*
X6132500Y-1320000D01*
X5837500Y-1320000D01*
X5823042Y-1319290D01*
X5808724Y-1317166D01*
X5794683Y-1313649D01*
X5781054Y-1308772D01*
X5767969Y-1302583D01*
X5755553Y-1295142D01*
X5743927Y-1286519D01*
X5733202Y-1276798D01*
X5723481Y-1266073D01*
X5714858Y-1254447D01*
X5707417Y-1242031D01*
X5701228Y-1228946D01*
X5696351Y-1215317D01*
X5692834Y-1201276D01*
X5690710Y-1186958D01*
X5690000Y-1172500D01*
X5690000Y-827500D01*
X5690710Y-813042D01*
X5692834Y-798724D01*
X5696351Y-784683D01*
X5701228Y-771054D01*
X5707417Y-757969D01*
X5714858Y-745553D01*
X5723481Y-733927D01*
X5733202Y-723202D01*
X5743927Y-713481D01*
X5755553Y-704858D01*
X5767969Y-697417D01*
X5781054Y-691228D01*
X5794683Y-686351D01*
X5808724Y-682834D01*
X5823042Y-680710D01*
X5837500Y-680000D01*
X6132500Y-680000D01*
X6146958Y-680710D01*
X6146958Y-680710D01*
G37*
D12*
X5985000Y-1000000D03*
D11*
X4200000Y-1000000D03*
X600000Y-6400000D03*
X1900000Y-7200000D03*
X7000000Y-1800000D03*
X7000000Y-7200000D03*
X10500000Y-5100000D03*
X600000Y-5100000D03*
X10500000Y-3900000D03*
X600000Y-3900000D03*
X3300000Y-1900000D03*
D13*
X5985000Y-1000000D02*
X6785000Y-1800000D01*
X6785000Y-1800000D02*
X7000000Y-1800000D01*
X7795000Y-2595000D02*
X7000000Y-1800000D01*
X8400000Y-2595000D02*
X7795000Y-2595000D01*
D14*
X9100000Y-6405000D02*
X8095000Y-6405000D01*
X7000000Y-7100000D02*
X7000000Y-7200000D01*
X8400000Y-6405000D02*
X7695000Y-6405000D01*
X7695000Y-6405000D02*
X7000000Y-7100000D01*
X9135000Y-5100000D02*
X9100000Y-5135000D01*
X10500000Y-5100000D02*
X9135000Y-5100000D01*
X1865000Y-5100000D02*
X1900000Y-5135000D01*
X600000Y-5100000D02*
X1865000Y-5100000D01*
X9135000Y-3900000D02*
X9100000Y-3865000D01*
X10500000Y-3900000D02*
X9135000Y-3900000D01*
X1865000Y-3900000D02*
X1900000Y-3865000D01*
X600000Y-3900000D02*
X1865000Y-3900000D01*
X1900000Y-2595000D02*
X2605000Y-2595000D01*
X2605000Y-2595000D02*
X3300000Y-1900000D01*
X2400000Y-2595000D02*
X2605000Y-2595000D01*
G36*
X10750000Y-3435633D02*
G01*
X10748681Y-3434751D01*
X10653137Y-3395176D01*
X10551708Y-3375000D01*
X10448292Y-3375000D01*
X10346863Y-3395176D01*
X10251319Y-3434751D01*
X10165332Y-3492206D01*
X10093629Y-3563909D01*
X10062706Y-3506057D01*
X10015934Y-3449066D01*
X9958943Y-3402294D01*
X9893923Y-3367540D01*
X9823371Y-3346138D01*
X9750000Y-3338912D01*
X7050000Y-3338912D01*
X6976629Y-3346138D01*
X6906077Y-3367540D01*
X6841057Y-3402294D01*
X6784066Y-3449066D01*
X6737294Y-3506057D01*
X6702540Y-3571077D01*
X6681138Y-3641629D01*
X6673912Y-3715000D01*
X6673912Y-4015000D01*
X6681138Y-4088371D01*
X6702540Y-4158923D01*
X6737294Y-4223943D01*
X6784066Y-4280934D01*
X6841057Y-4327706D01*
X6906077Y-4362460D01*
X6976629Y-4383862D01*
X7050000Y-4391088D01*
X9750000Y-4391088D01*
X9823371Y-4383862D01*
X9893923Y-4362460D01*
X9958943Y-4327706D01*
X10015934Y-4280934D01*
X10062706Y-4223943D01*
X10072632Y-4205373D01*
X10092206Y-4234668D01*
X10165332Y-4307794D01*
X10251319Y-4365249D01*
X10346863Y-4404824D01*
X10448292Y-4425000D01*
X10551708Y-4425000D01*
X10653137Y-4404824D01*
X10748681Y-4365249D01*
X10750001Y-4364367D01*
X10750001Y-4635633D01*
X10748681Y-4634751D01*
X10653137Y-4595176D01*
X10551708Y-4575000D01*
X10448292Y-4575000D01*
X10346863Y-4595176D01*
X10251319Y-4634751D01*
X10165332Y-4692206D01*
X10092206Y-4765332D01*
X10072632Y-4794627D01*
X10062706Y-4776057D01*
X10015934Y-4719066D01*
X9958943Y-4672294D01*
X9893923Y-4637540D01*
X9823371Y-4616138D01*
X9750000Y-4608912D01*
X7050000Y-4608912D01*
X6976629Y-4616138D01*
X6906077Y-4637540D01*
X6841057Y-4672294D01*
X6784066Y-4719066D01*
X6737294Y-4776057D01*
X6702540Y-4841077D01*
X6681138Y-4911629D01*
X6673912Y-4985000D01*
X6673912Y-5285000D01*
X6681138Y-5358371D01*
X6702540Y-5428923D01*
X6737294Y-5493943D01*
X6784066Y-5550934D01*
X6841057Y-5597706D01*
X6906077Y-5632460D01*
X6976629Y-5653862D01*
X7050000Y-5661088D01*
X9750000Y-5661088D01*
X9823371Y-5653862D01*
X9893923Y-5632460D01*
X9958943Y-5597706D01*
X10015934Y-5550934D01*
X10062706Y-5493943D01*
X10093629Y-5436091D01*
X10165332Y-5507794D01*
X10251319Y-5565249D01*
X10346863Y-5604824D01*
X10448292Y-5625000D01*
X10551708Y-5625000D01*
X10653137Y-5604824D01*
X10748681Y-5565249D01*
X10750001Y-5564367D01*
X10750001Y-7750000D01*
X250000Y-7750000D01*
X250000Y-7148292D01*
X6475000Y-7148292D01*
X6475000Y-7251708D01*
X6495176Y-7353137D01*
X6534751Y-7448681D01*
X6592206Y-7534668D01*
X6665332Y-7607794D01*
X6751319Y-7665249D01*
X6846863Y-7704824D01*
X6948292Y-7725000D01*
X7051708Y-7725000D01*
X7153137Y-7704824D01*
X7248681Y-7665249D01*
X7334668Y-7607794D01*
X7407794Y-7534668D01*
X7465249Y-7448681D01*
X7504824Y-7353137D01*
X7525000Y-7251708D01*
X7525000Y-7148292D01*
X7504824Y-7046863D01*
X7496792Y-7027472D01*
X7593176Y-6931088D01*
X9750000Y-6931088D01*
X9823371Y-6923862D01*
X9893923Y-6902460D01*
X9958943Y-6867706D01*
X10015934Y-6820934D01*
X10062706Y-6763943D01*
X10097460Y-6698923D01*
X10118862Y-6628371D01*
X10126088Y-6555000D01*
X10126088Y-6255000D01*
X10118862Y-6181629D01*
X10097460Y-6111077D01*
X10062706Y-6046057D01*
X10015934Y-5989066D01*
X9958943Y-5942294D01*
X9893923Y-5907540D01*
X9823371Y-5886138D01*
X9750000Y-5878912D01*
X7050000Y-5878912D01*
X6976629Y-5886138D01*
X6906077Y-5907540D01*
X6841057Y-5942294D01*
X6784066Y-5989066D01*
X6737294Y-6046057D01*
X6702540Y-6111077D01*
X6681138Y-6181629D01*
X6673912Y-6255000D01*
X6673912Y-6555000D01*
X6681138Y-6628371D01*
X6702540Y-6698923D01*
X6729488Y-6749338D01*
X6665332Y-6792206D01*
X6592206Y-6865332D01*
X6534751Y-6951319D01*
X6495176Y-7046863D01*
X6475000Y-7148292D01*
X250000Y-7148292D01*
X250000Y-6705000D01*
X873911Y-6705000D01*
X878255Y-6749108D01*
X891121Y-6791521D01*
X912014Y-6830608D01*
X940131Y-6864869D01*
X974392Y-6892986D01*
X1013479Y-6913879D01*
X1055892Y-6926745D01*
X1100000Y-6931089D01*
X2468750Y-6930000D01*
X2525000Y-6873750D01*
X2525000Y-6480000D01*
X2675000Y-6480000D01*
X2675000Y-6873750D01*
X2731250Y-6930000D01*
X4100000Y-6931089D01*
X4144108Y-6926745D01*
X4186521Y-6913879D01*
X4225608Y-6892986D01*
X4259869Y-6864869D01*
X4287986Y-6830608D01*
X4308879Y-6791521D01*
X4321745Y-6749108D01*
X4326089Y-6705000D01*
X4325000Y-6536250D01*
X4268750Y-6480000D01*
X2675000Y-6480000D01*
X2525000Y-6480000D01*
X931250Y-6480000D01*
X875000Y-6536250D01*
X873911Y-6705000D01*
X250000Y-6705000D01*
X250000Y-6105000D01*
X873911Y-6105000D01*
X875000Y-6273750D01*
X931250Y-6330000D01*
X2525000Y-6330000D01*
X2525000Y-5936250D01*
X2675000Y-5936250D01*
X2675000Y-6330000D01*
X4268750Y-6330000D01*
X4325000Y-6273750D01*
X4326089Y-6105000D01*
X4321745Y-6060892D01*
X4308879Y-6018479D01*
X4287986Y-5979392D01*
X4259869Y-5945131D01*
X4225608Y-5917014D01*
X4186521Y-5896121D01*
X4144108Y-5883255D01*
X4100000Y-5878911D01*
X2731250Y-5880000D01*
X2675000Y-5936250D01*
X2525000Y-5936250D01*
X2468750Y-5880000D01*
X1100000Y-5878911D01*
X1055892Y-5883255D01*
X1013479Y-5896121D01*
X974392Y-5917014D01*
X940131Y-5945131D01*
X912014Y-5979392D01*
X891121Y-6018479D01*
X878255Y-6060892D01*
X873911Y-6105000D01*
X250000Y-6105000D01*
X250000Y-5492462D01*
X265332Y-5507794D01*
X351319Y-5565249D01*
X446863Y-5604824D01*
X548292Y-5625000D01*
X651708Y-5625000D01*
X753137Y-5604824D01*
X848681Y-5565249D01*
X934668Y-5507794D01*
X942354Y-5500108D01*
X984066Y-5550934D01*
X1041057Y-5597706D01*
X1106077Y-5632460D01*
X1176629Y-5653862D01*
X1250000Y-5661088D01*
X3950000Y-5661088D01*
X4023371Y-5653862D01*
X4093923Y-5632460D01*
X4158943Y-5597706D01*
X4215934Y-5550934D01*
X4262706Y-5493943D01*
X4297460Y-5428923D01*
X4318862Y-5358371D01*
X4326088Y-5285000D01*
X4326088Y-4985000D01*
X4318862Y-4911629D01*
X4297460Y-4841077D01*
X4262706Y-4776057D01*
X4215934Y-4719066D01*
X4158943Y-4672294D01*
X4093923Y-4637540D01*
X4023371Y-4616138D01*
X3950000Y-4608912D01*
X1250000Y-4608912D01*
X1176629Y-4616138D01*
X1106077Y-4637540D01*
X1041057Y-4672294D01*
X984066Y-4719066D01*
X973907Y-4731445D01*
X934668Y-4692206D01*
X848681Y-4634751D01*
X753137Y-4595176D01*
X651708Y-4575000D01*
X548292Y-4575000D01*
X446863Y-4595176D01*
X351319Y-4634751D01*
X265332Y-4692206D01*
X250000Y-4707538D01*
X250000Y-4292462D01*
X265332Y-4307794D01*
X351319Y-4365249D01*
X446863Y-4404824D01*
X548292Y-4425000D01*
X651708Y-4425000D01*
X753137Y-4404824D01*
X848681Y-4365249D01*
X934668Y-4307794D01*
X973907Y-4268555D01*
X984066Y-4280934D01*
X1041057Y-4327706D01*
X1106077Y-4362460D01*
X1176629Y-4383862D01*
X1250000Y-4391088D01*
X3950000Y-4391088D01*
X4023371Y-4383862D01*
X4093923Y-4362460D01*
X4158943Y-4327706D01*
X4215934Y-4280934D01*
X4262706Y-4223943D01*
X4297460Y-4158923D01*
X4318862Y-4088371D01*
X4326088Y-4015000D01*
X4326088Y-3715000D01*
X4318862Y-3641629D01*
X4297460Y-3571077D01*
X4262706Y-3506057D01*
X4215934Y-3449066D01*
X4158943Y-3402294D01*
X4093923Y-3367540D01*
X4023371Y-3346138D01*
X3950000Y-3338912D01*
X1250000Y-3338912D01*
X1176629Y-3346138D01*
X1106077Y-3367540D01*
X1041057Y-3402294D01*
X984066Y-3449066D01*
X942354Y-3499892D01*
X934668Y-3492206D01*
X848681Y-3434751D01*
X753137Y-3395176D01*
X651708Y-3375000D01*
X548292Y-3375000D01*
X446863Y-3395176D01*
X351319Y-3434751D01*
X265332Y-3492206D01*
X250000Y-3507538D01*
X250000Y-2445000D01*
X873912Y-2445000D01*
X873912Y-2745000D01*
X881138Y-2818371D01*
X902540Y-2888923D01*
X937294Y-2953943D01*
X984066Y-3010934D01*
X1041057Y-3057706D01*
X1106077Y-3092460D01*
X1176629Y-3113862D01*
X1250000Y-3121088D01*
X3950000Y-3121088D01*
X4023371Y-3113862D01*
X4093923Y-3092460D01*
X4158943Y-3057706D01*
X4215934Y-3010934D01*
X4262706Y-2953943D01*
X4297460Y-2888923D01*
X4318862Y-2818371D01*
X4326088Y-2745000D01*
X4326088Y-2445000D01*
X4318862Y-2371629D01*
X4297460Y-2301077D01*
X4262706Y-2236057D01*
X4215934Y-2179066D01*
X4158943Y-2132294D01*
X4093923Y-2097540D01*
X4023371Y-2076138D01*
X3950000Y-2068912D01*
X3798290Y-2068912D01*
X3804824Y-2053137D01*
X3825000Y-1951708D01*
X3825000Y-1848292D01*
X3804824Y-1746863D01*
X3765249Y-1651319D01*
X3707794Y-1565332D01*
X3634668Y-1492206D01*
X3548681Y-1434751D01*
X3453137Y-1395176D01*
X3351708Y-1375000D01*
X3248292Y-1375000D01*
X3146863Y-1395176D01*
X3051319Y-1434751D01*
X2965332Y-1492206D01*
X2892206Y-1565332D01*
X2834751Y-1651319D01*
X2795176Y-1746863D01*
X2775000Y-1848292D01*
X2775000Y-1951708D01*
X2783135Y-1992602D01*
X2706825Y-2068912D01*
X1250000Y-2068912D01*
X1176629Y-2076138D01*
X1106077Y-2097540D01*
X1041057Y-2132294D01*
X984066Y-2179066D01*
X937294Y-2236057D01*
X902540Y-2301077D01*
X881138Y-2371629D01*
X873912Y-2445000D01*
X250000Y-2445000D01*
X250000Y-948292D01*
X3675000Y-948292D01*
X3675000Y-1051708D01*
X3695176Y-1153137D01*
X3734751Y-1248681D01*
X3792206Y-1334668D01*
X3865332Y-1407794D01*
X3951319Y-1465249D01*
X4046863Y-1504824D01*
X4148292Y-1525000D01*
X4251708Y-1525000D01*
X4353137Y-1504824D01*
X4448681Y-1465249D01*
X4517819Y-1419052D01*
X4532014Y-1445608D01*
X4560131Y-1479869D01*
X4594392Y-1507986D01*
X4633479Y-1528879D01*
X4675892Y-1541745D01*
X4720000Y-1546089D01*
X4883750Y-1545000D01*
X4940000Y-1488750D01*
X4940000Y-1075000D01*
X4920000Y-1075000D01*
X4920000Y-925000D01*
X4940000Y-925000D01*
X4940000Y-511250D01*
X5090000Y-511250D01*
X5090000Y-925000D01*
X5110000Y-925000D01*
X5110000Y-1075000D01*
X5090000Y-1075000D01*
X5090000Y-1488750D01*
X5146250Y-1545000D01*
X5310000Y-1546089D01*
X5354108Y-1541745D01*
X5396521Y-1528879D01*
X5435608Y-1507986D01*
X5469869Y-1479869D01*
X5497986Y-1445608D01*
X5518879Y-1406521D01*
X5526898Y-1380085D01*
X5573333Y-1436667D01*
X5629946Y-1483127D01*
X5694534Y-1517650D01*
X5764617Y-1538910D01*
X5837500Y-1546088D01*
X6000759Y-1546088D01*
X6506809Y-2052139D01*
X6518552Y-2066448D01*
X6575653Y-2113309D01*
X6579202Y-2115206D01*
X6592206Y-2134668D01*
X6665332Y-2207794D01*
X6729488Y-2250662D01*
X6702540Y-2301077D01*
X6681138Y-2371629D01*
X6673912Y-2445000D01*
X6673912Y-2745000D01*
X6681138Y-2818371D01*
X6702540Y-2888923D01*
X6737294Y-2953943D01*
X6784066Y-3010934D01*
X6841057Y-3057706D01*
X6906077Y-3092460D01*
X6976629Y-3113862D01*
X7050000Y-3121088D01*
X9750000Y-3121088D01*
X9823371Y-3113862D01*
X9893923Y-3092460D01*
X9958943Y-3057706D01*
X10015934Y-3010934D01*
X10062706Y-2953943D01*
X10097460Y-2888923D01*
X10118862Y-2818371D01*
X10126088Y-2745000D01*
X10126088Y-2445000D01*
X10118862Y-2371629D01*
X10097460Y-2301077D01*
X10062706Y-2236057D01*
X10015934Y-2179066D01*
X9958943Y-2132294D01*
X9893923Y-2097540D01*
X9823371Y-2076138D01*
X9750000Y-2068912D01*
X7799242Y-2068912D01*
X7525000Y-1794671D01*
X7525000Y-1748292D01*
X7504824Y-1646863D01*
X7465249Y-1551319D01*
X7407794Y-1465332D01*
X7334668Y-1392206D01*
X7248681Y-1334751D01*
X7153137Y-1295176D01*
X7051708Y-1275000D01*
X6948292Y-1275000D01*
X6846863Y-1295176D01*
X6821154Y-1305825D01*
X6506088Y-990759D01*
X6506088Y-827500D01*
X6498910Y-754617D01*
X6477650Y-684534D01*
X6443127Y-619946D01*
X6396667Y-563333D01*
X6340054Y-516873D01*
X6275466Y-482350D01*
X6205383Y-461090D01*
X6132500Y-453912D01*
X5837500Y-453912D01*
X5764617Y-461090D01*
X5694534Y-482350D01*
X5629946Y-516873D01*
X5573333Y-563333D01*
X5526898Y-619915D01*
X5518879Y-593479D01*
X5497986Y-554392D01*
X5469869Y-520131D01*
X5435608Y-492014D01*
X5396521Y-471121D01*
X5354108Y-458255D01*
X5310000Y-453911D01*
X5146250Y-455000D01*
X5090000Y-511250D01*
X4940000Y-511250D01*
X4883750Y-455000D01*
X4720000Y-453911D01*
X4675892Y-458255D01*
X4633479Y-471121D01*
X4594392Y-492014D01*
X4560131Y-520131D01*
X4532014Y-554392D01*
X4517819Y-580948D01*
X4448681Y-534751D01*
X4353137Y-495176D01*
X4251708Y-475000D01*
X4148292Y-475000D01*
X4046863Y-495176D01*
X3951319Y-534751D01*
X3865332Y-592206D01*
X3792206Y-665332D01*
X3734751Y-751319D01*
X3695176Y-846863D01*
X3675000Y-948292D01*
X250000Y-948292D01*
X250000Y-250000D01*
X10750000Y-250000D01*
X10750000Y-3435633D01*
X10750000Y-3435633D01*
G37*
X10750000Y-3435633D02*
X10748681Y-3434751D01*
X10653137Y-3395176D01*
X10551708Y-3375000D01*
X10448292Y-3375000D01*
X10346863Y-3395176D01*
X10251319Y-3434751D01*
X10165332Y-3492206D01*
X10093629Y-3563909D01*
X10062706Y-3506057D01*
X10015934Y-3449066D01*
X9958943Y-3402294D01*
X9893923Y-3367540D01*
X9823371Y-3346138D01*
X9750000Y-3338912D01*
X7050000Y-3338912D01*
X6976629Y-3346138D01*
X6906077Y-3367540D01*
X6841057Y-3402294D01*
X6784066Y-3449066D01*
X6737294Y-3506057D01*
X6702540Y-3571077D01*
X6681138Y-3641629D01*
X6673912Y-3715000D01*
X6673912Y-4015000D01*
X6681138Y-4088371D01*
X6702540Y-4158923D01*
X6737294Y-4223943D01*
X6784066Y-4280934D01*
X6841057Y-4327706D01*
X6906077Y-4362460D01*
X6976629Y-4383862D01*
X7050000Y-4391088D01*
X9750000Y-4391088D01*
X9823371Y-4383862D01*
X9893923Y-4362460D01*
X9958943Y-4327706D01*
X10015934Y-4280934D01*
X10062706Y-4223943D01*
X10072632Y-4205373D01*
X10092206Y-4234668D01*
X10165332Y-4307794D01*
X10251319Y-4365249D01*
X10346863Y-4404824D01*
X10448292Y-4425000D01*
X10551708Y-4425000D01*
X10653137Y-4404824D01*
X10748681Y-4365249D01*
X10750001Y-4364367D01*
X10750001Y-4635633D01*
X10748681Y-4634751D01*
X10653137Y-4595176D01*
X10551708Y-4575000D01*
X10448292Y-4575000D01*
X10346863Y-4595176D01*
X10251319Y-4634751D01*
X10165332Y-4692206D01*
X10092206Y-4765332D01*
X10072632Y-4794627D01*
X10062706Y-4776057D01*
X10015934Y-4719066D01*
X9958943Y-4672294D01*
X9893923Y-4637540D01*
X9823371Y-4616138D01*
X9750000Y-4608912D01*
X7050000Y-4608912D01*
X6976629Y-4616138D01*
X6906077Y-4637540D01*
X6841057Y-4672294D01*
X6784066Y-4719066D01*
X6737294Y-4776057D01*
X6702540Y-4841077D01*
X6681138Y-4911629D01*
X6673912Y-4985000D01*
X6673912Y-5285000D01*
X6681138Y-5358371D01*
X6702540Y-5428923D01*
X6737294Y-5493943D01*
X6784066Y-5550934D01*
X6841057Y-5597706D01*
X6906077Y-5632460D01*
X6976629Y-5653862D01*
X7050000Y-5661088D01*
X9750000Y-5661088D01*
X9823371Y-5653862D01*
X9893923Y-5632460D01*
X9958943Y-5597706D01*
X10015934Y-5550934D01*
X10062706Y-5493943D01*
X10093629Y-5436091D01*
X10165332Y-5507794D01*
X10251319Y-5565249D01*
X10346863Y-5604824D01*
X10448292Y-5625000D01*
X10551708Y-5625000D01*
X10653137Y-5604824D01*
X10748681Y-5565249D01*
X10750001Y-5564367D01*
X10750001Y-7750000D01*
X250000Y-7750000D01*
X250000Y-7148292D01*
X6475000Y-7148292D01*
X6475000Y-7251708D01*
X6495176Y-7353137D01*
X6534751Y-7448681D01*
X6592206Y-7534668D01*
X6665332Y-7607794D01*
X6751319Y-7665249D01*
X6846863Y-7704824D01*
X6948292Y-7725000D01*
X7051708Y-7725000D01*
X7153137Y-7704824D01*
X7248681Y-7665249D01*
X7334668Y-7607794D01*
X7407794Y-7534668D01*
X7465249Y-7448681D01*
X7504824Y-7353137D01*
X7525000Y-7251708D01*
X7525000Y-7148292D01*
X7504824Y-7046863D01*
X7496792Y-7027472D01*
X7593176Y-6931088D01*
X9750000Y-6931088D01*
X9823371Y-6923862D01*
X9893923Y-6902460D01*
X9958943Y-6867706D01*
X10015934Y-6820934D01*
X10062706Y-6763943D01*
X10097460Y-6698923D01*
X10118862Y-6628371D01*
X10126088Y-6555000D01*
X10126088Y-6255000D01*
X10118862Y-6181629D01*
X10097460Y-6111077D01*
X10062706Y-6046057D01*
X10015934Y-5989066D01*
X9958943Y-5942294D01*
X9893923Y-5907540D01*
X9823371Y-5886138D01*
X9750000Y-5878912D01*
X7050000Y-5878912D01*
X6976629Y-5886138D01*
X6906077Y-5907540D01*
X6841057Y-5942294D01*
X6784066Y-5989066D01*
X6737294Y-6046057D01*
X6702540Y-6111077D01*
X6681138Y-6181629D01*
X6673912Y-6255000D01*
X6673912Y-6555000D01*
X6681138Y-6628371D01*
X6702540Y-6698923D01*
X6729488Y-6749338D01*
X6665332Y-6792206D01*
X6592206Y-6865332D01*
X6534751Y-6951319D01*
X6495176Y-7046863D01*
X6475000Y-7148292D01*
X250000Y-7148292D01*
X250000Y-6705000D01*
X873911Y-6705000D01*
X878255Y-6749108D01*
X891121Y-6791521D01*
X912014Y-6830608D01*
X940131Y-6864869D01*
X974392Y-6892986D01*
X1013479Y-6913879D01*
X1055892Y-6926745D01*
X1100000Y-6931089D01*
X2468750Y-6930000D01*
X2525000Y-6873750D01*
X2525000Y-6480000D01*
X2675000Y-6480000D01*
X2675000Y-6873750D01*
X2731250Y-6930000D01*
X4100000Y-6931089D01*
X4144108Y-6926745D01*
X4186521Y-6913879D01*
X4225608Y-6892986D01*
X4259869Y-6864869D01*
X4287986Y-6830608D01*
X4308879Y-6791521D01*
X4321745Y-6749108D01*
X4326089Y-6705000D01*
X4325000Y-6536250D01*
X4268750Y-6480000D01*
X2675000Y-6480000D01*
X2525000Y-6480000D01*
X931250Y-6480000D01*
X875000Y-6536250D01*
X873911Y-6705000D01*
X250000Y-6705000D01*
X250000Y-6105000D01*
X873911Y-6105000D01*
X875000Y-6273750D01*
X931250Y-6330000D01*
X2525000Y-6330000D01*
X2525000Y-5936250D01*
X2675000Y-5936250D01*
X2675000Y-6330000D01*
X4268750Y-6330000D01*
X4325000Y-6273750D01*
X4326089Y-6105000D01*
X4321745Y-6060892D01*
X4308879Y-6018479D01*
X4287986Y-5979392D01*
X4259869Y-5945131D01*
X4225608Y-5917014D01*
X4186521Y-5896121D01*
X4144108Y-5883255D01*
X4100000Y-5878911D01*
X2731250Y-5880000D01*
X2675000Y-5936250D01*
X2525000Y-5936250D01*
X2468750Y-5880000D01*
X1100000Y-5878911D01*
X1055892Y-5883255D01*
X1013479Y-5896121D01*
X974392Y-5917014D01*
X940131Y-5945131D01*
X912014Y-5979392D01*
X891121Y-6018479D01*
X878255Y-6060892D01*
X873911Y-6105000D01*
X250000Y-6105000D01*
X250000Y-5492462D01*
X265332Y-5507794D01*
X351319Y-5565249D01*
X446863Y-5604824D01*
X548292Y-5625000D01*
X651708Y-5625000D01*
X753137Y-5604824D01*
X848681Y-5565249D01*
X934668Y-5507794D01*
X942354Y-5500108D01*
X984066Y-5550934D01*
X1041057Y-5597706D01*
X1106077Y-5632460D01*
X1176629Y-5653862D01*
X1250000Y-5661088D01*
X3950000Y-5661088D01*
X4023371Y-5653862D01*
X4093923Y-5632460D01*
X4158943Y-5597706D01*
X4215934Y-5550934D01*
X4262706Y-5493943D01*
X4297460Y-5428923D01*
X4318862Y-5358371D01*
X4326088Y-5285000D01*
X4326088Y-4985000D01*
X4318862Y-4911629D01*
X4297460Y-4841077D01*
X4262706Y-4776057D01*
X4215934Y-4719066D01*
X4158943Y-4672294D01*
X4093923Y-4637540D01*
X4023371Y-4616138D01*
X3950000Y-4608912D01*
X1250000Y-4608912D01*
X1176629Y-4616138D01*
X1106077Y-4637540D01*
X1041057Y-4672294D01*
X984066Y-4719066D01*
X973907Y-4731445D01*
X934668Y-4692206D01*
X848681Y-4634751D01*
X753137Y-4595176D01*
X651708Y-4575000D01*
X548292Y-4575000D01*
X446863Y-4595176D01*
X351319Y-4634751D01*
X265332Y-4692206D01*
X250000Y-4707538D01*
X250000Y-4292462D01*
X265332Y-4307794D01*
X351319Y-4365249D01*
X446863Y-4404824D01*
X548292Y-4425000D01*
X651708Y-4425000D01*
X753137Y-4404824D01*
X848681Y-4365249D01*
X934668Y-4307794D01*
X973907Y-4268555D01*
X984066Y-4280934D01*
X1041057Y-4327706D01*
X1106077Y-4362460D01*
X1176629Y-4383862D01*
X1250000Y-4391088D01*
X3950000Y-4391088D01*
X4023371Y-4383862D01*
X4093923Y-4362460D01*
X4158943Y-4327706D01*
X4215934Y-4280934D01*
X4262706Y-4223943D01*
X4297460Y-4158923D01*
X4318862Y-4088371D01*
X4326088Y-4015000D01*
X4326088Y-3715000D01*
X4318862Y-3641629D01*
X4297460Y-3571077D01*
X4262706Y-3506057D01*
X4215934Y-3449066D01*
X4158943Y-3402294D01*
X4093923Y-3367540D01*
X4023371Y-3346138D01*
X3950000Y-3338912D01*
X1250000Y-3338912D01*
X1176629Y-3346138D01*
X1106077Y-3367540D01*
X1041057Y-3402294D01*
X984066Y-3449066D01*
X942354Y-3499892D01*
X934668Y-3492206D01*
X848681Y-3434751D01*
X753137Y-3395176D01*
X651708Y-3375000D01*
X548292Y-3375000D01*
X446863Y-3395176D01*
X351319Y-3434751D01*
X265332Y-3492206D01*
X250000Y-3507538D01*
X250000Y-2445000D01*
X873912Y-2445000D01*
X873912Y-2745000D01*
X881138Y-2818371D01*
X902540Y-2888923D01*
X937294Y-2953943D01*
X984066Y-3010934D01*
X1041057Y-3057706D01*
X1106077Y-3092460D01*
X1176629Y-3113862D01*
X1250000Y-3121088D01*
X3950000Y-3121088D01*
X4023371Y-3113862D01*
X4093923Y-3092460D01*
X4158943Y-3057706D01*
X4215934Y-3010934D01*
X4262706Y-2953943D01*
X4297460Y-2888923D01*
X4318862Y-2818371D01*
X4326088Y-2745000D01*
X4326088Y-2445000D01*
X4318862Y-2371629D01*
X4297460Y-2301077D01*
X4262706Y-2236057D01*
X4215934Y-2179066D01*
X4158943Y-2132294D01*
X4093923Y-2097540D01*
X4023371Y-2076138D01*
X3950000Y-2068912D01*
X3798290Y-2068912D01*
X3804824Y-2053137D01*
X3825000Y-1951708D01*
X3825000Y-1848292D01*
X3804824Y-1746863D01*
X3765249Y-1651319D01*
X3707794Y-1565332D01*
X3634668Y-1492206D01*
X3548681Y-1434751D01*
X3453137Y-1395176D01*
X3351708Y-1375000D01*
X3248292Y-1375000D01*
X3146863Y-1395176D01*
X3051319Y-1434751D01*
X2965332Y-1492206D01*
X2892206Y-1565332D01*
X2834751Y-1651319D01*
X2795176Y-1746863D01*
X2775000Y-1848292D01*
X2775000Y-1951708D01*
X2783135Y-1992602D01*
X2706825Y-2068912D01*
X1250000Y-2068912D01*
X1176629Y-2076138D01*
X1106077Y-2097540D01*
X1041057Y-2132294D01*
X984066Y-2179066D01*
X937294Y-2236057D01*
X902540Y-2301077D01*
X881138Y-2371629D01*
X873912Y-2445000D01*
X250000Y-2445000D01*
X250000Y-948292D01*
X3675000Y-948292D01*
X3675000Y-1051708D01*
X3695176Y-1153137D01*
X3734751Y-1248681D01*
X3792206Y-1334668D01*
X3865332Y-1407794D01*
X3951319Y-1465249D01*
X4046863Y-1504824D01*
X4148292Y-1525000D01*
X4251708Y-1525000D01*
X4353137Y-1504824D01*
X4448681Y-1465249D01*
X4517819Y-1419052D01*
X4532014Y-1445608D01*
X4560131Y-1479869D01*
X4594392Y-1507986D01*
X4633479Y-1528879D01*
X4675892Y-1541745D01*
X4720000Y-1546089D01*
X4883750Y-1545000D01*
X4940000Y-1488750D01*
X4940000Y-1075000D01*
X4920000Y-1075000D01*
X4920000Y-925000D01*
X4940000Y-925000D01*
X4940000Y-511250D01*
X5090000Y-511250D01*
X5090000Y-925000D01*
X5110000Y-925000D01*
X5110000Y-1075000D01*
X5090000Y-1075000D01*
X5090000Y-1488750D01*
X5146250Y-1545000D01*
X5310000Y-1546089D01*
X5354108Y-1541745D01*
X5396521Y-1528879D01*
X5435608Y-1507986D01*
X5469869Y-1479869D01*
X5497986Y-1445608D01*
X5518879Y-1406521D01*
X5526898Y-1380085D01*
X5573333Y-1436667D01*
X5629946Y-1483127D01*
X5694534Y-1517650D01*
X5764617Y-1538910D01*
X5837500Y-1546088D01*
X6000759Y-1546088D01*
X6506809Y-2052139D01*
X6518552Y-2066448D01*
X6575653Y-2113309D01*
X6579202Y-2115206D01*
X6592206Y-2134668D01*
X6665332Y-2207794D01*
X6729488Y-2250662D01*
X6702540Y-2301077D01*
X6681138Y-2371629D01*
X6673912Y-2445000D01*
X6673912Y-2745000D01*
X6681138Y-2818371D01*
X6702540Y-2888923D01*
X6737294Y-2953943D01*
X6784066Y-3010934D01*
X6841057Y-3057706D01*
X6906077Y-3092460D01*
X6976629Y-3113862D01*
X7050000Y-3121088D01*
X9750000Y-3121088D01*
X9823371Y-3113862D01*
X9893923Y-3092460D01*
X9958943Y-3057706D01*
X10015934Y-3010934D01*
X10062706Y-2953943D01*
X10097460Y-2888923D01*
X10118862Y-2818371D01*
X10126088Y-2745000D01*
X10126088Y-2445000D01*
X10118862Y-2371629D01*
X10097460Y-2301077D01*
X10062706Y-2236057D01*
X10015934Y-2179066D01*
X9958943Y-2132294D01*
X9893923Y-2097540D01*
X9823371Y-2076138D01*
X9750000Y-2068912D01*
X7799242Y-2068912D01*
X7525000Y-1794671D01*
X7525000Y-1748292D01*
X7504824Y-1646863D01*
X7465249Y-1551319D01*
X7407794Y-1465332D01*
X7334668Y-1392206D01*
X7248681Y-1334751D01*
X7153137Y-1295176D01*
X7051708Y-1275000D01*
X6948292Y-1275000D01*
X6846863Y-1295176D01*
X6821154Y-1305825D01*
X6506088Y-990759D01*
X6506088Y-827500D01*
X6498910Y-754617D01*
X6477650Y-684534D01*
X6443127Y-619946D01*
X6396667Y-563333D01*
X6340054Y-516873D01*
X6275466Y-482350D01*
X6205383Y-461090D01*
X6132500Y-453912D01*
X5837500Y-453912D01*
X5764617Y-461090D01*
X5694534Y-482350D01*
X5629946Y-516873D01*
X5573333Y-563333D01*
X5526898Y-619915D01*
X5518879Y-593479D01*
X5497986Y-554392D01*
X5469869Y-520131D01*
X5435608Y-492014D01*
X5396521Y-471121D01*
X5354108Y-458255D01*
X5310000Y-453911D01*
X5146250Y-455000D01*
X5090000Y-511250D01*
X4940000Y-511250D01*
X4883750Y-455000D01*
X4720000Y-453911D01*
X4675892Y-458255D01*
X4633479Y-471121D01*
X4594392Y-492014D01*
X4560131Y-520131D01*
X4532014Y-554392D01*
X4517819Y-580948D01*
X4448681Y-534751D01*
X4353137Y-495176D01*
X4251708Y-475000D01*
X4148292Y-475000D01*
X4046863Y-495176D01*
X3951319Y-534751D01*
X3865332Y-592206D01*
X3792206Y-665332D01*
X3734751Y-751319D01*
X3695176Y-846863D01*
X3675000Y-948292D01*
X250000Y-948292D01*
X250000Y-250000D01*
X10750000Y-250000D01*
X10750000Y-3435633D01*
M02*
