G04 #@! TF.GenerationSoftware,KiCad,Pcbnew,5.1.4*
G04 #@! TF.CreationDate,2019-09-23T19:39:08+02:00*
G04 #@! TF.ProjectId,so8,736f382e-6b69-4636-9164-5f7063625858,rev?*
G04 #@! TF.SameCoordinates,PX8caabe0PY5a1f4a0*
G04 #@! TF.FileFunction,Soldermask,Top*
G04 #@! TF.FilePolarity,Negative*
%FSLAX46Y46*%
G04 Gerber Fmt 4.6, Leading zero omitted, Abs format (unit mm)*
G04 Created by KiCad (PCBNEW 5.1.4) date 2019-09-23 19:39:08*
%MOMM*%
%LPD*%
G04 APERTURE LIST*
%ADD10C,0.100000*%
%ADD11C,0.700000*%
%ADD12C,0.690000*%
G04 APERTURE END LIST*
D10*
G36*
X9792153Y-2245843D02*
G01*
X9809141Y-2248363D01*
X9825800Y-2252535D01*
X9841970Y-2258321D01*
X9857494Y-2265664D01*
X9872225Y-2274493D01*
X9886019Y-2284723D01*
X9898744Y-2296256D01*
X9910277Y-2308981D01*
X9920507Y-2322775D01*
X9929336Y-2337506D01*
X9936679Y-2353030D01*
X9942465Y-2369200D01*
X9946637Y-2385859D01*
X9949157Y-2402847D01*
X9950000Y-2420000D01*
X9950000Y-2770000D01*
X9949157Y-2787153D01*
X9946637Y-2804141D01*
X9942465Y-2820800D01*
X9936679Y-2836970D01*
X9929336Y-2852494D01*
X9920507Y-2867225D01*
X9910277Y-2881019D01*
X9898744Y-2893744D01*
X9886019Y-2905277D01*
X9872225Y-2915507D01*
X9857494Y-2924336D01*
X9841970Y-2931679D01*
X9825800Y-2937465D01*
X9809141Y-2941637D01*
X9792153Y-2944157D01*
X9775000Y-2945000D01*
X7025000Y-2945000D01*
X7007847Y-2944157D01*
X6990859Y-2941637D01*
X6974200Y-2937465D01*
X6958030Y-2931679D01*
X6942506Y-2924336D01*
X6927775Y-2915507D01*
X6913981Y-2905277D01*
X6901256Y-2893744D01*
X6889723Y-2881019D01*
X6879493Y-2867225D01*
X6870664Y-2852494D01*
X6863321Y-2836970D01*
X6857535Y-2820800D01*
X6853363Y-2804141D01*
X6850843Y-2787153D01*
X6850000Y-2770000D01*
X6850000Y-2420000D01*
X6850843Y-2402847D01*
X6853363Y-2385859D01*
X6857535Y-2369200D01*
X6863321Y-2353030D01*
X6870664Y-2337506D01*
X6879493Y-2322775D01*
X6889723Y-2308981D01*
X6901256Y-2296256D01*
X6913981Y-2284723D01*
X6927775Y-2274493D01*
X6942506Y-2265664D01*
X6958030Y-2258321D01*
X6974200Y-2252535D01*
X6990859Y-2248363D01*
X7007847Y-2245843D01*
X7025000Y-2245000D01*
X9775000Y-2245000D01*
X9792153Y-2245843D01*
X9792153Y-2245843D01*
G37*
D11*
X8400000Y-2595000D03*
D10*
G36*
X9792153Y-3515843D02*
G01*
X9809141Y-3518363D01*
X9825800Y-3522535D01*
X9841970Y-3528321D01*
X9857494Y-3535664D01*
X9872225Y-3544493D01*
X9886019Y-3554723D01*
X9898744Y-3566256D01*
X9910277Y-3578981D01*
X9920507Y-3592775D01*
X9929336Y-3607506D01*
X9936679Y-3623030D01*
X9942465Y-3639200D01*
X9946637Y-3655859D01*
X9949157Y-3672847D01*
X9950000Y-3690000D01*
X9950000Y-4040000D01*
X9949157Y-4057153D01*
X9946637Y-4074141D01*
X9942465Y-4090800D01*
X9936679Y-4106970D01*
X9929336Y-4122494D01*
X9920507Y-4137225D01*
X9910277Y-4151019D01*
X9898744Y-4163744D01*
X9886019Y-4175277D01*
X9872225Y-4185507D01*
X9857494Y-4194336D01*
X9841970Y-4201679D01*
X9825800Y-4207465D01*
X9809141Y-4211637D01*
X9792153Y-4214157D01*
X9775000Y-4215000D01*
X7025000Y-4215000D01*
X7007847Y-4214157D01*
X6990859Y-4211637D01*
X6974200Y-4207465D01*
X6958030Y-4201679D01*
X6942506Y-4194336D01*
X6927775Y-4185507D01*
X6913981Y-4175277D01*
X6901256Y-4163744D01*
X6889723Y-4151019D01*
X6879493Y-4137225D01*
X6870664Y-4122494D01*
X6863321Y-4106970D01*
X6857535Y-4090800D01*
X6853363Y-4074141D01*
X6850843Y-4057153D01*
X6850000Y-4040000D01*
X6850000Y-3690000D01*
X6850843Y-3672847D01*
X6853363Y-3655859D01*
X6857535Y-3639200D01*
X6863321Y-3623030D01*
X6870664Y-3607506D01*
X6879493Y-3592775D01*
X6889723Y-3578981D01*
X6901256Y-3566256D01*
X6913981Y-3554723D01*
X6927775Y-3544493D01*
X6942506Y-3535664D01*
X6958030Y-3528321D01*
X6974200Y-3522535D01*
X6990859Y-3518363D01*
X7007847Y-3515843D01*
X7025000Y-3515000D01*
X9775000Y-3515000D01*
X9792153Y-3515843D01*
X9792153Y-3515843D01*
G37*
D11*
X8400000Y-3865000D03*
D10*
G36*
X9792153Y-4785843D02*
G01*
X9809141Y-4788363D01*
X9825800Y-4792535D01*
X9841970Y-4798321D01*
X9857494Y-4805664D01*
X9872225Y-4814493D01*
X9886019Y-4824723D01*
X9898744Y-4836256D01*
X9910277Y-4848981D01*
X9920507Y-4862775D01*
X9929336Y-4877506D01*
X9936679Y-4893030D01*
X9942465Y-4909200D01*
X9946637Y-4925859D01*
X9949157Y-4942847D01*
X9950000Y-4960000D01*
X9950000Y-5310000D01*
X9949157Y-5327153D01*
X9946637Y-5344141D01*
X9942465Y-5360800D01*
X9936679Y-5376970D01*
X9929336Y-5392494D01*
X9920507Y-5407225D01*
X9910277Y-5421019D01*
X9898744Y-5433744D01*
X9886019Y-5445277D01*
X9872225Y-5455507D01*
X9857494Y-5464336D01*
X9841970Y-5471679D01*
X9825800Y-5477465D01*
X9809141Y-5481637D01*
X9792153Y-5484157D01*
X9775000Y-5485000D01*
X7025000Y-5485000D01*
X7007847Y-5484157D01*
X6990859Y-5481637D01*
X6974200Y-5477465D01*
X6958030Y-5471679D01*
X6942506Y-5464336D01*
X6927775Y-5455507D01*
X6913981Y-5445277D01*
X6901256Y-5433744D01*
X6889723Y-5421019D01*
X6879493Y-5407225D01*
X6870664Y-5392494D01*
X6863321Y-5376970D01*
X6857535Y-5360800D01*
X6853363Y-5344141D01*
X6850843Y-5327153D01*
X6850000Y-5310000D01*
X6850000Y-4960000D01*
X6850843Y-4942847D01*
X6853363Y-4925859D01*
X6857535Y-4909200D01*
X6863321Y-4893030D01*
X6870664Y-4877506D01*
X6879493Y-4862775D01*
X6889723Y-4848981D01*
X6901256Y-4836256D01*
X6913981Y-4824723D01*
X6927775Y-4814493D01*
X6942506Y-4805664D01*
X6958030Y-4798321D01*
X6974200Y-4792535D01*
X6990859Y-4788363D01*
X7007847Y-4785843D01*
X7025000Y-4785000D01*
X9775000Y-4785000D01*
X9792153Y-4785843D01*
X9792153Y-4785843D01*
G37*
D11*
X8400000Y-5135000D03*
D10*
G36*
X9792153Y-6055843D02*
G01*
X9809141Y-6058363D01*
X9825800Y-6062535D01*
X9841970Y-6068321D01*
X9857494Y-6075664D01*
X9872225Y-6084493D01*
X9886019Y-6094723D01*
X9898744Y-6106256D01*
X9910277Y-6118981D01*
X9920507Y-6132775D01*
X9929336Y-6147506D01*
X9936679Y-6163030D01*
X9942465Y-6179200D01*
X9946637Y-6195859D01*
X9949157Y-6212847D01*
X9950000Y-6230000D01*
X9950000Y-6580000D01*
X9949157Y-6597153D01*
X9946637Y-6614141D01*
X9942465Y-6630800D01*
X9936679Y-6646970D01*
X9929336Y-6662494D01*
X9920507Y-6677225D01*
X9910277Y-6691019D01*
X9898744Y-6703744D01*
X9886019Y-6715277D01*
X9872225Y-6725507D01*
X9857494Y-6734336D01*
X9841970Y-6741679D01*
X9825800Y-6747465D01*
X9809141Y-6751637D01*
X9792153Y-6754157D01*
X9775000Y-6755000D01*
X7025000Y-6755000D01*
X7007847Y-6754157D01*
X6990859Y-6751637D01*
X6974200Y-6747465D01*
X6958030Y-6741679D01*
X6942506Y-6734336D01*
X6927775Y-6725507D01*
X6913981Y-6715277D01*
X6901256Y-6703744D01*
X6889723Y-6691019D01*
X6879493Y-6677225D01*
X6870664Y-6662494D01*
X6863321Y-6646970D01*
X6857535Y-6630800D01*
X6853363Y-6614141D01*
X6850843Y-6597153D01*
X6850000Y-6580000D01*
X6850000Y-6230000D01*
X6850843Y-6212847D01*
X6853363Y-6195859D01*
X6857535Y-6179200D01*
X6863321Y-6163030D01*
X6870664Y-6147506D01*
X6879493Y-6132775D01*
X6889723Y-6118981D01*
X6901256Y-6106256D01*
X6913981Y-6094723D01*
X6927775Y-6084493D01*
X6942506Y-6075664D01*
X6958030Y-6068321D01*
X6974200Y-6062535D01*
X6990859Y-6058363D01*
X7007847Y-6055843D01*
X7025000Y-6055000D01*
X9775000Y-6055000D01*
X9792153Y-6055843D01*
X9792153Y-6055843D01*
G37*
D11*
X8400000Y-6405000D03*
D10*
G36*
X3992153Y-6055843D02*
G01*
X4009141Y-6058363D01*
X4025800Y-6062535D01*
X4041970Y-6068321D01*
X4057494Y-6075664D01*
X4072225Y-6084493D01*
X4086019Y-6094723D01*
X4098744Y-6106256D01*
X4110277Y-6118981D01*
X4120507Y-6132775D01*
X4129336Y-6147506D01*
X4136679Y-6163030D01*
X4142465Y-6179200D01*
X4146637Y-6195859D01*
X4149157Y-6212847D01*
X4150000Y-6230000D01*
X4150000Y-6580000D01*
X4149157Y-6597153D01*
X4146637Y-6614141D01*
X4142465Y-6630800D01*
X4136679Y-6646970D01*
X4129336Y-6662494D01*
X4120507Y-6677225D01*
X4110277Y-6691019D01*
X4098744Y-6703744D01*
X4086019Y-6715277D01*
X4072225Y-6725507D01*
X4057494Y-6734336D01*
X4041970Y-6741679D01*
X4025800Y-6747465D01*
X4009141Y-6751637D01*
X3992153Y-6754157D01*
X3975000Y-6755000D01*
X1225000Y-6755000D01*
X1207847Y-6754157D01*
X1190859Y-6751637D01*
X1174200Y-6747465D01*
X1158030Y-6741679D01*
X1142506Y-6734336D01*
X1127775Y-6725507D01*
X1113981Y-6715277D01*
X1101256Y-6703744D01*
X1089723Y-6691019D01*
X1079493Y-6677225D01*
X1070664Y-6662494D01*
X1063321Y-6646970D01*
X1057535Y-6630800D01*
X1053363Y-6614141D01*
X1050843Y-6597153D01*
X1050000Y-6580000D01*
X1050000Y-6230000D01*
X1050843Y-6212847D01*
X1053363Y-6195859D01*
X1057535Y-6179200D01*
X1063321Y-6163030D01*
X1070664Y-6147506D01*
X1079493Y-6132775D01*
X1089723Y-6118981D01*
X1101256Y-6106256D01*
X1113981Y-6094723D01*
X1127775Y-6084493D01*
X1142506Y-6075664D01*
X1158030Y-6068321D01*
X1174200Y-6062535D01*
X1190859Y-6058363D01*
X1207847Y-6055843D01*
X1225000Y-6055000D01*
X3975000Y-6055000D01*
X3992153Y-6055843D01*
X3992153Y-6055843D01*
G37*
D11*
X2600000Y-6405000D03*
D10*
G36*
X3992153Y-4785843D02*
G01*
X4009141Y-4788363D01*
X4025800Y-4792535D01*
X4041970Y-4798321D01*
X4057494Y-4805664D01*
X4072225Y-4814493D01*
X4086019Y-4824723D01*
X4098744Y-4836256D01*
X4110277Y-4848981D01*
X4120507Y-4862775D01*
X4129336Y-4877506D01*
X4136679Y-4893030D01*
X4142465Y-4909200D01*
X4146637Y-4925859D01*
X4149157Y-4942847D01*
X4150000Y-4960000D01*
X4150000Y-5310000D01*
X4149157Y-5327153D01*
X4146637Y-5344141D01*
X4142465Y-5360800D01*
X4136679Y-5376970D01*
X4129336Y-5392494D01*
X4120507Y-5407225D01*
X4110277Y-5421019D01*
X4098744Y-5433744D01*
X4086019Y-5445277D01*
X4072225Y-5455507D01*
X4057494Y-5464336D01*
X4041970Y-5471679D01*
X4025800Y-5477465D01*
X4009141Y-5481637D01*
X3992153Y-5484157D01*
X3975000Y-5485000D01*
X1225000Y-5485000D01*
X1207847Y-5484157D01*
X1190859Y-5481637D01*
X1174200Y-5477465D01*
X1158030Y-5471679D01*
X1142506Y-5464336D01*
X1127775Y-5455507D01*
X1113981Y-5445277D01*
X1101256Y-5433744D01*
X1089723Y-5421019D01*
X1079493Y-5407225D01*
X1070664Y-5392494D01*
X1063321Y-5376970D01*
X1057535Y-5360800D01*
X1053363Y-5344141D01*
X1050843Y-5327153D01*
X1050000Y-5310000D01*
X1050000Y-4960000D01*
X1050843Y-4942847D01*
X1053363Y-4925859D01*
X1057535Y-4909200D01*
X1063321Y-4893030D01*
X1070664Y-4877506D01*
X1079493Y-4862775D01*
X1089723Y-4848981D01*
X1101256Y-4836256D01*
X1113981Y-4824723D01*
X1127775Y-4814493D01*
X1142506Y-4805664D01*
X1158030Y-4798321D01*
X1174200Y-4792535D01*
X1190859Y-4788363D01*
X1207847Y-4785843D01*
X1225000Y-4785000D01*
X3975000Y-4785000D01*
X3992153Y-4785843D01*
X3992153Y-4785843D01*
G37*
D11*
X2600000Y-5135000D03*
D10*
G36*
X3992153Y-3515843D02*
G01*
X4009141Y-3518363D01*
X4025800Y-3522535D01*
X4041970Y-3528321D01*
X4057494Y-3535664D01*
X4072225Y-3544493D01*
X4086019Y-3554723D01*
X4098744Y-3566256D01*
X4110277Y-3578981D01*
X4120507Y-3592775D01*
X4129336Y-3607506D01*
X4136679Y-3623030D01*
X4142465Y-3639200D01*
X4146637Y-3655859D01*
X4149157Y-3672847D01*
X4150000Y-3690000D01*
X4150000Y-4040000D01*
X4149157Y-4057153D01*
X4146637Y-4074141D01*
X4142465Y-4090800D01*
X4136679Y-4106970D01*
X4129336Y-4122494D01*
X4120507Y-4137225D01*
X4110277Y-4151019D01*
X4098744Y-4163744D01*
X4086019Y-4175277D01*
X4072225Y-4185507D01*
X4057494Y-4194336D01*
X4041970Y-4201679D01*
X4025800Y-4207465D01*
X4009141Y-4211637D01*
X3992153Y-4214157D01*
X3975000Y-4215000D01*
X1225000Y-4215000D01*
X1207847Y-4214157D01*
X1190859Y-4211637D01*
X1174200Y-4207465D01*
X1158030Y-4201679D01*
X1142506Y-4194336D01*
X1127775Y-4185507D01*
X1113981Y-4175277D01*
X1101256Y-4163744D01*
X1089723Y-4151019D01*
X1079493Y-4137225D01*
X1070664Y-4122494D01*
X1063321Y-4106970D01*
X1057535Y-4090800D01*
X1053363Y-4074141D01*
X1050843Y-4057153D01*
X1050000Y-4040000D01*
X1050000Y-3690000D01*
X1050843Y-3672847D01*
X1053363Y-3655859D01*
X1057535Y-3639200D01*
X1063321Y-3623030D01*
X1070664Y-3607506D01*
X1079493Y-3592775D01*
X1089723Y-3578981D01*
X1101256Y-3566256D01*
X1113981Y-3554723D01*
X1127775Y-3544493D01*
X1142506Y-3535664D01*
X1158030Y-3528321D01*
X1174200Y-3522535D01*
X1190859Y-3518363D01*
X1207847Y-3515843D01*
X1225000Y-3515000D01*
X3975000Y-3515000D01*
X3992153Y-3515843D01*
X3992153Y-3515843D01*
G37*
D11*
X2600000Y-3865000D03*
D10*
G36*
X3992153Y-2245843D02*
G01*
X4009141Y-2248363D01*
X4025800Y-2252535D01*
X4041970Y-2258321D01*
X4057494Y-2265664D01*
X4072225Y-2274493D01*
X4086019Y-2284723D01*
X4098744Y-2296256D01*
X4110277Y-2308981D01*
X4120507Y-2322775D01*
X4129336Y-2337506D01*
X4136679Y-2353030D01*
X4142465Y-2369200D01*
X4146637Y-2385859D01*
X4149157Y-2402847D01*
X4150000Y-2420000D01*
X4150000Y-2770000D01*
X4149157Y-2787153D01*
X4146637Y-2804141D01*
X4142465Y-2820800D01*
X4136679Y-2836970D01*
X4129336Y-2852494D01*
X4120507Y-2867225D01*
X4110277Y-2881019D01*
X4098744Y-2893744D01*
X4086019Y-2905277D01*
X4072225Y-2915507D01*
X4057494Y-2924336D01*
X4041970Y-2931679D01*
X4025800Y-2937465D01*
X4009141Y-2941637D01*
X3992153Y-2944157D01*
X3975000Y-2945000D01*
X1225000Y-2945000D01*
X1207847Y-2944157D01*
X1190859Y-2941637D01*
X1174200Y-2937465D01*
X1158030Y-2931679D01*
X1142506Y-2924336D01*
X1127775Y-2915507D01*
X1113981Y-2905277D01*
X1101256Y-2893744D01*
X1089723Y-2881019D01*
X1079493Y-2867225D01*
X1070664Y-2852494D01*
X1063321Y-2836970D01*
X1057535Y-2820800D01*
X1053363Y-2804141D01*
X1050843Y-2787153D01*
X1050000Y-2770000D01*
X1050000Y-2420000D01*
X1050843Y-2402847D01*
X1053363Y-2385859D01*
X1057535Y-2369200D01*
X1063321Y-2353030D01*
X1070664Y-2337506D01*
X1079493Y-2322775D01*
X1089723Y-2308981D01*
X1101256Y-2296256D01*
X1113981Y-2284723D01*
X1127775Y-2274493D01*
X1142506Y-2265664D01*
X1158030Y-2258321D01*
X1174200Y-2252535D01*
X1190859Y-2248363D01*
X1207847Y-2245843D01*
X1225000Y-2245000D01*
X3975000Y-2245000D01*
X3992153Y-2245843D01*
X3992153Y-2245843D01*
G37*
D11*
X2600000Y-2595000D03*
D10*
G36*
X5204408Y-630831D02*
G01*
X5221153Y-633315D01*
X5237574Y-637428D01*
X5253513Y-643131D01*
X5268816Y-650369D01*
X5283336Y-659071D01*
X5296933Y-669156D01*
X5309476Y-680524D01*
X5320844Y-693067D01*
X5330929Y-706664D01*
X5339631Y-721184D01*
X5346869Y-736487D01*
X5352572Y-752426D01*
X5356685Y-768847D01*
X5359169Y-785592D01*
X5360000Y-802500D01*
X5360000Y-1197500D01*
X5359169Y-1214408D01*
X5356685Y-1231153D01*
X5352572Y-1247574D01*
X5346869Y-1263513D01*
X5339631Y-1278816D01*
X5330929Y-1293336D01*
X5320844Y-1306933D01*
X5309476Y-1319476D01*
X5296933Y-1330844D01*
X5283336Y-1340929D01*
X5268816Y-1349631D01*
X5253513Y-1356869D01*
X5237574Y-1362572D01*
X5221153Y-1366685D01*
X5204408Y-1369169D01*
X5187500Y-1370000D01*
X4842500Y-1370000D01*
X4825592Y-1369169D01*
X4808847Y-1366685D01*
X4792426Y-1362572D01*
X4776487Y-1356869D01*
X4761184Y-1349631D01*
X4746664Y-1340929D01*
X4733067Y-1330844D01*
X4720524Y-1319476D01*
X4709156Y-1306933D01*
X4699071Y-1293336D01*
X4690369Y-1278816D01*
X4683131Y-1263513D01*
X4677428Y-1247574D01*
X4673315Y-1231153D01*
X4670831Y-1214408D01*
X4670000Y-1197500D01*
X4670000Y-802500D01*
X4670831Y-785592D01*
X4673315Y-768847D01*
X4677428Y-752426D01*
X4683131Y-736487D01*
X4690369Y-721184D01*
X4699071Y-706664D01*
X4709156Y-693067D01*
X4720524Y-680524D01*
X4733067Y-669156D01*
X4746664Y-659071D01*
X4761184Y-650369D01*
X4776487Y-643131D01*
X4792426Y-637428D01*
X4808847Y-633315D01*
X4825592Y-630831D01*
X4842500Y-630000D01*
X5187500Y-630000D01*
X5204408Y-630831D01*
X5204408Y-630831D01*
G37*
D12*
X5015000Y-1000000D03*
D10*
G36*
X6174408Y-630831D02*
G01*
X6191153Y-633315D01*
X6207574Y-637428D01*
X6223513Y-643131D01*
X6238816Y-650369D01*
X6253336Y-659071D01*
X6266933Y-669156D01*
X6279476Y-680524D01*
X6290844Y-693067D01*
X6300929Y-706664D01*
X6309631Y-721184D01*
X6316869Y-736487D01*
X6322572Y-752426D01*
X6326685Y-768847D01*
X6329169Y-785592D01*
X6330000Y-802500D01*
X6330000Y-1197500D01*
X6329169Y-1214408D01*
X6326685Y-1231153D01*
X6322572Y-1247574D01*
X6316869Y-1263513D01*
X6309631Y-1278816D01*
X6300929Y-1293336D01*
X6290844Y-1306933D01*
X6279476Y-1319476D01*
X6266933Y-1330844D01*
X6253336Y-1340929D01*
X6238816Y-1349631D01*
X6223513Y-1356869D01*
X6207574Y-1362572D01*
X6191153Y-1366685D01*
X6174408Y-1369169D01*
X6157500Y-1370000D01*
X5812500Y-1370000D01*
X5795592Y-1369169D01*
X5778847Y-1366685D01*
X5762426Y-1362572D01*
X5746487Y-1356869D01*
X5731184Y-1349631D01*
X5716664Y-1340929D01*
X5703067Y-1330844D01*
X5690524Y-1319476D01*
X5679156Y-1306933D01*
X5669071Y-1293336D01*
X5660369Y-1278816D01*
X5653131Y-1263513D01*
X5647428Y-1247574D01*
X5643315Y-1231153D01*
X5640831Y-1214408D01*
X5640000Y-1197500D01*
X5640000Y-802500D01*
X5640831Y-785592D01*
X5643315Y-768847D01*
X5647428Y-752426D01*
X5653131Y-736487D01*
X5660369Y-721184D01*
X5669071Y-706664D01*
X5679156Y-693067D01*
X5690524Y-680524D01*
X5703067Y-669156D01*
X5716664Y-659071D01*
X5731184Y-650369D01*
X5746487Y-643131D01*
X5762426Y-637428D01*
X5778847Y-633315D01*
X5795592Y-630831D01*
X5812500Y-630000D01*
X6157500Y-630000D01*
X6174408Y-630831D01*
X6174408Y-630831D01*
G37*
D12*
X5985000Y-1000000D03*
M02*
