G04 #@! TF.GenerationSoftware,KiCad,Pcbnew,5.1.4*
G04 #@! TF.CreationDate,2019-09-23T19:39:08+02:00*
G04 #@! TF.ProjectId,so8,736f382e-6b69-4636-9164-5f7063625858,rev?*
G04 #@! TF.SameCoordinates,PX8caabe0PY5a1f4a0*
G04 #@! TF.FileFunction,Legend,Top*
G04 #@! TF.FilePolarity,Positive*
%FSLAX46Y46*%
G04 Gerber Fmt 4.6, Leading zero omitted, Abs format (unit mm)*
G04 Created by KiCad (PCBNEW 5.1.4) date 2019-09-23 19:39:08*
%MOMM*%
%LPD*%
G04 APERTURE LIST*
%ADD10C,0.160000*%
%ADD11C,0.120000*%
G04 APERTURE END LIST*
D10*
X9314285Y-624285D02*
X9509523Y-1170952D01*
X9704761Y-624285D01*
X10446666Y-1170952D02*
X9978095Y-1170952D01*
X10212380Y-1170952D02*
X10212380Y-350952D01*
X10134285Y-468095D01*
X10056190Y-546190D01*
X9978095Y-585238D01*
X420952Y-1231904D02*
X538095Y-1270952D01*
X733333Y-1270952D01*
X811428Y-1231904D01*
X850476Y-1192857D01*
X889523Y-1114761D01*
X889523Y-1036666D01*
X850476Y-958571D01*
X811428Y-919523D01*
X733333Y-880476D01*
X577142Y-841428D01*
X499047Y-802380D01*
X460000Y-763333D01*
X420952Y-685238D01*
X420952Y-607142D01*
X460000Y-529047D01*
X499047Y-490000D01*
X577142Y-450952D01*
X772380Y-450952D01*
X889523Y-490000D01*
X1397142Y-450952D02*
X1553333Y-450952D01*
X1631428Y-490000D01*
X1709523Y-568095D01*
X1748571Y-724285D01*
X1748571Y-997619D01*
X1709523Y-1153809D01*
X1631428Y-1231904D01*
X1553333Y-1270952D01*
X1397142Y-1270952D01*
X1319047Y-1231904D01*
X1240952Y-1153809D01*
X1201904Y-997619D01*
X1201904Y-724285D01*
X1240952Y-568095D01*
X1319047Y-490000D01*
X1397142Y-450952D01*
X2217142Y-450952D02*
X2217142Y-646190D01*
X2021904Y-568095D02*
X2217142Y-646190D01*
X2412380Y-568095D01*
X2100000Y-802380D02*
X2217142Y-646190D01*
X2334285Y-802380D01*
X2841904Y-802380D02*
X2763809Y-763333D01*
X2724761Y-724285D01*
X2685714Y-646190D01*
X2685714Y-607142D01*
X2724761Y-529047D01*
X2763809Y-490000D01*
X2841904Y-450952D01*
X2998095Y-450952D01*
X3076190Y-490000D01*
X3115238Y-529047D01*
X3154285Y-607142D01*
X3154285Y-646190D01*
X3115238Y-724285D01*
X3076190Y-763333D01*
X2998095Y-802380D01*
X2841904Y-802380D01*
X2763809Y-841428D01*
X2724761Y-880476D01*
X2685714Y-958571D01*
X2685714Y-1114761D01*
X2724761Y-1192857D01*
X2763809Y-1231904D01*
X2841904Y-1270952D01*
X2998095Y-1270952D01*
X3076190Y-1231904D01*
X3115238Y-1192857D01*
X3154285Y-1114761D01*
X3154285Y-958571D01*
X3115238Y-880476D01*
X3076190Y-841428D01*
X2998095Y-802380D01*
X3622857Y-450952D02*
X3622857Y-646190D01*
X3427619Y-568095D02*
X3622857Y-646190D01*
X3818095Y-568095D01*
X3505714Y-802380D02*
X3622857Y-646190D01*
X3740000Y-802380D01*
D11*
X2775000Y-2035000D02*
X1100000Y-2035000D01*
X2775000Y-1775000D02*
X2775000Y-2035000D01*
X5500000Y-1775000D02*
X2775000Y-1775000D01*
X8225000Y-1775000D02*
X8225000Y-2035000D01*
X5500000Y-1775000D02*
X8225000Y-1775000D01*
X2775000Y-7225000D02*
X2775000Y-6965000D01*
X5500000Y-7225000D02*
X2775000Y-7225000D01*
X8225000Y-7225000D02*
X8225000Y-6965000D01*
X5500000Y-7225000D02*
X8225000Y-7225000D01*
M02*
