M48
; DRILL file {KiCad 5.1.4} date Mo 23 Sep 2019 19:58:52 CEST
; FORMAT={-:-/ absolute / inch / decimal}
; #@! TF.CreationDate,2019-09-23T19:58:52+02:00
; #@! TF.GenerationSoftware,Kicad,Pcbnew,5.1.4
; #@! TF.FileFunction,Plated,1,2,PTH
FMAT,2
INCH
T1C0.0118
T2C0.0236
T3C0.0394
%
G90
G05
T1
X0.2992Y-0.4134
X0.3031Y-0.6575
X0.3071Y-0.248
X0.3819Y-0.689
X0.3937Y-0.3465
X0.4055Y-0.4331
X0.4409Y-0.1417
X0.4488Y-0.4606
X0.4606Y-0.248
X0.4685Y-0.8307
X0.5315Y-0.6772
X0.5551Y-0.5748
X0.563Y-0.126
X0.5669Y-0.5
X0.6024Y-0.126
X0.6024Y-0.378
X0.6142Y-0.7205
X0.626Y-0.0512
X0.6339Y-0.2717
X0.6535Y-0.248
X0.6929Y-0.126
X0.6969Y-0.6063
X0.7165Y-0.248
X0.7283Y-0.748
X0.7441Y-0.6063
X0.752Y-0.126
X0.7781Y-0.5083
X0.7871Y-0.4665
X0.811Y-0.0512
X0.815Y-0.685
X0.8189Y-0.1614
X0.8465Y-0.7598
X0.8504Y-0.248
X0.8819Y-0.126
X0.9409Y-0.126
X0.9488Y-0.3268
X0.9528Y-0.2638
X0.9646Y-0.4409
X0.9646Y-0.4803
X0.9961Y-0.622
X1.0079Y-0.0827
X1.0079Y-0.1654
X1.0512Y-0.0276
X1.0512Y-0.3386
X1.0945Y-0.2008
X1.1339Y-0.2362
X1.1772Y-0.1339
X1.2598Y-0.1929
X1.2638Y-0.1378
X1.2913Y-0.4606
X1.3071Y-0.5669
X1.3386Y-0.437
T3
X1.145Y-0.7811
X1.245Y-0.7811
X0.0984Y-0.0992
X0.0984Y-0.1992
X0.0984Y-0.2992
X1.145Y-0.3061
X1.145Y-0.4061
X1.145Y-0.5061
X1.145Y-0.6061
X1.245Y-0.3061
X1.245Y-0.4061
X1.245Y-0.5061
X1.245Y-0.6061
T2
X0.0671Y-0.4205G85X0.0435Y-0.4205
G05
X0.0671Y-0.7606G85X0.0435Y-0.7606
G05
X0.2415Y-0.4205G85X0.1982Y-0.4205
G05
X0.2415Y-0.7606G85X0.1982Y-0.7606
G05
T0
M30
