G04 #@! TF.GenerationSoftware,KiCad,Pcbnew,5.1.4*
G04 #@! TF.CreationDate,2019-09-23T19:58:19+02:00*
G04 #@! TF.ProjectId,spiflash,73706966-6c61-4736-982e-6b696361645f,rev?*
G04 #@! TF.SameCoordinates,PX5f5e100PY4a62f80*
G04 #@! TF.FileFunction,Copper,L2,Bot*
G04 #@! TF.FilePolarity,Positive*
%FSLAX46Y46*%
G04 Gerber Fmt 4.6, Leading zero omitted, Abs format (unit mm)*
G04 Created by KiCad (PCBNEW 5.1.4) date 2019-09-23 19:58:19*
%MOMM*%
%LPD*%
G04 APERTURE LIST*
%ADD10O,1.700000X1.700000*%
%ADD11R,1.700000X1.700000*%
%ADD12O,1.600000X1.000000*%
%ADD13O,2.100000X1.000000*%
%ADD14C,0.600000*%
%ADD15C,0.150000*%
G04 APERTURE END LIST*
D10*
X31623000Y-15396000D03*
X29083000Y-15396000D03*
X31623000Y-12856000D03*
X29083000Y-12856000D03*
X31623000Y-10316000D03*
X29083000Y-10316000D03*
X31623000Y-7776000D03*
D11*
X29083000Y-7776000D03*
D10*
X2500000Y-2520000D03*
X2500000Y-5060000D03*
D11*
X2500000Y-7600000D03*
D10*
X31623000Y-19841000D03*
D11*
X29083000Y-19841000D03*
D12*
X1405000Y-19320000D03*
X1405000Y-10680000D03*
D13*
X5585000Y-19320000D03*
X5585000Y-10680000D03*
D14*
X14300000Y-3200000D03*
X19100000Y-3200000D03*
X11200000Y-3600000D03*
X23900000Y-3200000D03*
X22400000Y-3200000D03*
X17600000Y-3200000D03*
X24200000Y-6700000D03*
X24100000Y-8300000D03*
X7800000Y-6300000D03*
X11700000Y-6300000D03*
X10000000Y-8800000D03*
X10300000Y-11000000D03*
X19991297Y-11850010D03*
X20700000Y-17400000D03*
X18500000Y-19000000D03*
X17700000Y-15400000D03*
X18900000Y-15400000D03*
X15300000Y-9600000D03*
X16100000Y-6900000D03*
X14400000Y-12700000D03*
X14100000Y-14600000D03*
X13500000Y-17200000D03*
X11900000Y-21100000D03*
X25300000Y-15800000D03*
X24500000Y-11200000D03*
X24500000Y-12200000D03*
X26700000Y-700000D03*
X21500000Y-19300000D03*
X27800000Y-5100000D03*
X28800000Y-6000000D03*
X32000000Y-4900000D03*
X29900000Y-3400000D03*
X19762868Y-12910072D03*
X15600000Y-18300000D03*
X7700000Y-16700000D03*
X7600000Y-10500000D03*
X32800000Y-11700000D03*
X32100000Y-3500000D03*
X20600000Y-1300000D03*
X26700000Y-8600000D03*
X11400000Y-11700000D03*
X9700000Y-17500000D03*
X25600000Y-2100000D03*
X34000000Y-11100000D03*
X15900000Y-1300000D03*
X33200000Y-14400000D03*
X16600000Y-6300000D03*
X15300000Y-3200000D03*
X18200000Y-6300000D03*
X20800000Y-4100008D03*
X25600000Y-4200000D03*
X21600000Y-6300000D03*
D15*
X15700000Y-18200000D02*
X15600000Y-18300000D01*
X19762868Y-12910072D02*
X18689928Y-12910072D01*
X15700000Y-15900000D02*
X15700000Y-18200000D01*
X18689928Y-12910072D02*
X15700000Y-15900000D01*
X7700000Y-16700000D02*
X7700000Y-10600000D01*
X7700000Y-10600000D02*
X7600000Y-10500000D01*
X33100000Y-4500000D02*
X32100000Y-3500000D01*
X32800000Y-11700000D02*
X33100000Y-11400000D01*
X33100000Y-11400000D02*
X33100000Y-4500000D01*
X26100000Y-3200000D02*
X26700000Y-3800000D01*
X22900000Y-1300000D02*
X24800000Y-3200000D01*
X24800000Y-3200000D02*
X26100000Y-3200000D01*
X20600000Y-1300000D02*
X22900000Y-1300000D01*
X26700000Y-8175736D02*
X26700000Y-8600000D01*
X26700000Y-3800000D02*
X26700000Y-8175736D01*
X11400000Y-11700000D02*
X9700000Y-13400000D01*
X9700000Y-13400000D02*
X9700000Y-17500000D01*
X25600000Y-2100000D02*
X33200000Y-2100000D01*
X33200000Y-2100000D02*
X34000000Y-2900000D01*
X34000000Y-2900000D02*
X34000000Y-11100000D01*
X16324264Y-1300000D02*
X16924264Y-700000D01*
X15900000Y-1300000D02*
X16324264Y-1300000D01*
X16924264Y-700000D02*
X23000000Y-700000D01*
X23000000Y-700000D02*
X25100000Y-2800000D01*
X25100000Y-2800000D02*
X32800000Y-2800000D01*
X32800000Y-2800000D02*
X33400000Y-3400000D01*
X33400000Y-3400000D02*
X33400000Y-14200000D01*
X33400000Y-14200000D02*
X33200000Y-14400000D01*
X16600000Y-6300000D02*
X15300000Y-5000000D01*
X15300000Y-5000000D02*
X15300000Y-3624264D01*
X15300000Y-3624264D02*
X15300000Y-3200000D01*
X20399992Y-4100008D02*
X20800000Y-4100008D01*
X18200000Y-6300000D02*
X20399992Y-4100008D01*
X25600000Y-4200000D02*
X23700000Y-4200000D01*
X23700000Y-4200000D02*
X21600000Y-6300000D01*
G36*
X34145443Y-265460D02*
G01*
X34285346Y-307699D01*
X34414381Y-376308D01*
X34527631Y-468672D01*
X34620785Y-581275D01*
X34690290Y-709823D01*
X34733508Y-849437D01*
X34750001Y-1006356D01*
X34750000Y-20987771D01*
X34734540Y-21145443D01*
X34692301Y-21285346D01*
X34623691Y-21414383D01*
X34531330Y-21527629D01*
X34418724Y-21620785D01*
X34290175Y-21690291D01*
X34150563Y-21733508D01*
X33993654Y-21750000D01*
X1012229Y-21750000D01*
X854557Y-21734540D01*
X714654Y-21692301D01*
X585617Y-21623691D01*
X472371Y-21531330D01*
X379215Y-21418724D01*
X309709Y-21290175D01*
X266492Y-21150563D01*
X250000Y-20993654D01*
X250000Y-20695057D01*
X13069700Y-20695057D01*
X13069700Y-20836943D01*
X13097381Y-20976104D01*
X13151679Y-21107190D01*
X13230507Y-21225164D01*
X13330836Y-21325493D01*
X13448810Y-21404321D01*
X13579896Y-21458619D01*
X13719057Y-21486300D01*
X13860943Y-21486300D01*
X14000104Y-21458619D01*
X14131190Y-21404321D01*
X14249164Y-21325493D01*
X14349493Y-21225164D01*
X14428321Y-21107190D01*
X14482619Y-20976104D01*
X14510300Y-20836943D01*
X14510300Y-20695057D01*
X14482619Y-20555896D01*
X14428321Y-20424810D01*
X14349493Y-20306836D01*
X14249164Y-20206507D01*
X14131190Y-20127679D01*
X14000104Y-20073381D01*
X13860943Y-20045700D01*
X13719057Y-20045700D01*
X13579896Y-20073381D01*
X13448810Y-20127679D01*
X13330836Y-20206507D01*
X13230507Y-20306836D01*
X13151679Y-20424810D01*
X13097381Y-20555896D01*
X13069700Y-20695057D01*
X250000Y-20695057D01*
X250000Y-19506883D01*
X404501Y-19506883D01*
X406486Y-19528155D01*
X460517Y-19660429D01*
X539315Y-19779620D01*
X639852Y-19881148D01*
X758264Y-19961112D01*
X890001Y-20016438D01*
X1030000Y-20045000D01*
X1330000Y-20045000D01*
X1330000Y-19395000D01*
X1480000Y-19395000D01*
X1480000Y-20045000D01*
X1780000Y-20045000D01*
X1919999Y-20016438D01*
X2051736Y-19961112D01*
X2170148Y-19881148D01*
X2270685Y-19779620D01*
X2349483Y-19660429D01*
X2403514Y-19528155D01*
X2405499Y-19506883D01*
X4334501Y-19506883D01*
X4336486Y-19528155D01*
X4390517Y-19660429D01*
X4469315Y-19779620D01*
X4569852Y-19881148D01*
X4688264Y-19961112D01*
X4820001Y-20016438D01*
X4960000Y-20045000D01*
X5510000Y-20045000D01*
X5510000Y-19395000D01*
X5660000Y-19395000D01*
X5660000Y-20045000D01*
X6210000Y-20045000D01*
X6349999Y-20016438D01*
X6481736Y-19961112D01*
X6600148Y-19881148D01*
X6700685Y-19779620D01*
X6767167Y-19679057D01*
X7989700Y-19679057D01*
X7989700Y-19820943D01*
X8017381Y-19960104D01*
X8071679Y-20091190D01*
X8150507Y-20209164D01*
X8250836Y-20309493D01*
X8368810Y-20388321D01*
X8499896Y-20442619D01*
X8639057Y-20470300D01*
X8780943Y-20470300D01*
X8920104Y-20442619D01*
X9051190Y-20388321D01*
X9169164Y-20309493D01*
X9269493Y-20209164D01*
X9348321Y-20091190D01*
X9402619Y-19960104D01*
X9430300Y-19820943D01*
X9430300Y-19679057D01*
X9402619Y-19539896D01*
X9348321Y-19408810D01*
X9269493Y-19290836D01*
X9169164Y-19190507D01*
X9051190Y-19111679D01*
X8920104Y-19057381D01*
X8780943Y-19029700D01*
X8639057Y-19029700D01*
X8499896Y-19057381D01*
X8368810Y-19111679D01*
X8250836Y-19190507D01*
X8150507Y-19290836D01*
X8071679Y-19408810D01*
X8017381Y-19539896D01*
X7989700Y-19679057D01*
X6767167Y-19679057D01*
X6779483Y-19660429D01*
X6833514Y-19528155D01*
X6835499Y-19506883D01*
X6799531Y-19395000D01*
X5660000Y-19395000D01*
X5510000Y-19395000D01*
X4370469Y-19395000D01*
X4334501Y-19506883D01*
X2405499Y-19506883D01*
X2369531Y-19395000D01*
X1480000Y-19395000D01*
X1330000Y-19395000D01*
X440469Y-19395000D01*
X404501Y-19506883D01*
X250000Y-19506883D01*
X250000Y-19133117D01*
X404501Y-19133117D01*
X440469Y-19245000D01*
X1330000Y-19245000D01*
X1330000Y-18595000D01*
X1480000Y-18595000D01*
X1480000Y-19245000D01*
X2369531Y-19245000D01*
X2405499Y-19133117D01*
X4334501Y-19133117D01*
X4370469Y-19245000D01*
X5510000Y-19245000D01*
X5510000Y-18595000D01*
X5660000Y-18595000D01*
X5660000Y-19245000D01*
X6799531Y-19245000D01*
X6835499Y-19133117D01*
X6833514Y-19111845D01*
X6779483Y-18979571D01*
X6700685Y-18860380D01*
X6600148Y-18758852D01*
X6481736Y-18678888D01*
X6444041Y-18663057D01*
X13069700Y-18663057D01*
X13069700Y-18804943D01*
X13097381Y-18944104D01*
X13151679Y-19075190D01*
X13230507Y-19193164D01*
X13330836Y-19293493D01*
X13448810Y-19372321D01*
X13579896Y-19426619D01*
X13719057Y-19454300D01*
X13860943Y-19454300D01*
X14000104Y-19426619D01*
X14131190Y-19372321D01*
X14249164Y-19293493D01*
X14349493Y-19193164D01*
X14428321Y-19075190D01*
X14463193Y-18991000D01*
X28006912Y-18991000D01*
X28006912Y-20691000D01*
X28011256Y-20735108D01*
X28024122Y-20777520D01*
X28045015Y-20816608D01*
X28073132Y-20850868D01*
X28107392Y-20878985D01*
X28146480Y-20899878D01*
X28188892Y-20912744D01*
X28233000Y-20917088D01*
X29933000Y-20917088D01*
X29977108Y-20912744D01*
X30019520Y-20899878D01*
X30058608Y-20878985D01*
X30092868Y-20850868D01*
X30120985Y-20816608D01*
X30141878Y-20777520D01*
X30154744Y-20735108D01*
X30159088Y-20691000D01*
X30159088Y-20082834D01*
X30575551Y-20082834D01*
X30642857Y-20282534D01*
X30747829Y-20465266D01*
X30886433Y-20624008D01*
X31053343Y-20752660D01*
X31242145Y-20846277D01*
X31381166Y-20888446D01*
X31548000Y-20856986D01*
X31548000Y-19916000D01*
X31698000Y-19916000D01*
X31698000Y-20856986D01*
X31864834Y-20888446D01*
X32003855Y-20846277D01*
X32192657Y-20752660D01*
X32359567Y-20624008D01*
X32498171Y-20465266D01*
X32603143Y-20282534D01*
X32670449Y-20082834D01*
X32639134Y-19916000D01*
X31698000Y-19916000D01*
X31548000Y-19916000D01*
X30606866Y-19916000D01*
X30575551Y-20082834D01*
X30159088Y-20082834D01*
X30159088Y-19599166D01*
X30575551Y-19599166D01*
X30606866Y-19766000D01*
X31548000Y-19766000D01*
X31548000Y-18825014D01*
X31698000Y-18825014D01*
X31698000Y-19766000D01*
X32639134Y-19766000D01*
X32670449Y-19599166D01*
X32603143Y-19399466D01*
X32498171Y-19216734D01*
X32359567Y-19057992D01*
X32192657Y-18929340D01*
X32003855Y-18835723D01*
X31864834Y-18793554D01*
X31698000Y-18825014D01*
X31548000Y-18825014D01*
X31381166Y-18793554D01*
X31242145Y-18835723D01*
X31053343Y-18929340D01*
X30886433Y-19057992D01*
X30747829Y-19216734D01*
X30642857Y-19399466D01*
X30575551Y-19599166D01*
X30159088Y-19599166D01*
X30159088Y-18991000D01*
X30154744Y-18946892D01*
X30141878Y-18904480D01*
X30120985Y-18865392D01*
X30092868Y-18831132D01*
X30058608Y-18803015D01*
X30019520Y-18782122D01*
X29977108Y-18769256D01*
X29933000Y-18764912D01*
X28233000Y-18764912D01*
X28188892Y-18769256D01*
X28146480Y-18782122D01*
X28107392Y-18803015D01*
X28073132Y-18831132D01*
X28045015Y-18865392D01*
X28024122Y-18904480D01*
X28011256Y-18946892D01*
X28006912Y-18991000D01*
X14463193Y-18991000D01*
X14482619Y-18944104D01*
X14510300Y-18804943D01*
X14510300Y-18663057D01*
X14482619Y-18523896D01*
X14428321Y-18392810D01*
X14349493Y-18274836D01*
X14322949Y-18248292D01*
X15075000Y-18248292D01*
X15075000Y-18351708D01*
X15095176Y-18453137D01*
X15134751Y-18548681D01*
X15192206Y-18634668D01*
X15265332Y-18707794D01*
X15351319Y-18765249D01*
X15446863Y-18804824D01*
X15548292Y-18825000D01*
X15651708Y-18825000D01*
X15753137Y-18804824D01*
X15848681Y-18765249D01*
X15934668Y-18707794D01*
X16007794Y-18634668D01*
X16065249Y-18548681D01*
X16104824Y-18453137D01*
X16125000Y-18351708D01*
X16125000Y-18248292D01*
X16104824Y-18146863D01*
X16065249Y-18051319D01*
X16007794Y-17965332D01*
X16000000Y-17957538D01*
X16000000Y-16024263D01*
X16386429Y-15637834D01*
X28035554Y-15637834D01*
X28077723Y-15776855D01*
X28171340Y-15965657D01*
X28299992Y-16132567D01*
X28458734Y-16271171D01*
X28641466Y-16376143D01*
X28841166Y-16443449D01*
X29008000Y-16412134D01*
X29008000Y-15471000D01*
X29158000Y-15471000D01*
X29158000Y-16412134D01*
X29324834Y-16443449D01*
X29524534Y-16376143D01*
X29707266Y-16271171D01*
X29866008Y-16132567D01*
X29994660Y-15965657D01*
X30088277Y-15776855D01*
X30130446Y-15637834D01*
X30098986Y-15471000D01*
X29158000Y-15471000D01*
X29008000Y-15471000D01*
X28067014Y-15471000D01*
X28035554Y-15637834D01*
X16386429Y-15637834D01*
X16628263Y-15396000D01*
X30542799Y-15396000D01*
X30563555Y-15606737D01*
X30625024Y-15809375D01*
X30724846Y-15996128D01*
X30859183Y-16159817D01*
X31022872Y-16294154D01*
X31209625Y-16393976D01*
X31412263Y-16455445D01*
X31570194Y-16471000D01*
X31675806Y-16471000D01*
X31833737Y-16455445D01*
X32036375Y-16393976D01*
X32223128Y-16294154D01*
X32386817Y-16159817D01*
X32521154Y-15996128D01*
X32620976Y-15809375D01*
X32682445Y-15606737D01*
X32703201Y-15396000D01*
X32682445Y-15185263D01*
X32620976Y-14982625D01*
X32521154Y-14795872D01*
X32386817Y-14632183D01*
X32223128Y-14497846D01*
X32036375Y-14398024D01*
X31833737Y-14336555D01*
X31675806Y-14321000D01*
X31570194Y-14321000D01*
X31412263Y-14336555D01*
X31209625Y-14398024D01*
X31022872Y-14497846D01*
X30859183Y-14632183D01*
X30724846Y-14795872D01*
X30625024Y-14982625D01*
X30563555Y-15185263D01*
X30542799Y-15396000D01*
X16628263Y-15396000D01*
X16870097Y-15154166D01*
X28035554Y-15154166D01*
X28067014Y-15321000D01*
X29008000Y-15321000D01*
X29008000Y-14379866D01*
X29158000Y-14379866D01*
X29158000Y-15321000D01*
X30098986Y-15321000D01*
X30130446Y-15154166D01*
X30088277Y-15015145D01*
X29994660Y-14826343D01*
X29866008Y-14659433D01*
X29707266Y-14520829D01*
X29524534Y-14415857D01*
X29324834Y-14348551D01*
X29158000Y-14379866D01*
X29008000Y-14379866D01*
X28841166Y-14348551D01*
X28641466Y-14415857D01*
X28458734Y-14520829D01*
X28299992Y-14659433D01*
X28171340Y-14826343D01*
X28077723Y-15015145D01*
X28035554Y-15154166D01*
X16870097Y-15154166D01*
X18814193Y-13210072D01*
X19331909Y-13210072D01*
X19355074Y-13244740D01*
X19428200Y-13317866D01*
X19514187Y-13375321D01*
X19609731Y-13414896D01*
X19711160Y-13435072D01*
X19814576Y-13435072D01*
X19916005Y-13414896D01*
X20011549Y-13375321D01*
X20097536Y-13317866D01*
X20170662Y-13244740D01*
X20228117Y-13158753D01*
X20267692Y-13063209D01*
X20287868Y-12961780D01*
X20287868Y-12858364D01*
X20287398Y-12856000D01*
X28002799Y-12856000D01*
X28023555Y-13066737D01*
X28085024Y-13269375D01*
X28184846Y-13456128D01*
X28319183Y-13619817D01*
X28482872Y-13754154D01*
X28669625Y-13853976D01*
X28872263Y-13915445D01*
X29030194Y-13931000D01*
X29135806Y-13931000D01*
X29293737Y-13915445D01*
X29496375Y-13853976D01*
X29683128Y-13754154D01*
X29846817Y-13619817D01*
X29981154Y-13456128D01*
X30080976Y-13269375D01*
X30142445Y-13066737D01*
X30163201Y-12856000D01*
X30542799Y-12856000D01*
X30563555Y-13066737D01*
X30625024Y-13269375D01*
X30724846Y-13456128D01*
X30859183Y-13619817D01*
X31022872Y-13754154D01*
X31209625Y-13853976D01*
X31412263Y-13915445D01*
X31570194Y-13931000D01*
X31675806Y-13931000D01*
X31833737Y-13915445D01*
X32036375Y-13853976D01*
X32223128Y-13754154D01*
X32386817Y-13619817D01*
X32521154Y-13456128D01*
X32620976Y-13269375D01*
X32682445Y-13066737D01*
X32703201Y-12856000D01*
X32682445Y-12645263D01*
X32620976Y-12442625D01*
X32521154Y-12255872D01*
X32386817Y-12092183D01*
X32223128Y-11957846D01*
X32036375Y-11858024D01*
X31833737Y-11796555D01*
X31675806Y-11781000D01*
X31570194Y-11781000D01*
X31412263Y-11796555D01*
X31209625Y-11858024D01*
X31022872Y-11957846D01*
X30859183Y-12092183D01*
X30724846Y-12255872D01*
X30625024Y-12442625D01*
X30563555Y-12645263D01*
X30542799Y-12856000D01*
X30163201Y-12856000D01*
X30142445Y-12645263D01*
X30080976Y-12442625D01*
X29981154Y-12255872D01*
X29846817Y-12092183D01*
X29683128Y-11957846D01*
X29496375Y-11858024D01*
X29293737Y-11796555D01*
X29135806Y-11781000D01*
X29030194Y-11781000D01*
X28872263Y-11796555D01*
X28669625Y-11858024D01*
X28482872Y-11957846D01*
X28319183Y-12092183D01*
X28184846Y-12255872D01*
X28085024Y-12442625D01*
X28023555Y-12645263D01*
X28002799Y-12856000D01*
X20287398Y-12856000D01*
X20267692Y-12756935D01*
X20228117Y-12661391D01*
X20170662Y-12575404D01*
X20097536Y-12502278D01*
X20011549Y-12444823D01*
X19916005Y-12405248D01*
X19814576Y-12385072D01*
X19711160Y-12385072D01*
X19609731Y-12405248D01*
X19514187Y-12444823D01*
X19428200Y-12502278D01*
X19355074Y-12575404D01*
X19331909Y-12610072D01*
X18704658Y-12610072D01*
X18689928Y-12608621D01*
X18675198Y-12610072D01*
X18675195Y-12610072D01*
X18631118Y-12614413D01*
X18587729Y-12627575D01*
X18574567Y-12631568D01*
X18522450Y-12659425D01*
X18488213Y-12687522D01*
X18488207Y-12687528D01*
X18476770Y-12696914D01*
X18467384Y-12708351D01*
X15498290Y-15677447D01*
X15486842Y-15686842D01*
X15466358Y-15711802D01*
X15449353Y-15732523D01*
X15434464Y-15760380D01*
X15421496Y-15784641D01*
X15404341Y-15841191D01*
X15400000Y-15885268D01*
X15400000Y-15885277D01*
X15398550Y-15900000D01*
X15400000Y-15914723D01*
X15400001Y-17814587D01*
X15351319Y-17834751D01*
X15265332Y-17892206D01*
X15192206Y-17965332D01*
X15134751Y-18051319D01*
X15095176Y-18146863D01*
X15075000Y-18248292D01*
X14322949Y-18248292D01*
X14249164Y-18174507D01*
X14131190Y-18095679D01*
X14000104Y-18041381D01*
X13860943Y-18013700D01*
X13719057Y-18013700D01*
X13579896Y-18041381D01*
X13448810Y-18095679D01*
X13330836Y-18174507D01*
X13230507Y-18274836D01*
X13151679Y-18392810D01*
X13097381Y-18523896D01*
X13069700Y-18663057D01*
X6444041Y-18663057D01*
X6349999Y-18623562D01*
X6210000Y-18595000D01*
X5660000Y-18595000D01*
X5510000Y-18595000D01*
X4960000Y-18595000D01*
X4820001Y-18623562D01*
X4688264Y-18678888D01*
X4569852Y-18758852D01*
X4469315Y-18860380D01*
X4390517Y-18979571D01*
X4336486Y-19111845D01*
X4334501Y-19133117D01*
X2405499Y-19133117D01*
X2403514Y-19111845D01*
X2349483Y-18979571D01*
X2270685Y-18860380D01*
X2170148Y-18758852D01*
X2051736Y-18678888D01*
X1919999Y-18623562D01*
X1780000Y-18595000D01*
X1480000Y-18595000D01*
X1330000Y-18595000D01*
X1030000Y-18595000D01*
X890001Y-18623562D01*
X758264Y-18678888D01*
X639852Y-18758852D01*
X539315Y-18860380D01*
X460517Y-18979571D01*
X406486Y-19111845D01*
X404501Y-19133117D01*
X250000Y-19133117D01*
X250000Y-17835830D01*
X4505000Y-17835830D01*
X4505000Y-17944170D01*
X4526136Y-18050429D01*
X4567597Y-18150523D01*
X4627787Y-18240604D01*
X4704396Y-18317213D01*
X4794477Y-18377403D01*
X4894571Y-18418864D01*
X5000830Y-18440000D01*
X5109170Y-18440000D01*
X5215429Y-18418864D01*
X5315523Y-18377403D01*
X5405604Y-18317213D01*
X5482213Y-18240604D01*
X5542403Y-18150523D01*
X5583864Y-18050429D01*
X5605000Y-17944170D01*
X5605000Y-17835830D01*
X5583864Y-17729571D01*
X5542403Y-17629477D01*
X5482213Y-17539396D01*
X5405604Y-17462787D01*
X5383911Y-17448292D01*
X9175000Y-17448292D01*
X9175000Y-17551708D01*
X9195176Y-17653137D01*
X9234751Y-17748681D01*
X9292206Y-17834668D01*
X9365332Y-17907794D01*
X9451319Y-17965249D01*
X9546863Y-18004824D01*
X9648292Y-18025000D01*
X9751708Y-18025000D01*
X9853137Y-18004824D01*
X9948681Y-17965249D01*
X10034668Y-17907794D01*
X10107794Y-17834668D01*
X10165249Y-17748681D01*
X10204824Y-17653137D01*
X10225000Y-17551708D01*
X10225000Y-17448292D01*
X10204824Y-17346863D01*
X10165249Y-17251319D01*
X10107794Y-17165332D01*
X10034668Y-17092206D01*
X10000000Y-17069041D01*
X10000000Y-13524263D01*
X11307398Y-12216866D01*
X11348292Y-12225000D01*
X11451708Y-12225000D01*
X11553137Y-12204824D01*
X11648681Y-12165249D01*
X11734668Y-12107794D01*
X11807794Y-12034668D01*
X11865249Y-11948681D01*
X11904824Y-11853137D01*
X11925000Y-11751708D01*
X11925000Y-11648292D01*
X11904824Y-11546863D01*
X11865249Y-11451319D01*
X11807794Y-11365332D01*
X11734668Y-11292206D01*
X11648681Y-11234751D01*
X11553137Y-11195176D01*
X11451708Y-11175000D01*
X11348292Y-11175000D01*
X11246863Y-11195176D01*
X11151319Y-11234751D01*
X11065332Y-11292206D01*
X10992206Y-11365332D01*
X10934751Y-11451319D01*
X10895176Y-11546863D01*
X10875000Y-11648292D01*
X10875000Y-11751708D01*
X10883134Y-11792602D01*
X9498290Y-13177447D01*
X9486842Y-13186842D01*
X9471341Y-13205731D01*
X9449353Y-13232523D01*
X9442823Y-13244740D01*
X9421496Y-13284641D01*
X9404341Y-13341191D01*
X9400000Y-13385268D01*
X9400000Y-13385277D01*
X9398550Y-13400000D01*
X9400000Y-13414723D01*
X9400001Y-17069041D01*
X9365332Y-17092206D01*
X9292206Y-17165332D01*
X9234751Y-17251319D01*
X9195176Y-17346863D01*
X9175000Y-17448292D01*
X5383911Y-17448292D01*
X5315523Y-17402597D01*
X5215429Y-17361136D01*
X5109170Y-17340000D01*
X5000830Y-17340000D01*
X4894571Y-17361136D01*
X4794477Y-17402597D01*
X4704396Y-17462787D01*
X4627787Y-17539396D01*
X4567597Y-17629477D01*
X4526136Y-17729571D01*
X4505000Y-17835830D01*
X250000Y-17835830D01*
X250000Y-12055830D01*
X4505000Y-12055830D01*
X4505000Y-12164170D01*
X4526136Y-12270429D01*
X4567597Y-12370523D01*
X4627787Y-12460604D01*
X4704396Y-12537213D01*
X4794477Y-12597403D01*
X4894571Y-12638864D01*
X5000830Y-12660000D01*
X5109170Y-12660000D01*
X5215429Y-12638864D01*
X5315523Y-12597403D01*
X5405604Y-12537213D01*
X5482213Y-12460604D01*
X5542403Y-12370523D01*
X5583864Y-12270429D01*
X5605000Y-12164170D01*
X5605000Y-12055830D01*
X5583864Y-11949571D01*
X5542403Y-11849477D01*
X5482213Y-11759396D01*
X5405604Y-11682787D01*
X5315523Y-11622597D01*
X5215429Y-11581136D01*
X5109170Y-11560000D01*
X5000830Y-11560000D01*
X4894571Y-11581136D01*
X4794477Y-11622597D01*
X4704396Y-11682787D01*
X4627787Y-11759396D01*
X4567597Y-11849477D01*
X4526136Y-11949571D01*
X4505000Y-12055830D01*
X250000Y-12055830D01*
X250000Y-10866883D01*
X404501Y-10866883D01*
X406486Y-10888155D01*
X460517Y-11020429D01*
X539315Y-11139620D01*
X639852Y-11241148D01*
X758264Y-11321112D01*
X890001Y-11376438D01*
X1030000Y-11405000D01*
X1330000Y-11405000D01*
X1330000Y-10755000D01*
X1480000Y-10755000D01*
X1480000Y-11405000D01*
X1780000Y-11405000D01*
X1919999Y-11376438D01*
X2051736Y-11321112D01*
X2170148Y-11241148D01*
X2270685Y-11139620D01*
X2349483Y-11020429D01*
X2403514Y-10888155D01*
X2405499Y-10866883D01*
X4334501Y-10866883D01*
X4336486Y-10888155D01*
X4390517Y-11020429D01*
X4469315Y-11139620D01*
X4569852Y-11241148D01*
X4688264Y-11321112D01*
X4820001Y-11376438D01*
X4960000Y-11405000D01*
X5510000Y-11405000D01*
X5510000Y-10755000D01*
X5660000Y-10755000D01*
X5660000Y-11405000D01*
X6210000Y-11405000D01*
X6349999Y-11376438D01*
X6481736Y-11321112D01*
X6600148Y-11241148D01*
X6700685Y-11139620D01*
X6779483Y-11020429D01*
X6833514Y-10888155D01*
X6835499Y-10866883D01*
X6799531Y-10755000D01*
X5660000Y-10755000D01*
X5510000Y-10755000D01*
X4370469Y-10755000D01*
X4334501Y-10866883D01*
X2405499Y-10866883D01*
X2369531Y-10755000D01*
X1480000Y-10755000D01*
X1330000Y-10755000D01*
X440469Y-10755000D01*
X404501Y-10866883D01*
X250000Y-10866883D01*
X250000Y-10493117D01*
X404501Y-10493117D01*
X440469Y-10605000D01*
X1330000Y-10605000D01*
X1330000Y-9955000D01*
X1480000Y-9955000D01*
X1480000Y-10605000D01*
X2369531Y-10605000D01*
X2405499Y-10493117D01*
X4334501Y-10493117D01*
X4370469Y-10605000D01*
X5510000Y-10605000D01*
X5510000Y-9955000D01*
X5660000Y-9955000D01*
X5660000Y-10605000D01*
X6799531Y-10605000D01*
X6835499Y-10493117D01*
X6833514Y-10471845D01*
X6823894Y-10448292D01*
X7075000Y-10448292D01*
X7075000Y-10551708D01*
X7095176Y-10653137D01*
X7134751Y-10748681D01*
X7192206Y-10834668D01*
X7265332Y-10907794D01*
X7351319Y-10965249D01*
X7400001Y-10985413D01*
X7400000Y-16269041D01*
X7365332Y-16292206D01*
X7292206Y-16365332D01*
X7234751Y-16451319D01*
X7195176Y-16546863D01*
X7175000Y-16648292D01*
X7175000Y-16751708D01*
X7195176Y-16853137D01*
X7234751Y-16948681D01*
X7292206Y-17034668D01*
X7365332Y-17107794D01*
X7451319Y-17165249D01*
X7546863Y-17204824D01*
X7648292Y-17225000D01*
X7751708Y-17225000D01*
X7853137Y-17204824D01*
X7948681Y-17165249D01*
X8034668Y-17107794D01*
X8107794Y-17034668D01*
X8165249Y-16948681D01*
X8204824Y-16853137D01*
X8225000Y-16751708D01*
X8225000Y-16648292D01*
X8204824Y-16546863D01*
X8165249Y-16451319D01*
X8107794Y-16365332D01*
X8034668Y-16292206D01*
X8000000Y-16269041D01*
X8000000Y-10842462D01*
X8007794Y-10834668D01*
X8065249Y-10748681D01*
X8104824Y-10653137D01*
X8125000Y-10551708D01*
X8125000Y-10448292D01*
X8104824Y-10346863D01*
X8092041Y-10316000D01*
X28002799Y-10316000D01*
X28023555Y-10526737D01*
X28085024Y-10729375D01*
X28184846Y-10916128D01*
X28319183Y-11079817D01*
X28482872Y-11214154D01*
X28669625Y-11313976D01*
X28872263Y-11375445D01*
X29030194Y-11391000D01*
X29135806Y-11391000D01*
X29293737Y-11375445D01*
X29496375Y-11313976D01*
X29683128Y-11214154D01*
X29846817Y-11079817D01*
X29981154Y-10916128D01*
X30080976Y-10729375D01*
X30142445Y-10526737D01*
X30163201Y-10316000D01*
X30542799Y-10316000D01*
X30563555Y-10526737D01*
X30625024Y-10729375D01*
X30724846Y-10916128D01*
X30859183Y-11079817D01*
X31022872Y-11214154D01*
X31209625Y-11313976D01*
X31412263Y-11375445D01*
X31570194Y-11391000D01*
X31675806Y-11391000D01*
X31833737Y-11375445D01*
X32036375Y-11313976D01*
X32223128Y-11214154D01*
X32386817Y-11079817D01*
X32521154Y-10916128D01*
X32620976Y-10729375D01*
X32682445Y-10526737D01*
X32703201Y-10316000D01*
X32682445Y-10105263D01*
X32620976Y-9902625D01*
X32521154Y-9715872D01*
X32386817Y-9552183D01*
X32223128Y-9417846D01*
X32036375Y-9318024D01*
X31833737Y-9256555D01*
X31675806Y-9241000D01*
X31570194Y-9241000D01*
X31412263Y-9256555D01*
X31209625Y-9318024D01*
X31022872Y-9417846D01*
X30859183Y-9552183D01*
X30724846Y-9715872D01*
X30625024Y-9902625D01*
X30563555Y-10105263D01*
X30542799Y-10316000D01*
X30163201Y-10316000D01*
X30142445Y-10105263D01*
X30080976Y-9902625D01*
X29981154Y-9715872D01*
X29846817Y-9552183D01*
X29683128Y-9417846D01*
X29496375Y-9318024D01*
X29293737Y-9256555D01*
X29135806Y-9241000D01*
X29030194Y-9241000D01*
X28872263Y-9256555D01*
X28669625Y-9318024D01*
X28482872Y-9417846D01*
X28319183Y-9552183D01*
X28184846Y-9715872D01*
X28085024Y-9902625D01*
X28023555Y-10105263D01*
X28002799Y-10316000D01*
X8092041Y-10316000D01*
X8065249Y-10251319D01*
X8007794Y-10165332D01*
X7934668Y-10092206D01*
X7848681Y-10034751D01*
X7753137Y-9995176D01*
X7651708Y-9975000D01*
X7548292Y-9975000D01*
X7446863Y-9995176D01*
X7351319Y-10034751D01*
X7265332Y-10092206D01*
X7192206Y-10165332D01*
X7134751Y-10251319D01*
X7095176Y-10346863D01*
X7075000Y-10448292D01*
X6823894Y-10448292D01*
X6779483Y-10339571D01*
X6700685Y-10220380D01*
X6600148Y-10118852D01*
X6481736Y-10038888D01*
X6349999Y-9983562D01*
X6210000Y-9955000D01*
X5660000Y-9955000D01*
X5510000Y-9955000D01*
X4960000Y-9955000D01*
X4820001Y-9983562D01*
X4688264Y-10038888D01*
X4569852Y-10118852D01*
X4469315Y-10220380D01*
X4390517Y-10339571D01*
X4336486Y-10471845D01*
X4334501Y-10493117D01*
X2405499Y-10493117D01*
X2403514Y-10471845D01*
X2349483Y-10339571D01*
X2270685Y-10220380D01*
X2170148Y-10118852D01*
X2051736Y-10038888D01*
X1919999Y-9983562D01*
X1780000Y-9955000D01*
X1480000Y-9955000D01*
X1330000Y-9955000D01*
X1030000Y-9955000D01*
X890001Y-9983562D01*
X758264Y-10038888D01*
X639852Y-10118852D01*
X539315Y-10220380D01*
X460517Y-10339571D01*
X406486Y-10471845D01*
X404501Y-10493117D01*
X250000Y-10493117D01*
X250000Y-6750000D01*
X1423912Y-6750000D01*
X1423912Y-8450000D01*
X1428256Y-8494108D01*
X1441122Y-8536520D01*
X1462015Y-8575608D01*
X1490132Y-8609868D01*
X1524392Y-8637985D01*
X1563480Y-8658878D01*
X1605892Y-8671744D01*
X1650000Y-8676088D01*
X3350000Y-8676088D01*
X3394108Y-8671744D01*
X3436520Y-8658878D01*
X3475608Y-8637985D01*
X3509868Y-8609868D01*
X3537985Y-8575608D01*
X3558878Y-8536520D01*
X3571744Y-8494108D01*
X3576088Y-8450000D01*
X3576088Y-6750000D01*
X3571744Y-6705892D01*
X3558878Y-6663480D01*
X3537985Y-6624392D01*
X3509868Y-6590132D01*
X3475608Y-6562015D01*
X3436520Y-6541122D01*
X3394108Y-6528256D01*
X3350000Y-6523912D01*
X1650000Y-6523912D01*
X1605892Y-6528256D01*
X1563480Y-6541122D01*
X1524392Y-6562015D01*
X1490132Y-6590132D01*
X1462015Y-6624392D01*
X1441122Y-6663480D01*
X1428256Y-6705892D01*
X1423912Y-6750000D01*
X250000Y-6750000D01*
X250000Y-5060000D01*
X1419799Y-5060000D01*
X1440555Y-5270737D01*
X1502024Y-5473375D01*
X1601846Y-5660128D01*
X1736183Y-5823817D01*
X1899872Y-5958154D01*
X2086625Y-6057976D01*
X2289263Y-6119445D01*
X2447194Y-6135000D01*
X2552806Y-6135000D01*
X2710737Y-6119445D01*
X2913375Y-6057976D01*
X3100128Y-5958154D01*
X3263817Y-5823817D01*
X3398154Y-5660128D01*
X3497976Y-5473375D01*
X3559445Y-5270737D01*
X3580201Y-5060000D01*
X3559445Y-4849263D01*
X3497976Y-4646625D01*
X3398154Y-4459872D01*
X3263817Y-4296183D01*
X3100128Y-4161846D01*
X2913375Y-4062024D01*
X2710737Y-4000555D01*
X2552806Y-3985000D01*
X2447194Y-3985000D01*
X2289263Y-4000555D01*
X2086625Y-4062024D01*
X1899872Y-4161846D01*
X1736183Y-4296183D01*
X1601846Y-4459872D01*
X1502024Y-4646625D01*
X1440555Y-4849263D01*
X1419799Y-5060000D01*
X250000Y-5060000D01*
X250000Y-2761834D01*
X1452554Y-2761834D01*
X1494723Y-2900855D01*
X1588340Y-3089657D01*
X1716992Y-3256567D01*
X1875734Y-3395171D01*
X2058466Y-3500143D01*
X2258166Y-3567449D01*
X2425000Y-3536134D01*
X2425000Y-2595000D01*
X2575000Y-2595000D01*
X2575000Y-3536134D01*
X2741834Y-3567449D01*
X2941534Y-3500143D01*
X3124266Y-3395171D01*
X3283008Y-3256567D01*
X3366464Y-3148292D01*
X14775000Y-3148292D01*
X14775000Y-3251708D01*
X14795176Y-3353137D01*
X14834751Y-3448681D01*
X14892206Y-3534668D01*
X14965332Y-3607794D01*
X15000000Y-3630959D01*
X15000000Y-3638996D01*
X15000001Y-3639006D01*
X15000000Y-4985277D01*
X14998550Y-5000000D01*
X15000000Y-5014723D01*
X15000000Y-5014732D01*
X15004341Y-5058809D01*
X15021496Y-5115359D01*
X15021497Y-5115360D01*
X15049353Y-5167477D01*
X15066358Y-5188198D01*
X15086842Y-5213158D01*
X15098290Y-5222553D01*
X16083134Y-6207398D01*
X16075000Y-6248292D01*
X16075000Y-6351708D01*
X16095176Y-6453137D01*
X16134751Y-6548681D01*
X16192206Y-6634668D01*
X16265332Y-6707794D01*
X16351319Y-6765249D01*
X16446863Y-6804824D01*
X16548292Y-6825000D01*
X16651708Y-6825000D01*
X16753137Y-6804824D01*
X16848681Y-6765249D01*
X16934668Y-6707794D01*
X17007794Y-6634668D01*
X17065249Y-6548681D01*
X17104824Y-6453137D01*
X17125000Y-6351708D01*
X17125000Y-6248292D01*
X17675000Y-6248292D01*
X17675000Y-6351708D01*
X17695176Y-6453137D01*
X17734751Y-6548681D01*
X17792206Y-6634668D01*
X17865332Y-6707794D01*
X17951319Y-6765249D01*
X18046863Y-6804824D01*
X18148292Y-6825000D01*
X18251708Y-6825000D01*
X18353137Y-6804824D01*
X18448681Y-6765249D01*
X18534668Y-6707794D01*
X18607794Y-6634668D01*
X18665249Y-6548681D01*
X18704824Y-6453137D01*
X18725000Y-6351708D01*
X18725000Y-6248292D01*
X21075000Y-6248292D01*
X21075000Y-6351708D01*
X21095176Y-6453137D01*
X21134751Y-6548681D01*
X21192206Y-6634668D01*
X21265332Y-6707794D01*
X21351319Y-6765249D01*
X21446863Y-6804824D01*
X21548292Y-6825000D01*
X21651708Y-6825000D01*
X21753137Y-6804824D01*
X21848681Y-6765249D01*
X21934668Y-6707794D01*
X22007794Y-6634668D01*
X22065249Y-6548681D01*
X22104824Y-6453137D01*
X22125000Y-6351708D01*
X22125000Y-6248292D01*
X22116865Y-6207398D01*
X23824264Y-4500000D01*
X25169041Y-4500000D01*
X25192206Y-4534668D01*
X25265332Y-4607794D01*
X25351319Y-4665249D01*
X25446863Y-4704824D01*
X25548292Y-4725000D01*
X25651708Y-4725000D01*
X25753137Y-4704824D01*
X25848681Y-4665249D01*
X25934668Y-4607794D01*
X26007794Y-4534668D01*
X26065249Y-4448681D01*
X26104824Y-4353137D01*
X26125000Y-4251708D01*
X26125000Y-4148292D01*
X26104824Y-4046863D01*
X26065249Y-3951319D01*
X26007794Y-3865332D01*
X25934668Y-3792206D01*
X25848681Y-3734751D01*
X25753137Y-3695176D01*
X25651708Y-3675000D01*
X25548292Y-3675000D01*
X25446863Y-3695176D01*
X25351319Y-3734751D01*
X25265332Y-3792206D01*
X25192206Y-3865332D01*
X25169041Y-3900000D01*
X23714719Y-3900000D01*
X23699999Y-3898550D01*
X23685279Y-3900000D01*
X23685267Y-3900000D01*
X23641190Y-3904341D01*
X23584640Y-3921496D01*
X23576747Y-3925715D01*
X23532522Y-3949353D01*
X23498285Y-3977451D01*
X23486842Y-3986842D01*
X23477451Y-3998285D01*
X21692602Y-5783135D01*
X21651708Y-5775000D01*
X21548292Y-5775000D01*
X21446863Y-5795176D01*
X21351319Y-5834751D01*
X21265332Y-5892206D01*
X21192206Y-5965332D01*
X21134751Y-6051319D01*
X21095176Y-6146863D01*
X21075000Y-6248292D01*
X18725000Y-6248292D01*
X18716865Y-6207398D01*
X20440897Y-4483367D01*
X20465332Y-4507802D01*
X20551319Y-4565257D01*
X20646863Y-4604832D01*
X20748292Y-4625008D01*
X20851708Y-4625008D01*
X20953137Y-4604832D01*
X21048681Y-4565257D01*
X21134668Y-4507802D01*
X21207794Y-4434676D01*
X21265249Y-4348689D01*
X21304824Y-4253145D01*
X21325000Y-4151716D01*
X21325000Y-4048300D01*
X21304824Y-3946871D01*
X21265249Y-3851327D01*
X21207794Y-3765340D01*
X21134668Y-3692214D01*
X21048681Y-3634759D01*
X20953137Y-3595184D01*
X20851708Y-3575008D01*
X20748292Y-3575008D01*
X20646863Y-3595184D01*
X20551319Y-3634759D01*
X20465332Y-3692214D01*
X20392206Y-3765340D01*
X20367899Y-3801718D01*
X20341182Y-3804349D01*
X20284632Y-3821504D01*
X20232514Y-3849361D01*
X20201382Y-3874911D01*
X20186834Y-3886850D01*
X20177443Y-3898293D01*
X18292602Y-5783135D01*
X18251708Y-5775000D01*
X18148292Y-5775000D01*
X18046863Y-5795176D01*
X17951319Y-5834751D01*
X17865332Y-5892206D01*
X17792206Y-5965332D01*
X17734751Y-6051319D01*
X17695176Y-6146863D01*
X17675000Y-6248292D01*
X17125000Y-6248292D01*
X17104824Y-6146863D01*
X17065249Y-6051319D01*
X17007794Y-5965332D01*
X16934668Y-5892206D01*
X16848681Y-5834751D01*
X16753137Y-5795176D01*
X16651708Y-5775000D01*
X16548292Y-5775000D01*
X16507398Y-5783134D01*
X15600000Y-4875737D01*
X15600000Y-3630959D01*
X15634668Y-3607794D01*
X15707794Y-3534668D01*
X15765249Y-3448681D01*
X15804824Y-3353137D01*
X15825000Y-3251708D01*
X15825000Y-3148292D01*
X15804824Y-3046863D01*
X15765249Y-2951319D01*
X15707794Y-2865332D01*
X15634668Y-2792206D01*
X15548681Y-2734751D01*
X15453137Y-2695176D01*
X15351708Y-2675000D01*
X15248292Y-2675000D01*
X15146863Y-2695176D01*
X15051319Y-2734751D01*
X14965332Y-2792206D01*
X14892206Y-2865332D01*
X14834751Y-2951319D01*
X14795176Y-3046863D01*
X14775000Y-3148292D01*
X3366464Y-3148292D01*
X3411660Y-3089657D01*
X3505277Y-2900855D01*
X3547446Y-2761834D01*
X3515986Y-2595000D01*
X2575000Y-2595000D01*
X2425000Y-2595000D01*
X1484014Y-2595000D01*
X1452554Y-2761834D01*
X250000Y-2761834D01*
X250000Y-2278166D01*
X1452554Y-2278166D01*
X1484014Y-2445000D01*
X2425000Y-2445000D01*
X2425000Y-1503866D01*
X2575000Y-1503866D01*
X2575000Y-2445000D01*
X3515986Y-2445000D01*
X3547446Y-2278166D01*
X3505277Y-2139145D01*
X3411660Y-1950343D01*
X3283008Y-1783433D01*
X3124266Y-1644829D01*
X2941534Y-1539857D01*
X2741834Y-1472551D01*
X2575000Y-1503866D01*
X2425000Y-1503866D01*
X2258166Y-1472551D01*
X2058466Y-1539857D01*
X1875734Y-1644829D01*
X1716992Y-1783433D01*
X1588340Y-1950343D01*
X1494723Y-2139145D01*
X1452554Y-2278166D01*
X250000Y-2278166D01*
X250000Y-1248292D01*
X15375000Y-1248292D01*
X15375000Y-1351708D01*
X15395176Y-1453137D01*
X15434751Y-1548681D01*
X15492206Y-1634668D01*
X15565332Y-1707794D01*
X15651319Y-1765249D01*
X15746863Y-1804824D01*
X15848292Y-1825000D01*
X15951708Y-1825000D01*
X16053137Y-1804824D01*
X16148681Y-1765249D01*
X16234668Y-1707794D01*
X16307794Y-1634668D01*
X16330393Y-1600846D01*
X16338987Y-1600000D01*
X16338997Y-1600000D01*
X16383074Y-1595659D01*
X16439624Y-1578504D01*
X16491741Y-1550647D01*
X16537422Y-1513158D01*
X16546817Y-1501710D01*
X17048528Y-1000000D01*
X20169041Y-1000000D01*
X20134751Y-1051319D01*
X20095176Y-1146863D01*
X20075000Y-1248292D01*
X20075000Y-1351708D01*
X20095176Y-1453137D01*
X20134751Y-1548681D01*
X20192206Y-1634668D01*
X20265332Y-1707794D01*
X20351319Y-1765249D01*
X20446863Y-1804824D01*
X20548292Y-1825000D01*
X20651708Y-1825000D01*
X20753137Y-1804824D01*
X20848681Y-1765249D01*
X20934668Y-1707794D01*
X21007794Y-1634668D01*
X21030959Y-1600000D01*
X22775737Y-1600000D01*
X24577456Y-3401721D01*
X24586842Y-3413158D01*
X24598279Y-3422544D01*
X24598285Y-3422550D01*
X24632522Y-3450647D01*
X24684639Y-3478504D01*
X24697801Y-3482497D01*
X24741190Y-3495659D01*
X24785267Y-3500000D01*
X24785270Y-3500000D01*
X24800000Y-3501451D01*
X24814730Y-3500000D01*
X25975737Y-3500000D01*
X26400000Y-3924264D01*
X26400001Y-8160994D01*
X26400000Y-8161004D01*
X26400000Y-8169041D01*
X26365332Y-8192206D01*
X26292206Y-8265332D01*
X26234751Y-8351319D01*
X26195176Y-8446863D01*
X26175000Y-8548292D01*
X26175000Y-8651708D01*
X26195176Y-8753137D01*
X26234751Y-8848681D01*
X26292206Y-8934668D01*
X26365332Y-9007794D01*
X26451319Y-9065249D01*
X26546863Y-9104824D01*
X26648292Y-9125000D01*
X26751708Y-9125000D01*
X26853137Y-9104824D01*
X26948681Y-9065249D01*
X27034668Y-9007794D01*
X27107794Y-8934668D01*
X27165249Y-8848681D01*
X27204824Y-8753137D01*
X27225000Y-8651708D01*
X27225000Y-8548292D01*
X27204824Y-8446863D01*
X27165249Y-8351319D01*
X27107794Y-8265332D01*
X27034668Y-8192206D01*
X27000000Y-8169041D01*
X27000000Y-6926000D01*
X28006912Y-6926000D01*
X28006912Y-8626000D01*
X28011256Y-8670108D01*
X28024122Y-8712520D01*
X28045015Y-8751608D01*
X28073132Y-8785868D01*
X28107392Y-8813985D01*
X28146480Y-8834878D01*
X28188892Y-8847744D01*
X28233000Y-8852088D01*
X29933000Y-8852088D01*
X29977108Y-8847744D01*
X30019520Y-8834878D01*
X30058608Y-8813985D01*
X30092868Y-8785868D01*
X30120985Y-8751608D01*
X30141878Y-8712520D01*
X30154744Y-8670108D01*
X30159088Y-8626000D01*
X30159088Y-7776000D01*
X30542799Y-7776000D01*
X30563555Y-7986737D01*
X30625024Y-8189375D01*
X30724846Y-8376128D01*
X30859183Y-8539817D01*
X31022872Y-8674154D01*
X31209625Y-8773976D01*
X31412263Y-8835445D01*
X31570194Y-8851000D01*
X31675806Y-8851000D01*
X31833737Y-8835445D01*
X32036375Y-8773976D01*
X32223128Y-8674154D01*
X32386817Y-8539817D01*
X32521154Y-8376128D01*
X32620976Y-8189375D01*
X32682445Y-7986737D01*
X32703201Y-7776000D01*
X32682445Y-7565263D01*
X32620976Y-7362625D01*
X32521154Y-7175872D01*
X32386817Y-7012183D01*
X32223128Y-6877846D01*
X32036375Y-6778024D01*
X31833737Y-6716555D01*
X31675806Y-6701000D01*
X31570194Y-6701000D01*
X31412263Y-6716555D01*
X31209625Y-6778024D01*
X31022872Y-6877846D01*
X30859183Y-7012183D01*
X30724846Y-7175872D01*
X30625024Y-7362625D01*
X30563555Y-7565263D01*
X30542799Y-7776000D01*
X30159088Y-7776000D01*
X30159088Y-6926000D01*
X30154744Y-6881892D01*
X30141878Y-6839480D01*
X30120985Y-6800392D01*
X30092868Y-6766132D01*
X30058608Y-6738015D01*
X30019520Y-6717122D01*
X29977108Y-6704256D01*
X29933000Y-6699912D01*
X28233000Y-6699912D01*
X28188892Y-6704256D01*
X28146480Y-6717122D01*
X28107392Y-6738015D01*
X28073132Y-6766132D01*
X28045015Y-6800392D01*
X28024122Y-6839480D01*
X28011256Y-6881892D01*
X28006912Y-6926000D01*
X27000000Y-6926000D01*
X27000000Y-3814722D01*
X27001450Y-3799999D01*
X27000000Y-3785276D01*
X27000000Y-3785267D01*
X26995659Y-3741190D01*
X26978504Y-3684640D01*
X26965536Y-3660379D01*
X26950647Y-3632522D01*
X26922549Y-3598285D01*
X26913158Y-3586842D01*
X26901716Y-3577452D01*
X26424263Y-3100000D01*
X31757538Y-3100000D01*
X31692206Y-3165332D01*
X31634751Y-3251319D01*
X31595176Y-3346863D01*
X31575000Y-3448292D01*
X31575000Y-3551708D01*
X31595176Y-3653137D01*
X31634751Y-3748681D01*
X31692206Y-3834668D01*
X31765332Y-3907794D01*
X31851319Y-3965249D01*
X31946863Y-4004824D01*
X32048292Y-4025000D01*
X32151708Y-4025000D01*
X32192602Y-4016865D01*
X32800001Y-4624265D01*
X32800000Y-11175000D01*
X32748292Y-11175000D01*
X32646863Y-11195176D01*
X32551319Y-11234751D01*
X32465332Y-11292206D01*
X32392206Y-11365332D01*
X32334751Y-11451319D01*
X32295176Y-11546863D01*
X32275000Y-11648292D01*
X32275000Y-11751708D01*
X32295176Y-11853137D01*
X32334751Y-11948681D01*
X32392206Y-12034668D01*
X32465332Y-12107794D01*
X32551319Y-12165249D01*
X32646863Y-12204824D01*
X32748292Y-12225000D01*
X32851708Y-12225000D01*
X32953137Y-12204824D01*
X33048681Y-12165249D01*
X33100001Y-12130958D01*
X33100001Y-13884606D01*
X33046863Y-13895176D01*
X32951319Y-13934751D01*
X32865332Y-13992206D01*
X32792206Y-14065332D01*
X32734751Y-14151319D01*
X32695176Y-14246863D01*
X32675000Y-14348292D01*
X32675000Y-14451708D01*
X32695176Y-14553137D01*
X32734751Y-14648681D01*
X32792206Y-14734668D01*
X32865332Y-14807794D01*
X32951319Y-14865249D01*
X33046863Y-14904824D01*
X33148292Y-14925000D01*
X33251708Y-14925000D01*
X33353137Y-14904824D01*
X33448681Y-14865249D01*
X33534668Y-14807794D01*
X33607794Y-14734668D01*
X33665249Y-14648681D01*
X33704824Y-14553137D01*
X33725000Y-14451708D01*
X33725000Y-14348292D01*
X33704824Y-14246863D01*
X33698370Y-14231282D01*
X33700000Y-14214733D01*
X33700000Y-14214730D01*
X33701451Y-14200000D01*
X33700000Y-14185270D01*
X33700000Y-11530959D01*
X33751319Y-11565249D01*
X33846863Y-11604824D01*
X33948292Y-11625000D01*
X34051708Y-11625000D01*
X34153137Y-11604824D01*
X34248681Y-11565249D01*
X34334668Y-11507794D01*
X34407794Y-11434668D01*
X34465249Y-11348681D01*
X34504824Y-11253137D01*
X34525000Y-11151708D01*
X34525000Y-11048292D01*
X34504824Y-10946863D01*
X34465249Y-10851319D01*
X34407794Y-10765332D01*
X34334668Y-10692206D01*
X34300000Y-10669041D01*
X34300000Y-2914730D01*
X34301451Y-2900000D01*
X34300000Y-2885267D01*
X34295659Y-2841190D01*
X34280799Y-2792206D01*
X34278504Y-2784639D01*
X34250647Y-2732522D01*
X34222549Y-2698285D01*
X34213158Y-2686842D01*
X34201716Y-2677452D01*
X33422553Y-1898290D01*
X33413158Y-1886842D01*
X33367477Y-1849353D01*
X33315360Y-1821496D01*
X33258810Y-1804341D01*
X33214733Y-1800000D01*
X33214723Y-1800000D01*
X33200000Y-1798550D01*
X33185277Y-1800000D01*
X26030959Y-1800000D01*
X26007794Y-1765332D01*
X25934668Y-1692206D01*
X25848681Y-1634751D01*
X25753137Y-1595176D01*
X25651708Y-1575000D01*
X25548292Y-1575000D01*
X25446863Y-1595176D01*
X25351319Y-1634751D01*
X25265332Y-1692206D01*
X25192206Y-1765332D01*
X25134751Y-1851319D01*
X25095176Y-1946863D01*
X25075000Y-2048292D01*
X25075000Y-2151708D01*
X25095176Y-2253137D01*
X25134751Y-2348681D01*
X25192206Y-2434668D01*
X25257538Y-2500000D01*
X25224264Y-2500000D01*
X23222553Y-498290D01*
X23213158Y-486842D01*
X23167477Y-449353D01*
X23115360Y-421496D01*
X23058810Y-404341D01*
X23014733Y-400000D01*
X23014723Y-400000D01*
X23000000Y-398550D01*
X22985277Y-400000D01*
X16938986Y-400000D01*
X16924263Y-398550D01*
X16909540Y-400000D01*
X16909531Y-400000D01*
X16865454Y-404341D01*
X16808904Y-421496D01*
X16784643Y-434464D01*
X16756786Y-449353D01*
X16739591Y-463465D01*
X16711106Y-486842D01*
X16701715Y-498285D01*
X16271231Y-928769D01*
X16234668Y-892206D01*
X16148681Y-834751D01*
X16053137Y-795176D01*
X15951708Y-775000D01*
X15848292Y-775000D01*
X15746863Y-795176D01*
X15651319Y-834751D01*
X15565332Y-892206D01*
X15492206Y-965332D01*
X15434751Y-1051319D01*
X15395176Y-1146863D01*
X15375000Y-1248292D01*
X250000Y-1248292D01*
X250000Y-1012229D01*
X265460Y-854557D01*
X307699Y-714654D01*
X376308Y-585619D01*
X468672Y-472369D01*
X581275Y-379215D01*
X709823Y-309710D01*
X849437Y-266492D01*
X1006346Y-250000D01*
X33987771Y-250000D01*
X34145443Y-265460D01*
X34145443Y-265460D01*
G37*
X34145443Y-265460D02*
X34285346Y-307699D01*
X34414381Y-376308D01*
X34527631Y-468672D01*
X34620785Y-581275D01*
X34690290Y-709823D01*
X34733508Y-849437D01*
X34750001Y-1006356D01*
X34750000Y-20987771D01*
X34734540Y-21145443D01*
X34692301Y-21285346D01*
X34623691Y-21414383D01*
X34531330Y-21527629D01*
X34418724Y-21620785D01*
X34290175Y-21690291D01*
X34150563Y-21733508D01*
X33993654Y-21750000D01*
X1012229Y-21750000D01*
X854557Y-21734540D01*
X714654Y-21692301D01*
X585617Y-21623691D01*
X472371Y-21531330D01*
X379215Y-21418724D01*
X309709Y-21290175D01*
X266492Y-21150563D01*
X250000Y-20993654D01*
X250000Y-20695057D01*
X13069700Y-20695057D01*
X13069700Y-20836943D01*
X13097381Y-20976104D01*
X13151679Y-21107190D01*
X13230507Y-21225164D01*
X13330836Y-21325493D01*
X13448810Y-21404321D01*
X13579896Y-21458619D01*
X13719057Y-21486300D01*
X13860943Y-21486300D01*
X14000104Y-21458619D01*
X14131190Y-21404321D01*
X14249164Y-21325493D01*
X14349493Y-21225164D01*
X14428321Y-21107190D01*
X14482619Y-20976104D01*
X14510300Y-20836943D01*
X14510300Y-20695057D01*
X14482619Y-20555896D01*
X14428321Y-20424810D01*
X14349493Y-20306836D01*
X14249164Y-20206507D01*
X14131190Y-20127679D01*
X14000104Y-20073381D01*
X13860943Y-20045700D01*
X13719057Y-20045700D01*
X13579896Y-20073381D01*
X13448810Y-20127679D01*
X13330836Y-20206507D01*
X13230507Y-20306836D01*
X13151679Y-20424810D01*
X13097381Y-20555896D01*
X13069700Y-20695057D01*
X250000Y-20695057D01*
X250000Y-19506883D01*
X404501Y-19506883D01*
X406486Y-19528155D01*
X460517Y-19660429D01*
X539315Y-19779620D01*
X639852Y-19881148D01*
X758264Y-19961112D01*
X890001Y-20016438D01*
X1030000Y-20045000D01*
X1330000Y-20045000D01*
X1330000Y-19395000D01*
X1480000Y-19395000D01*
X1480000Y-20045000D01*
X1780000Y-20045000D01*
X1919999Y-20016438D01*
X2051736Y-19961112D01*
X2170148Y-19881148D01*
X2270685Y-19779620D01*
X2349483Y-19660429D01*
X2403514Y-19528155D01*
X2405499Y-19506883D01*
X4334501Y-19506883D01*
X4336486Y-19528155D01*
X4390517Y-19660429D01*
X4469315Y-19779620D01*
X4569852Y-19881148D01*
X4688264Y-19961112D01*
X4820001Y-20016438D01*
X4960000Y-20045000D01*
X5510000Y-20045000D01*
X5510000Y-19395000D01*
X5660000Y-19395000D01*
X5660000Y-20045000D01*
X6210000Y-20045000D01*
X6349999Y-20016438D01*
X6481736Y-19961112D01*
X6600148Y-19881148D01*
X6700685Y-19779620D01*
X6767167Y-19679057D01*
X7989700Y-19679057D01*
X7989700Y-19820943D01*
X8017381Y-19960104D01*
X8071679Y-20091190D01*
X8150507Y-20209164D01*
X8250836Y-20309493D01*
X8368810Y-20388321D01*
X8499896Y-20442619D01*
X8639057Y-20470300D01*
X8780943Y-20470300D01*
X8920104Y-20442619D01*
X9051190Y-20388321D01*
X9169164Y-20309493D01*
X9269493Y-20209164D01*
X9348321Y-20091190D01*
X9402619Y-19960104D01*
X9430300Y-19820943D01*
X9430300Y-19679057D01*
X9402619Y-19539896D01*
X9348321Y-19408810D01*
X9269493Y-19290836D01*
X9169164Y-19190507D01*
X9051190Y-19111679D01*
X8920104Y-19057381D01*
X8780943Y-19029700D01*
X8639057Y-19029700D01*
X8499896Y-19057381D01*
X8368810Y-19111679D01*
X8250836Y-19190507D01*
X8150507Y-19290836D01*
X8071679Y-19408810D01*
X8017381Y-19539896D01*
X7989700Y-19679057D01*
X6767167Y-19679057D01*
X6779483Y-19660429D01*
X6833514Y-19528155D01*
X6835499Y-19506883D01*
X6799531Y-19395000D01*
X5660000Y-19395000D01*
X5510000Y-19395000D01*
X4370469Y-19395000D01*
X4334501Y-19506883D01*
X2405499Y-19506883D01*
X2369531Y-19395000D01*
X1480000Y-19395000D01*
X1330000Y-19395000D01*
X440469Y-19395000D01*
X404501Y-19506883D01*
X250000Y-19506883D01*
X250000Y-19133117D01*
X404501Y-19133117D01*
X440469Y-19245000D01*
X1330000Y-19245000D01*
X1330000Y-18595000D01*
X1480000Y-18595000D01*
X1480000Y-19245000D01*
X2369531Y-19245000D01*
X2405499Y-19133117D01*
X4334501Y-19133117D01*
X4370469Y-19245000D01*
X5510000Y-19245000D01*
X5510000Y-18595000D01*
X5660000Y-18595000D01*
X5660000Y-19245000D01*
X6799531Y-19245000D01*
X6835499Y-19133117D01*
X6833514Y-19111845D01*
X6779483Y-18979571D01*
X6700685Y-18860380D01*
X6600148Y-18758852D01*
X6481736Y-18678888D01*
X6444041Y-18663057D01*
X13069700Y-18663057D01*
X13069700Y-18804943D01*
X13097381Y-18944104D01*
X13151679Y-19075190D01*
X13230507Y-19193164D01*
X13330836Y-19293493D01*
X13448810Y-19372321D01*
X13579896Y-19426619D01*
X13719057Y-19454300D01*
X13860943Y-19454300D01*
X14000104Y-19426619D01*
X14131190Y-19372321D01*
X14249164Y-19293493D01*
X14349493Y-19193164D01*
X14428321Y-19075190D01*
X14463193Y-18991000D01*
X28006912Y-18991000D01*
X28006912Y-20691000D01*
X28011256Y-20735108D01*
X28024122Y-20777520D01*
X28045015Y-20816608D01*
X28073132Y-20850868D01*
X28107392Y-20878985D01*
X28146480Y-20899878D01*
X28188892Y-20912744D01*
X28233000Y-20917088D01*
X29933000Y-20917088D01*
X29977108Y-20912744D01*
X30019520Y-20899878D01*
X30058608Y-20878985D01*
X30092868Y-20850868D01*
X30120985Y-20816608D01*
X30141878Y-20777520D01*
X30154744Y-20735108D01*
X30159088Y-20691000D01*
X30159088Y-20082834D01*
X30575551Y-20082834D01*
X30642857Y-20282534D01*
X30747829Y-20465266D01*
X30886433Y-20624008D01*
X31053343Y-20752660D01*
X31242145Y-20846277D01*
X31381166Y-20888446D01*
X31548000Y-20856986D01*
X31548000Y-19916000D01*
X31698000Y-19916000D01*
X31698000Y-20856986D01*
X31864834Y-20888446D01*
X32003855Y-20846277D01*
X32192657Y-20752660D01*
X32359567Y-20624008D01*
X32498171Y-20465266D01*
X32603143Y-20282534D01*
X32670449Y-20082834D01*
X32639134Y-19916000D01*
X31698000Y-19916000D01*
X31548000Y-19916000D01*
X30606866Y-19916000D01*
X30575551Y-20082834D01*
X30159088Y-20082834D01*
X30159088Y-19599166D01*
X30575551Y-19599166D01*
X30606866Y-19766000D01*
X31548000Y-19766000D01*
X31548000Y-18825014D01*
X31698000Y-18825014D01*
X31698000Y-19766000D01*
X32639134Y-19766000D01*
X32670449Y-19599166D01*
X32603143Y-19399466D01*
X32498171Y-19216734D01*
X32359567Y-19057992D01*
X32192657Y-18929340D01*
X32003855Y-18835723D01*
X31864834Y-18793554D01*
X31698000Y-18825014D01*
X31548000Y-18825014D01*
X31381166Y-18793554D01*
X31242145Y-18835723D01*
X31053343Y-18929340D01*
X30886433Y-19057992D01*
X30747829Y-19216734D01*
X30642857Y-19399466D01*
X30575551Y-19599166D01*
X30159088Y-19599166D01*
X30159088Y-18991000D01*
X30154744Y-18946892D01*
X30141878Y-18904480D01*
X30120985Y-18865392D01*
X30092868Y-18831132D01*
X30058608Y-18803015D01*
X30019520Y-18782122D01*
X29977108Y-18769256D01*
X29933000Y-18764912D01*
X28233000Y-18764912D01*
X28188892Y-18769256D01*
X28146480Y-18782122D01*
X28107392Y-18803015D01*
X28073132Y-18831132D01*
X28045015Y-18865392D01*
X28024122Y-18904480D01*
X28011256Y-18946892D01*
X28006912Y-18991000D01*
X14463193Y-18991000D01*
X14482619Y-18944104D01*
X14510300Y-18804943D01*
X14510300Y-18663057D01*
X14482619Y-18523896D01*
X14428321Y-18392810D01*
X14349493Y-18274836D01*
X14322949Y-18248292D01*
X15075000Y-18248292D01*
X15075000Y-18351708D01*
X15095176Y-18453137D01*
X15134751Y-18548681D01*
X15192206Y-18634668D01*
X15265332Y-18707794D01*
X15351319Y-18765249D01*
X15446863Y-18804824D01*
X15548292Y-18825000D01*
X15651708Y-18825000D01*
X15753137Y-18804824D01*
X15848681Y-18765249D01*
X15934668Y-18707794D01*
X16007794Y-18634668D01*
X16065249Y-18548681D01*
X16104824Y-18453137D01*
X16125000Y-18351708D01*
X16125000Y-18248292D01*
X16104824Y-18146863D01*
X16065249Y-18051319D01*
X16007794Y-17965332D01*
X16000000Y-17957538D01*
X16000000Y-16024263D01*
X16386429Y-15637834D01*
X28035554Y-15637834D01*
X28077723Y-15776855D01*
X28171340Y-15965657D01*
X28299992Y-16132567D01*
X28458734Y-16271171D01*
X28641466Y-16376143D01*
X28841166Y-16443449D01*
X29008000Y-16412134D01*
X29008000Y-15471000D01*
X29158000Y-15471000D01*
X29158000Y-16412134D01*
X29324834Y-16443449D01*
X29524534Y-16376143D01*
X29707266Y-16271171D01*
X29866008Y-16132567D01*
X29994660Y-15965657D01*
X30088277Y-15776855D01*
X30130446Y-15637834D01*
X30098986Y-15471000D01*
X29158000Y-15471000D01*
X29008000Y-15471000D01*
X28067014Y-15471000D01*
X28035554Y-15637834D01*
X16386429Y-15637834D01*
X16628263Y-15396000D01*
X30542799Y-15396000D01*
X30563555Y-15606737D01*
X30625024Y-15809375D01*
X30724846Y-15996128D01*
X30859183Y-16159817D01*
X31022872Y-16294154D01*
X31209625Y-16393976D01*
X31412263Y-16455445D01*
X31570194Y-16471000D01*
X31675806Y-16471000D01*
X31833737Y-16455445D01*
X32036375Y-16393976D01*
X32223128Y-16294154D01*
X32386817Y-16159817D01*
X32521154Y-15996128D01*
X32620976Y-15809375D01*
X32682445Y-15606737D01*
X32703201Y-15396000D01*
X32682445Y-15185263D01*
X32620976Y-14982625D01*
X32521154Y-14795872D01*
X32386817Y-14632183D01*
X32223128Y-14497846D01*
X32036375Y-14398024D01*
X31833737Y-14336555D01*
X31675806Y-14321000D01*
X31570194Y-14321000D01*
X31412263Y-14336555D01*
X31209625Y-14398024D01*
X31022872Y-14497846D01*
X30859183Y-14632183D01*
X30724846Y-14795872D01*
X30625024Y-14982625D01*
X30563555Y-15185263D01*
X30542799Y-15396000D01*
X16628263Y-15396000D01*
X16870097Y-15154166D01*
X28035554Y-15154166D01*
X28067014Y-15321000D01*
X29008000Y-15321000D01*
X29008000Y-14379866D01*
X29158000Y-14379866D01*
X29158000Y-15321000D01*
X30098986Y-15321000D01*
X30130446Y-15154166D01*
X30088277Y-15015145D01*
X29994660Y-14826343D01*
X29866008Y-14659433D01*
X29707266Y-14520829D01*
X29524534Y-14415857D01*
X29324834Y-14348551D01*
X29158000Y-14379866D01*
X29008000Y-14379866D01*
X28841166Y-14348551D01*
X28641466Y-14415857D01*
X28458734Y-14520829D01*
X28299992Y-14659433D01*
X28171340Y-14826343D01*
X28077723Y-15015145D01*
X28035554Y-15154166D01*
X16870097Y-15154166D01*
X18814193Y-13210072D01*
X19331909Y-13210072D01*
X19355074Y-13244740D01*
X19428200Y-13317866D01*
X19514187Y-13375321D01*
X19609731Y-13414896D01*
X19711160Y-13435072D01*
X19814576Y-13435072D01*
X19916005Y-13414896D01*
X20011549Y-13375321D01*
X20097536Y-13317866D01*
X20170662Y-13244740D01*
X20228117Y-13158753D01*
X20267692Y-13063209D01*
X20287868Y-12961780D01*
X20287868Y-12858364D01*
X20287398Y-12856000D01*
X28002799Y-12856000D01*
X28023555Y-13066737D01*
X28085024Y-13269375D01*
X28184846Y-13456128D01*
X28319183Y-13619817D01*
X28482872Y-13754154D01*
X28669625Y-13853976D01*
X28872263Y-13915445D01*
X29030194Y-13931000D01*
X29135806Y-13931000D01*
X29293737Y-13915445D01*
X29496375Y-13853976D01*
X29683128Y-13754154D01*
X29846817Y-13619817D01*
X29981154Y-13456128D01*
X30080976Y-13269375D01*
X30142445Y-13066737D01*
X30163201Y-12856000D01*
X30542799Y-12856000D01*
X30563555Y-13066737D01*
X30625024Y-13269375D01*
X30724846Y-13456128D01*
X30859183Y-13619817D01*
X31022872Y-13754154D01*
X31209625Y-13853976D01*
X31412263Y-13915445D01*
X31570194Y-13931000D01*
X31675806Y-13931000D01*
X31833737Y-13915445D01*
X32036375Y-13853976D01*
X32223128Y-13754154D01*
X32386817Y-13619817D01*
X32521154Y-13456128D01*
X32620976Y-13269375D01*
X32682445Y-13066737D01*
X32703201Y-12856000D01*
X32682445Y-12645263D01*
X32620976Y-12442625D01*
X32521154Y-12255872D01*
X32386817Y-12092183D01*
X32223128Y-11957846D01*
X32036375Y-11858024D01*
X31833737Y-11796555D01*
X31675806Y-11781000D01*
X31570194Y-11781000D01*
X31412263Y-11796555D01*
X31209625Y-11858024D01*
X31022872Y-11957846D01*
X30859183Y-12092183D01*
X30724846Y-12255872D01*
X30625024Y-12442625D01*
X30563555Y-12645263D01*
X30542799Y-12856000D01*
X30163201Y-12856000D01*
X30142445Y-12645263D01*
X30080976Y-12442625D01*
X29981154Y-12255872D01*
X29846817Y-12092183D01*
X29683128Y-11957846D01*
X29496375Y-11858024D01*
X29293737Y-11796555D01*
X29135806Y-11781000D01*
X29030194Y-11781000D01*
X28872263Y-11796555D01*
X28669625Y-11858024D01*
X28482872Y-11957846D01*
X28319183Y-12092183D01*
X28184846Y-12255872D01*
X28085024Y-12442625D01*
X28023555Y-12645263D01*
X28002799Y-12856000D01*
X20287398Y-12856000D01*
X20267692Y-12756935D01*
X20228117Y-12661391D01*
X20170662Y-12575404D01*
X20097536Y-12502278D01*
X20011549Y-12444823D01*
X19916005Y-12405248D01*
X19814576Y-12385072D01*
X19711160Y-12385072D01*
X19609731Y-12405248D01*
X19514187Y-12444823D01*
X19428200Y-12502278D01*
X19355074Y-12575404D01*
X19331909Y-12610072D01*
X18704658Y-12610072D01*
X18689928Y-12608621D01*
X18675198Y-12610072D01*
X18675195Y-12610072D01*
X18631118Y-12614413D01*
X18587729Y-12627575D01*
X18574567Y-12631568D01*
X18522450Y-12659425D01*
X18488213Y-12687522D01*
X18488207Y-12687528D01*
X18476770Y-12696914D01*
X18467384Y-12708351D01*
X15498290Y-15677447D01*
X15486842Y-15686842D01*
X15466358Y-15711802D01*
X15449353Y-15732523D01*
X15434464Y-15760380D01*
X15421496Y-15784641D01*
X15404341Y-15841191D01*
X15400000Y-15885268D01*
X15400000Y-15885277D01*
X15398550Y-15900000D01*
X15400000Y-15914723D01*
X15400001Y-17814587D01*
X15351319Y-17834751D01*
X15265332Y-17892206D01*
X15192206Y-17965332D01*
X15134751Y-18051319D01*
X15095176Y-18146863D01*
X15075000Y-18248292D01*
X14322949Y-18248292D01*
X14249164Y-18174507D01*
X14131190Y-18095679D01*
X14000104Y-18041381D01*
X13860943Y-18013700D01*
X13719057Y-18013700D01*
X13579896Y-18041381D01*
X13448810Y-18095679D01*
X13330836Y-18174507D01*
X13230507Y-18274836D01*
X13151679Y-18392810D01*
X13097381Y-18523896D01*
X13069700Y-18663057D01*
X6444041Y-18663057D01*
X6349999Y-18623562D01*
X6210000Y-18595000D01*
X5660000Y-18595000D01*
X5510000Y-18595000D01*
X4960000Y-18595000D01*
X4820001Y-18623562D01*
X4688264Y-18678888D01*
X4569852Y-18758852D01*
X4469315Y-18860380D01*
X4390517Y-18979571D01*
X4336486Y-19111845D01*
X4334501Y-19133117D01*
X2405499Y-19133117D01*
X2403514Y-19111845D01*
X2349483Y-18979571D01*
X2270685Y-18860380D01*
X2170148Y-18758852D01*
X2051736Y-18678888D01*
X1919999Y-18623562D01*
X1780000Y-18595000D01*
X1480000Y-18595000D01*
X1330000Y-18595000D01*
X1030000Y-18595000D01*
X890001Y-18623562D01*
X758264Y-18678888D01*
X639852Y-18758852D01*
X539315Y-18860380D01*
X460517Y-18979571D01*
X406486Y-19111845D01*
X404501Y-19133117D01*
X250000Y-19133117D01*
X250000Y-17835830D01*
X4505000Y-17835830D01*
X4505000Y-17944170D01*
X4526136Y-18050429D01*
X4567597Y-18150523D01*
X4627787Y-18240604D01*
X4704396Y-18317213D01*
X4794477Y-18377403D01*
X4894571Y-18418864D01*
X5000830Y-18440000D01*
X5109170Y-18440000D01*
X5215429Y-18418864D01*
X5315523Y-18377403D01*
X5405604Y-18317213D01*
X5482213Y-18240604D01*
X5542403Y-18150523D01*
X5583864Y-18050429D01*
X5605000Y-17944170D01*
X5605000Y-17835830D01*
X5583864Y-17729571D01*
X5542403Y-17629477D01*
X5482213Y-17539396D01*
X5405604Y-17462787D01*
X5383911Y-17448292D01*
X9175000Y-17448292D01*
X9175000Y-17551708D01*
X9195176Y-17653137D01*
X9234751Y-17748681D01*
X9292206Y-17834668D01*
X9365332Y-17907794D01*
X9451319Y-17965249D01*
X9546863Y-18004824D01*
X9648292Y-18025000D01*
X9751708Y-18025000D01*
X9853137Y-18004824D01*
X9948681Y-17965249D01*
X10034668Y-17907794D01*
X10107794Y-17834668D01*
X10165249Y-17748681D01*
X10204824Y-17653137D01*
X10225000Y-17551708D01*
X10225000Y-17448292D01*
X10204824Y-17346863D01*
X10165249Y-17251319D01*
X10107794Y-17165332D01*
X10034668Y-17092206D01*
X10000000Y-17069041D01*
X10000000Y-13524263D01*
X11307398Y-12216866D01*
X11348292Y-12225000D01*
X11451708Y-12225000D01*
X11553137Y-12204824D01*
X11648681Y-12165249D01*
X11734668Y-12107794D01*
X11807794Y-12034668D01*
X11865249Y-11948681D01*
X11904824Y-11853137D01*
X11925000Y-11751708D01*
X11925000Y-11648292D01*
X11904824Y-11546863D01*
X11865249Y-11451319D01*
X11807794Y-11365332D01*
X11734668Y-11292206D01*
X11648681Y-11234751D01*
X11553137Y-11195176D01*
X11451708Y-11175000D01*
X11348292Y-11175000D01*
X11246863Y-11195176D01*
X11151319Y-11234751D01*
X11065332Y-11292206D01*
X10992206Y-11365332D01*
X10934751Y-11451319D01*
X10895176Y-11546863D01*
X10875000Y-11648292D01*
X10875000Y-11751708D01*
X10883134Y-11792602D01*
X9498290Y-13177447D01*
X9486842Y-13186842D01*
X9471341Y-13205731D01*
X9449353Y-13232523D01*
X9442823Y-13244740D01*
X9421496Y-13284641D01*
X9404341Y-13341191D01*
X9400000Y-13385268D01*
X9400000Y-13385277D01*
X9398550Y-13400000D01*
X9400000Y-13414723D01*
X9400001Y-17069041D01*
X9365332Y-17092206D01*
X9292206Y-17165332D01*
X9234751Y-17251319D01*
X9195176Y-17346863D01*
X9175000Y-17448292D01*
X5383911Y-17448292D01*
X5315523Y-17402597D01*
X5215429Y-17361136D01*
X5109170Y-17340000D01*
X5000830Y-17340000D01*
X4894571Y-17361136D01*
X4794477Y-17402597D01*
X4704396Y-17462787D01*
X4627787Y-17539396D01*
X4567597Y-17629477D01*
X4526136Y-17729571D01*
X4505000Y-17835830D01*
X250000Y-17835830D01*
X250000Y-12055830D01*
X4505000Y-12055830D01*
X4505000Y-12164170D01*
X4526136Y-12270429D01*
X4567597Y-12370523D01*
X4627787Y-12460604D01*
X4704396Y-12537213D01*
X4794477Y-12597403D01*
X4894571Y-12638864D01*
X5000830Y-12660000D01*
X5109170Y-12660000D01*
X5215429Y-12638864D01*
X5315523Y-12597403D01*
X5405604Y-12537213D01*
X5482213Y-12460604D01*
X5542403Y-12370523D01*
X5583864Y-12270429D01*
X5605000Y-12164170D01*
X5605000Y-12055830D01*
X5583864Y-11949571D01*
X5542403Y-11849477D01*
X5482213Y-11759396D01*
X5405604Y-11682787D01*
X5315523Y-11622597D01*
X5215429Y-11581136D01*
X5109170Y-11560000D01*
X5000830Y-11560000D01*
X4894571Y-11581136D01*
X4794477Y-11622597D01*
X4704396Y-11682787D01*
X4627787Y-11759396D01*
X4567597Y-11849477D01*
X4526136Y-11949571D01*
X4505000Y-12055830D01*
X250000Y-12055830D01*
X250000Y-10866883D01*
X404501Y-10866883D01*
X406486Y-10888155D01*
X460517Y-11020429D01*
X539315Y-11139620D01*
X639852Y-11241148D01*
X758264Y-11321112D01*
X890001Y-11376438D01*
X1030000Y-11405000D01*
X1330000Y-11405000D01*
X1330000Y-10755000D01*
X1480000Y-10755000D01*
X1480000Y-11405000D01*
X1780000Y-11405000D01*
X1919999Y-11376438D01*
X2051736Y-11321112D01*
X2170148Y-11241148D01*
X2270685Y-11139620D01*
X2349483Y-11020429D01*
X2403514Y-10888155D01*
X2405499Y-10866883D01*
X4334501Y-10866883D01*
X4336486Y-10888155D01*
X4390517Y-11020429D01*
X4469315Y-11139620D01*
X4569852Y-11241148D01*
X4688264Y-11321112D01*
X4820001Y-11376438D01*
X4960000Y-11405000D01*
X5510000Y-11405000D01*
X5510000Y-10755000D01*
X5660000Y-10755000D01*
X5660000Y-11405000D01*
X6210000Y-11405000D01*
X6349999Y-11376438D01*
X6481736Y-11321112D01*
X6600148Y-11241148D01*
X6700685Y-11139620D01*
X6779483Y-11020429D01*
X6833514Y-10888155D01*
X6835499Y-10866883D01*
X6799531Y-10755000D01*
X5660000Y-10755000D01*
X5510000Y-10755000D01*
X4370469Y-10755000D01*
X4334501Y-10866883D01*
X2405499Y-10866883D01*
X2369531Y-10755000D01*
X1480000Y-10755000D01*
X1330000Y-10755000D01*
X440469Y-10755000D01*
X404501Y-10866883D01*
X250000Y-10866883D01*
X250000Y-10493117D01*
X404501Y-10493117D01*
X440469Y-10605000D01*
X1330000Y-10605000D01*
X1330000Y-9955000D01*
X1480000Y-9955000D01*
X1480000Y-10605000D01*
X2369531Y-10605000D01*
X2405499Y-10493117D01*
X4334501Y-10493117D01*
X4370469Y-10605000D01*
X5510000Y-10605000D01*
X5510000Y-9955000D01*
X5660000Y-9955000D01*
X5660000Y-10605000D01*
X6799531Y-10605000D01*
X6835499Y-10493117D01*
X6833514Y-10471845D01*
X6823894Y-10448292D01*
X7075000Y-10448292D01*
X7075000Y-10551708D01*
X7095176Y-10653137D01*
X7134751Y-10748681D01*
X7192206Y-10834668D01*
X7265332Y-10907794D01*
X7351319Y-10965249D01*
X7400001Y-10985413D01*
X7400000Y-16269041D01*
X7365332Y-16292206D01*
X7292206Y-16365332D01*
X7234751Y-16451319D01*
X7195176Y-16546863D01*
X7175000Y-16648292D01*
X7175000Y-16751708D01*
X7195176Y-16853137D01*
X7234751Y-16948681D01*
X7292206Y-17034668D01*
X7365332Y-17107794D01*
X7451319Y-17165249D01*
X7546863Y-17204824D01*
X7648292Y-17225000D01*
X7751708Y-17225000D01*
X7853137Y-17204824D01*
X7948681Y-17165249D01*
X8034668Y-17107794D01*
X8107794Y-17034668D01*
X8165249Y-16948681D01*
X8204824Y-16853137D01*
X8225000Y-16751708D01*
X8225000Y-16648292D01*
X8204824Y-16546863D01*
X8165249Y-16451319D01*
X8107794Y-16365332D01*
X8034668Y-16292206D01*
X8000000Y-16269041D01*
X8000000Y-10842462D01*
X8007794Y-10834668D01*
X8065249Y-10748681D01*
X8104824Y-10653137D01*
X8125000Y-10551708D01*
X8125000Y-10448292D01*
X8104824Y-10346863D01*
X8092041Y-10316000D01*
X28002799Y-10316000D01*
X28023555Y-10526737D01*
X28085024Y-10729375D01*
X28184846Y-10916128D01*
X28319183Y-11079817D01*
X28482872Y-11214154D01*
X28669625Y-11313976D01*
X28872263Y-11375445D01*
X29030194Y-11391000D01*
X29135806Y-11391000D01*
X29293737Y-11375445D01*
X29496375Y-11313976D01*
X29683128Y-11214154D01*
X29846817Y-11079817D01*
X29981154Y-10916128D01*
X30080976Y-10729375D01*
X30142445Y-10526737D01*
X30163201Y-10316000D01*
X30542799Y-10316000D01*
X30563555Y-10526737D01*
X30625024Y-10729375D01*
X30724846Y-10916128D01*
X30859183Y-11079817D01*
X31022872Y-11214154D01*
X31209625Y-11313976D01*
X31412263Y-11375445D01*
X31570194Y-11391000D01*
X31675806Y-11391000D01*
X31833737Y-11375445D01*
X32036375Y-11313976D01*
X32223128Y-11214154D01*
X32386817Y-11079817D01*
X32521154Y-10916128D01*
X32620976Y-10729375D01*
X32682445Y-10526737D01*
X32703201Y-10316000D01*
X32682445Y-10105263D01*
X32620976Y-9902625D01*
X32521154Y-9715872D01*
X32386817Y-9552183D01*
X32223128Y-9417846D01*
X32036375Y-9318024D01*
X31833737Y-9256555D01*
X31675806Y-9241000D01*
X31570194Y-9241000D01*
X31412263Y-9256555D01*
X31209625Y-9318024D01*
X31022872Y-9417846D01*
X30859183Y-9552183D01*
X30724846Y-9715872D01*
X30625024Y-9902625D01*
X30563555Y-10105263D01*
X30542799Y-10316000D01*
X30163201Y-10316000D01*
X30142445Y-10105263D01*
X30080976Y-9902625D01*
X29981154Y-9715872D01*
X29846817Y-9552183D01*
X29683128Y-9417846D01*
X29496375Y-9318024D01*
X29293737Y-9256555D01*
X29135806Y-9241000D01*
X29030194Y-9241000D01*
X28872263Y-9256555D01*
X28669625Y-9318024D01*
X28482872Y-9417846D01*
X28319183Y-9552183D01*
X28184846Y-9715872D01*
X28085024Y-9902625D01*
X28023555Y-10105263D01*
X28002799Y-10316000D01*
X8092041Y-10316000D01*
X8065249Y-10251319D01*
X8007794Y-10165332D01*
X7934668Y-10092206D01*
X7848681Y-10034751D01*
X7753137Y-9995176D01*
X7651708Y-9975000D01*
X7548292Y-9975000D01*
X7446863Y-9995176D01*
X7351319Y-10034751D01*
X7265332Y-10092206D01*
X7192206Y-10165332D01*
X7134751Y-10251319D01*
X7095176Y-10346863D01*
X7075000Y-10448292D01*
X6823894Y-10448292D01*
X6779483Y-10339571D01*
X6700685Y-10220380D01*
X6600148Y-10118852D01*
X6481736Y-10038888D01*
X6349999Y-9983562D01*
X6210000Y-9955000D01*
X5660000Y-9955000D01*
X5510000Y-9955000D01*
X4960000Y-9955000D01*
X4820001Y-9983562D01*
X4688264Y-10038888D01*
X4569852Y-10118852D01*
X4469315Y-10220380D01*
X4390517Y-10339571D01*
X4336486Y-10471845D01*
X4334501Y-10493117D01*
X2405499Y-10493117D01*
X2403514Y-10471845D01*
X2349483Y-10339571D01*
X2270685Y-10220380D01*
X2170148Y-10118852D01*
X2051736Y-10038888D01*
X1919999Y-9983562D01*
X1780000Y-9955000D01*
X1480000Y-9955000D01*
X1330000Y-9955000D01*
X1030000Y-9955000D01*
X890001Y-9983562D01*
X758264Y-10038888D01*
X639852Y-10118852D01*
X539315Y-10220380D01*
X460517Y-10339571D01*
X406486Y-10471845D01*
X404501Y-10493117D01*
X250000Y-10493117D01*
X250000Y-6750000D01*
X1423912Y-6750000D01*
X1423912Y-8450000D01*
X1428256Y-8494108D01*
X1441122Y-8536520D01*
X1462015Y-8575608D01*
X1490132Y-8609868D01*
X1524392Y-8637985D01*
X1563480Y-8658878D01*
X1605892Y-8671744D01*
X1650000Y-8676088D01*
X3350000Y-8676088D01*
X3394108Y-8671744D01*
X3436520Y-8658878D01*
X3475608Y-8637985D01*
X3509868Y-8609868D01*
X3537985Y-8575608D01*
X3558878Y-8536520D01*
X3571744Y-8494108D01*
X3576088Y-8450000D01*
X3576088Y-6750000D01*
X3571744Y-6705892D01*
X3558878Y-6663480D01*
X3537985Y-6624392D01*
X3509868Y-6590132D01*
X3475608Y-6562015D01*
X3436520Y-6541122D01*
X3394108Y-6528256D01*
X3350000Y-6523912D01*
X1650000Y-6523912D01*
X1605892Y-6528256D01*
X1563480Y-6541122D01*
X1524392Y-6562015D01*
X1490132Y-6590132D01*
X1462015Y-6624392D01*
X1441122Y-6663480D01*
X1428256Y-6705892D01*
X1423912Y-6750000D01*
X250000Y-6750000D01*
X250000Y-5060000D01*
X1419799Y-5060000D01*
X1440555Y-5270737D01*
X1502024Y-5473375D01*
X1601846Y-5660128D01*
X1736183Y-5823817D01*
X1899872Y-5958154D01*
X2086625Y-6057976D01*
X2289263Y-6119445D01*
X2447194Y-6135000D01*
X2552806Y-6135000D01*
X2710737Y-6119445D01*
X2913375Y-6057976D01*
X3100128Y-5958154D01*
X3263817Y-5823817D01*
X3398154Y-5660128D01*
X3497976Y-5473375D01*
X3559445Y-5270737D01*
X3580201Y-5060000D01*
X3559445Y-4849263D01*
X3497976Y-4646625D01*
X3398154Y-4459872D01*
X3263817Y-4296183D01*
X3100128Y-4161846D01*
X2913375Y-4062024D01*
X2710737Y-4000555D01*
X2552806Y-3985000D01*
X2447194Y-3985000D01*
X2289263Y-4000555D01*
X2086625Y-4062024D01*
X1899872Y-4161846D01*
X1736183Y-4296183D01*
X1601846Y-4459872D01*
X1502024Y-4646625D01*
X1440555Y-4849263D01*
X1419799Y-5060000D01*
X250000Y-5060000D01*
X250000Y-2761834D01*
X1452554Y-2761834D01*
X1494723Y-2900855D01*
X1588340Y-3089657D01*
X1716992Y-3256567D01*
X1875734Y-3395171D01*
X2058466Y-3500143D01*
X2258166Y-3567449D01*
X2425000Y-3536134D01*
X2425000Y-2595000D01*
X2575000Y-2595000D01*
X2575000Y-3536134D01*
X2741834Y-3567449D01*
X2941534Y-3500143D01*
X3124266Y-3395171D01*
X3283008Y-3256567D01*
X3366464Y-3148292D01*
X14775000Y-3148292D01*
X14775000Y-3251708D01*
X14795176Y-3353137D01*
X14834751Y-3448681D01*
X14892206Y-3534668D01*
X14965332Y-3607794D01*
X15000000Y-3630959D01*
X15000000Y-3638996D01*
X15000001Y-3639006D01*
X15000000Y-4985277D01*
X14998550Y-5000000D01*
X15000000Y-5014723D01*
X15000000Y-5014732D01*
X15004341Y-5058809D01*
X15021496Y-5115359D01*
X15021497Y-5115360D01*
X15049353Y-5167477D01*
X15066358Y-5188198D01*
X15086842Y-5213158D01*
X15098290Y-5222553D01*
X16083134Y-6207398D01*
X16075000Y-6248292D01*
X16075000Y-6351708D01*
X16095176Y-6453137D01*
X16134751Y-6548681D01*
X16192206Y-6634668D01*
X16265332Y-6707794D01*
X16351319Y-6765249D01*
X16446863Y-6804824D01*
X16548292Y-6825000D01*
X16651708Y-6825000D01*
X16753137Y-6804824D01*
X16848681Y-6765249D01*
X16934668Y-6707794D01*
X17007794Y-6634668D01*
X17065249Y-6548681D01*
X17104824Y-6453137D01*
X17125000Y-6351708D01*
X17125000Y-6248292D01*
X17675000Y-6248292D01*
X17675000Y-6351708D01*
X17695176Y-6453137D01*
X17734751Y-6548681D01*
X17792206Y-6634668D01*
X17865332Y-6707794D01*
X17951319Y-6765249D01*
X18046863Y-6804824D01*
X18148292Y-6825000D01*
X18251708Y-6825000D01*
X18353137Y-6804824D01*
X18448681Y-6765249D01*
X18534668Y-6707794D01*
X18607794Y-6634668D01*
X18665249Y-6548681D01*
X18704824Y-6453137D01*
X18725000Y-6351708D01*
X18725000Y-6248292D01*
X21075000Y-6248292D01*
X21075000Y-6351708D01*
X21095176Y-6453137D01*
X21134751Y-6548681D01*
X21192206Y-6634668D01*
X21265332Y-6707794D01*
X21351319Y-6765249D01*
X21446863Y-6804824D01*
X21548292Y-6825000D01*
X21651708Y-6825000D01*
X21753137Y-6804824D01*
X21848681Y-6765249D01*
X21934668Y-6707794D01*
X22007794Y-6634668D01*
X22065249Y-6548681D01*
X22104824Y-6453137D01*
X22125000Y-6351708D01*
X22125000Y-6248292D01*
X22116865Y-6207398D01*
X23824264Y-4500000D01*
X25169041Y-4500000D01*
X25192206Y-4534668D01*
X25265332Y-4607794D01*
X25351319Y-4665249D01*
X25446863Y-4704824D01*
X25548292Y-4725000D01*
X25651708Y-4725000D01*
X25753137Y-4704824D01*
X25848681Y-4665249D01*
X25934668Y-4607794D01*
X26007794Y-4534668D01*
X26065249Y-4448681D01*
X26104824Y-4353137D01*
X26125000Y-4251708D01*
X26125000Y-4148292D01*
X26104824Y-4046863D01*
X26065249Y-3951319D01*
X26007794Y-3865332D01*
X25934668Y-3792206D01*
X25848681Y-3734751D01*
X25753137Y-3695176D01*
X25651708Y-3675000D01*
X25548292Y-3675000D01*
X25446863Y-3695176D01*
X25351319Y-3734751D01*
X25265332Y-3792206D01*
X25192206Y-3865332D01*
X25169041Y-3900000D01*
X23714719Y-3900000D01*
X23699999Y-3898550D01*
X23685279Y-3900000D01*
X23685267Y-3900000D01*
X23641190Y-3904341D01*
X23584640Y-3921496D01*
X23576747Y-3925715D01*
X23532522Y-3949353D01*
X23498285Y-3977451D01*
X23486842Y-3986842D01*
X23477451Y-3998285D01*
X21692602Y-5783135D01*
X21651708Y-5775000D01*
X21548292Y-5775000D01*
X21446863Y-5795176D01*
X21351319Y-5834751D01*
X21265332Y-5892206D01*
X21192206Y-5965332D01*
X21134751Y-6051319D01*
X21095176Y-6146863D01*
X21075000Y-6248292D01*
X18725000Y-6248292D01*
X18716865Y-6207398D01*
X20440897Y-4483367D01*
X20465332Y-4507802D01*
X20551319Y-4565257D01*
X20646863Y-4604832D01*
X20748292Y-4625008D01*
X20851708Y-4625008D01*
X20953137Y-4604832D01*
X21048681Y-4565257D01*
X21134668Y-4507802D01*
X21207794Y-4434676D01*
X21265249Y-4348689D01*
X21304824Y-4253145D01*
X21325000Y-4151716D01*
X21325000Y-4048300D01*
X21304824Y-3946871D01*
X21265249Y-3851327D01*
X21207794Y-3765340D01*
X21134668Y-3692214D01*
X21048681Y-3634759D01*
X20953137Y-3595184D01*
X20851708Y-3575008D01*
X20748292Y-3575008D01*
X20646863Y-3595184D01*
X20551319Y-3634759D01*
X20465332Y-3692214D01*
X20392206Y-3765340D01*
X20367899Y-3801718D01*
X20341182Y-3804349D01*
X20284632Y-3821504D01*
X20232514Y-3849361D01*
X20201382Y-3874911D01*
X20186834Y-3886850D01*
X20177443Y-3898293D01*
X18292602Y-5783135D01*
X18251708Y-5775000D01*
X18148292Y-5775000D01*
X18046863Y-5795176D01*
X17951319Y-5834751D01*
X17865332Y-5892206D01*
X17792206Y-5965332D01*
X17734751Y-6051319D01*
X17695176Y-6146863D01*
X17675000Y-6248292D01*
X17125000Y-6248292D01*
X17104824Y-6146863D01*
X17065249Y-6051319D01*
X17007794Y-5965332D01*
X16934668Y-5892206D01*
X16848681Y-5834751D01*
X16753137Y-5795176D01*
X16651708Y-5775000D01*
X16548292Y-5775000D01*
X16507398Y-5783134D01*
X15600000Y-4875737D01*
X15600000Y-3630959D01*
X15634668Y-3607794D01*
X15707794Y-3534668D01*
X15765249Y-3448681D01*
X15804824Y-3353137D01*
X15825000Y-3251708D01*
X15825000Y-3148292D01*
X15804824Y-3046863D01*
X15765249Y-2951319D01*
X15707794Y-2865332D01*
X15634668Y-2792206D01*
X15548681Y-2734751D01*
X15453137Y-2695176D01*
X15351708Y-2675000D01*
X15248292Y-2675000D01*
X15146863Y-2695176D01*
X15051319Y-2734751D01*
X14965332Y-2792206D01*
X14892206Y-2865332D01*
X14834751Y-2951319D01*
X14795176Y-3046863D01*
X14775000Y-3148292D01*
X3366464Y-3148292D01*
X3411660Y-3089657D01*
X3505277Y-2900855D01*
X3547446Y-2761834D01*
X3515986Y-2595000D01*
X2575000Y-2595000D01*
X2425000Y-2595000D01*
X1484014Y-2595000D01*
X1452554Y-2761834D01*
X250000Y-2761834D01*
X250000Y-2278166D01*
X1452554Y-2278166D01*
X1484014Y-2445000D01*
X2425000Y-2445000D01*
X2425000Y-1503866D01*
X2575000Y-1503866D01*
X2575000Y-2445000D01*
X3515986Y-2445000D01*
X3547446Y-2278166D01*
X3505277Y-2139145D01*
X3411660Y-1950343D01*
X3283008Y-1783433D01*
X3124266Y-1644829D01*
X2941534Y-1539857D01*
X2741834Y-1472551D01*
X2575000Y-1503866D01*
X2425000Y-1503866D01*
X2258166Y-1472551D01*
X2058466Y-1539857D01*
X1875734Y-1644829D01*
X1716992Y-1783433D01*
X1588340Y-1950343D01*
X1494723Y-2139145D01*
X1452554Y-2278166D01*
X250000Y-2278166D01*
X250000Y-1248292D01*
X15375000Y-1248292D01*
X15375000Y-1351708D01*
X15395176Y-1453137D01*
X15434751Y-1548681D01*
X15492206Y-1634668D01*
X15565332Y-1707794D01*
X15651319Y-1765249D01*
X15746863Y-1804824D01*
X15848292Y-1825000D01*
X15951708Y-1825000D01*
X16053137Y-1804824D01*
X16148681Y-1765249D01*
X16234668Y-1707794D01*
X16307794Y-1634668D01*
X16330393Y-1600846D01*
X16338987Y-1600000D01*
X16338997Y-1600000D01*
X16383074Y-1595659D01*
X16439624Y-1578504D01*
X16491741Y-1550647D01*
X16537422Y-1513158D01*
X16546817Y-1501710D01*
X17048528Y-1000000D01*
X20169041Y-1000000D01*
X20134751Y-1051319D01*
X20095176Y-1146863D01*
X20075000Y-1248292D01*
X20075000Y-1351708D01*
X20095176Y-1453137D01*
X20134751Y-1548681D01*
X20192206Y-1634668D01*
X20265332Y-1707794D01*
X20351319Y-1765249D01*
X20446863Y-1804824D01*
X20548292Y-1825000D01*
X20651708Y-1825000D01*
X20753137Y-1804824D01*
X20848681Y-1765249D01*
X20934668Y-1707794D01*
X21007794Y-1634668D01*
X21030959Y-1600000D01*
X22775737Y-1600000D01*
X24577456Y-3401721D01*
X24586842Y-3413158D01*
X24598279Y-3422544D01*
X24598285Y-3422550D01*
X24632522Y-3450647D01*
X24684639Y-3478504D01*
X24697801Y-3482497D01*
X24741190Y-3495659D01*
X24785267Y-3500000D01*
X24785270Y-3500000D01*
X24800000Y-3501451D01*
X24814730Y-3500000D01*
X25975737Y-3500000D01*
X26400000Y-3924264D01*
X26400001Y-8160994D01*
X26400000Y-8161004D01*
X26400000Y-8169041D01*
X26365332Y-8192206D01*
X26292206Y-8265332D01*
X26234751Y-8351319D01*
X26195176Y-8446863D01*
X26175000Y-8548292D01*
X26175000Y-8651708D01*
X26195176Y-8753137D01*
X26234751Y-8848681D01*
X26292206Y-8934668D01*
X26365332Y-9007794D01*
X26451319Y-9065249D01*
X26546863Y-9104824D01*
X26648292Y-9125000D01*
X26751708Y-9125000D01*
X26853137Y-9104824D01*
X26948681Y-9065249D01*
X27034668Y-9007794D01*
X27107794Y-8934668D01*
X27165249Y-8848681D01*
X27204824Y-8753137D01*
X27225000Y-8651708D01*
X27225000Y-8548292D01*
X27204824Y-8446863D01*
X27165249Y-8351319D01*
X27107794Y-8265332D01*
X27034668Y-8192206D01*
X27000000Y-8169041D01*
X27000000Y-6926000D01*
X28006912Y-6926000D01*
X28006912Y-8626000D01*
X28011256Y-8670108D01*
X28024122Y-8712520D01*
X28045015Y-8751608D01*
X28073132Y-8785868D01*
X28107392Y-8813985D01*
X28146480Y-8834878D01*
X28188892Y-8847744D01*
X28233000Y-8852088D01*
X29933000Y-8852088D01*
X29977108Y-8847744D01*
X30019520Y-8834878D01*
X30058608Y-8813985D01*
X30092868Y-8785868D01*
X30120985Y-8751608D01*
X30141878Y-8712520D01*
X30154744Y-8670108D01*
X30159088Y-8626000D01*
X30159088Y-7776000D01*
X30542799Y-7776000D01*
X30563555Y-7986737D01*
X30625024Y-8189375D01*
X30724846Y-8376128D01*
X30859183Y-8539817D01*
X31022872Y-8674154D01*
X31209625Y-8773976D01*
X31412263Y-8835445D01*
X31570194Y-8851000D01*
X31675806Y-8851000D01*
X31833737Y-8835445D01*
X32036375Y-8773976D01*
X32223128Y-8674154D01*
X32386817Y-8539817D01*
X32521154Y-8376128D01*
X32620976Y-8189375D01*
X32682445Y-7986737D01*
X32703201Y-7776000D01*
X32682445Y-7565263D01*
X32620976Y-7362625D01*
X32521154Y-7175872D01*
X32386817Y-7012183D01*
X32223128Y-6877846D01*
X32036375Y-6778024D01*
X31833737Y-6716555D01*
X31675806Y-6701000D01*
X31570194Y-6701000D01*
X31412263Y-6716555D01*
X31209625Y-6778024D01*
X31022872Y-6877846D01*
X30859183Y-7012183D01*
X30724846Y-7175872D01*
X30625024Y-7362625D01*
X30563555Y-7565263D01*
X30542799Y-7776000D01*
X30159088Y-7776000D01*
X30159088Y-6926000D01*
X30154744Y-6881892D01*
X30141878Y-6839480D01*
X30120985Y-6800392D01*
X30092868Y-6766132D01*
X30058608Y-6738015D01*
X30019520Y-6717122D01*
X29977108Y-6704256D01*
X29933000Y-6699912D01*
X28233000Y-6699912D01*
X28188892Y-6704256D01*
X28146480Y-6717122D01*
X28107392Y-6738015D01*
X28073132Y-6766132D01*
X28045015Y-6800392D01*
X28024122Y-6839480D01*
X28011256Y-6881892D01*
X28006912Y-6926000D01*
X27000000Y-6926000D01*
X27000000Y-3814722D01*
X27001450Y-3799999D01*
X27000000Y-3785276D01*
X27000000Y-3785267D01*
X26995659Y-3741190D01*
X26978504Y-3684640D01*
X26965536Y-3660379D01*
X26950647Y-3632522D01*
X26922549Y-3598285D01*
X26913158Y-3586842D01*
X26901716Y-3577452D01*
X26424263Y-3100000D01*
X31757538Y-3100000D01*
X31692206Y-3165332D01*
X31634751Y-3251319D01*
X31595176Y-3346863D01*
X31575000Y-3448292D01*
X31575000Y-3551708D01*
X31595176Y-3653137D01*
X31634751Y-3748681D01*
X31692206Y-3834668D01*
X31765332Y-3907794D01*
X31851319Y-3965249D01*
X31946863Y-4004824D01*
X32048292Y-4025000D01*
X32151708Y-4025000D01*
X32192602Y-4016865D01*
X32800001Y-4624265D01*
X32800000Y-11175000D01*
X32748292Y-11175000D01*
X32646863Y-11195176D01*
X32551319Y-11234751D01*
X32465332Y-11292206D01*
X32392206Y-11365332D01*
X32334751Y-11451319D01*
X32295176Y-11546863D01*
X32275000Y-11648292D01*
X32275000Y-11751708D01*
X32295176Y-11853137D01*
X32334751Y-11948681D01*
X32392206Y-12034668D01*
X32465332Y-12107794D01*
X32551319Y-12165249D01*
X32646863Y-12204824D01*
X32748292Y-12225000D01*
X32851708Y-12225000D01*
X32953137Y-12204824D01*
X33048681Y-12165249D01*
X33100001Y-12130958D01*
X33100001Y-13884606D01*
X33046863Y-13895176D01*
X32951319Y-13934751D01*
X32865332Y-13992206D01*
X32792206Y-14065332D01*
X32734751Y-14151319D01*
X32695176Y-14246863D01*
X32675000Y-14348292D01*
X32675000Y-14451708D01*
X32695176Y-14553137D01*
X32734751Y-14648681D01*
X32792206Y-14734668D01*
X32865332Y-14807794D01*
X32951319Y-14865249D01*
X33046863Y-14904824D01*
X33148292Y-14925000D01*
X33251708Y-14925000D01*
X33353137Y-14904824D01*
X33448681Y-14865249D01*
X33534668Y-14807794D01*
X33607794Y-14734668D01*
X33665249Y-14648681D01*
X33704824Y-14553137D01*
X33725000Y-14451708D01*
X33725000Y-14348292D01*
X33704824Y-14246863D01*
X33698370Y-14231282D01*
X33700000Y-14214733D01*
X33700000Y-14214730D01*
X33701451Y-14200000D01*
X33700000Y-14185270D01*
X33700000Y-11530959D01*
X33751319Y-11565249D01*
X33846863Y-11604824D01*
X33948292Y-11625000D01*
X34051708Y-11625000D01*
X34153137Y-11604824D01*
X34248681Y-11565249D01*
X34334668Y-11507794D01*
X34407794Y-11434668D01*
X34465249Y-11348681D01*
X34504824Y-11253137D01*
X34525000Y-11151708D01*
X34525000Y-11048292D01*
X34504824Y-10946863D01*
X34465249Y-10851319D01*
X34407794Y-10765332D01*
X34334668Y-10692206D01*
X34300000Y-10669041D01*
X34300000Y-2914730D01*
X34301451Y-2900000D01*
X34300000Y-2885267D01*
X34295659Y-2841190D01*
X34280799Y-2792206D01*
X34278504Y-2784639D01*
X34250647Y-2732522D01*
X34222549Y-2698285D01*
X34213158Y-2686842D01*
X34201716Y-2677452D01*
X33422553Y-1898290D01*
X33413158Y-1886842D01*
X33367477Y-1849353D01*
X33315360Y-1821496D01*
X33258810Y-1804341D01*
X33214733Y-1800000D01*
X33214723Y-1800000D01*
X33200000Y-1798550D01*
X33185277Y-1800000D01*
X26030959Y-1800000D01*
X26007794Y-1765332D01*
X25934668Y-1692206D01*
X25848681Y-1634751D01*
X25753137Y-1595176D01*
X25651708Y-1575000D01*
X25548292Y-1575000D01*
X25446863Y-1595176D01*
X25351319Y-1634751D01*
X25265332Y-1692206D01*
X25192206Y-1765332D01*
X25134751Y-1851319D01*
X25095176Y-1946863D01*
X25075000Y-2048292D01*
X25075000Y-2151708D01*
X25095176Y-2253137D01*
X25134751Y-2348681D01*
X25192206Y-2434668D01*
X25257538Y-2500000D01*
X25224264Y-2500000D01*
X23222553Y-498290D01*
X23213158Y-486842D01*
X23167477Y-449353D01*
X23115360Y-421496D01*
X23058810Y-404341D01*
X23014733Y-400000D01*
X23014723Y-400000D01*
X23000000Y-398550D01*
X22985277Y-400000D01*
X16938986Y-400000D01*
X16924263Y-398550D01*
X16909540Y-400000D01*
X16909531Y-400000D01*
X16865454Y-404341D01*
X16808904Y-421496D01*
X16784643Y-434464D01*
X16756786Y-449353D01*
X16739591Y-463465D01*
X16711106Y-486842D01*
X16701715Y-498285D01*
X16271231Y-928769D01*
X16234668Y-892206D01*
X16148681Y-834751D01*
X16053137Y-795176D01*
X15951708Y-775000D01*
X15848292Y-775000D01*
X15746863Y-795176D01*
X15651319Y-834751D01*
X15565332Y-892206D01*
X15492206Y-965332D01*
X15434751Y-1051319D01*
X15395176Y-1146863D01*
X15375000Y-1248292D01*
X250000Y-1248292D01*
X250000Y-1012229D01*
X265460Y-854557D01*
X307699Y-714654D01*
X376308Y-585619D01*
X468672Y-472369D01*
X581275Y-379215D01*
X709823Y-309710D01*
X849437Y-266492D01*
X1006346Y-250000D01*
X33987771Y-250000D01*
X34145443Y-265460D01*
M02*
