G04 #@! TF.GenerationSoftware,KiCad,Pcbnew,5.1.4*
G04 #@! TF.CreationDate,2019-09-23T19:58:19+02:00*
G04 #@! TF.ProjectId,spiflash,73706966-6c61-4736-982e-6b696361645f,rev?*
G04 #@! TF.SameCoordinates,PX5f5e100PY4a62f80*
G04 #@! TF.FileFunction,Legend,Bot*
G04 #@! TF.FilePolarity,Positive*
%FSLAX46Y46*%
G04 Gerber Fmt 4.6, Leading zero omitted, Abs format (unit mm)*
G04 Created by KiCad (PCBNEW 5.1.4) date 2019-09-23 19:58:19*
%MOMM*%
%LPD*%
G04 APERTURE LIST*
%ADD10C,0.160000*%
G04 APERTURE END LIST*
D10*
X27071238Y-10105952D02*
X27539809Y-10105952D01*
X27305523Y-10105952D02*
X27305523Y-9285952D01*
X27383619Y-9403095D01*
X27461714Y-9481190D01*
X27539809Y-9520238D01*
X26524571Y-10379285D02*
X26524571Y-9207857D01*
X25509333Y-10105952D02*
X25977904Y-10105952D01*
X25743619Y-10105952D02*
X25743619Y-9285952D01*
X25821714Y-9403095D01*
X25899809Y-9481190D01*
X25977904Y-9520238D01*
X24064571Y-10027857D02*
X24103619Y-10066904D01*
X24220761Y-10105952D01*
X24298857Y-10105952D01*
X24416000Y-10066904D01*
X24494095Y-9988809D01*
X24533142Y-9910714D01*
X24572190Y-9754523D01*
X24572190Y-9637380D01*
X24533142Y-9481190D01*
X24494095Y-9403095D01*
X24416000Y-9325000D01*
X24298857Y-9285952D01*
X24220761Y-9285952D01*
X24103619Y-9325000D01*
X24064571Y-9364047D01*
X23752190Y-10066904D02*
X23635047Y-10105952D01*
X23439809Y-10105952D01*
X23361714Y-10066904D01*
X23322666Y-10027857D01*
X23283619Y-9949761D01*
X23283619Y-9871666D01*
X23322666Y-9793571D01*
X23361714Y-9754523D01*
X23439809Y-9715476D01*
X23596000Y-9676428D01*
X23674095Y-9637380D01*
X23713142Y-9598333D01*
X23752190Y-9520238D01*
X23752190Y-9442142D01*
X23713142Y-9364047D01*
X23674095Y-9325000D01*
X23596000Y-9285952D01*
X23400761Y-9285952D01*
X23283619Y-9325000D01*
X27539809Y-10754047D02*
X27500761Y-10715000D01*
X27422666Y-10675952D01*
X27227428Y-10675952D01*
X27149333Y-10715000D01*
X27110285Y-10754047D01*
X27071238Y-10832142D01*
X27071238Y-10910238D01*
X27110285Y-11027380D01*
X27578857Y-11495952D01*
X27071238Y-11495952D01*
X26524571Y-11769285D02*
X26524571Y-10597857D01*
X25821714Y-11027380D02*
X25899809Y-10988333D01*
X25938857Y-10949285D01*
X25977904Y-10871190D01*
X25977904Y-10832142D01*
X25938857Y-10754047D01*
X25899809Y-10715000D01*
X25821714Y-10675952D01*
X25665523Y-10675952D01*
X25587428Y-10715000D01*
X25548380Y-10754047D01*
X25509333Y-10832142D01*
X25509333Y-10871190D01*
X25548380Y-10949285D01*
X25587428Y-10988333D01*
X25665523Y-11027380D01*
X25821714Y-11027380D01*
X25899809Y-11066428D01*
X25938857Y-11105476D01*
X25977904Y-11183571D01*
X25977904Y-11339761D01*
X25938857Y-11417857D01*
X25899809Y-11456904D01*
X25821714Y-11495952D01*
X25665523Y-11495952D01*
X25587428Y-11456904D01*
X25548380Y-11417857D01*
X25509333Y-11339761D01*
X25509333Y-11183571D01*
X25548380Y-11105476D01*
X25587428Y-11066428D01*
X25665523Y-11027380D01*
X24650285Y-10675952D02*
X24376952Y-11495952D01*
X24103619Y-10675952D01*
X23361714Y-11417857D02*
X23400761Y-11456904D01*
X23517904Y-11495952D01*
X23596000Y-11495952D01*
X23713142Y-11456904D01*
X23791238Y-11378809D01*
X23830285Y-11300714D01*
X23869333Y-11144523D01*
X23869333Y-11027380D01*
X23830285Y-10871190D01*
X23791238Y-10793095D01*
X23713142Y-10715000D01*
X23596000Y-10675952D01*
X23517904Y-10675952D01*
X23400761Y-10715000D01*
X23361714Y-10754047D01*
X22541714Y-11417857D02*
X22580761Y-11456904D01*
X22697904Y-11495952D01*
X22776000Y-11495952D01*
X22893142Y-11456904D01*
X22971238Y-11378809D01*
X23010285Y-11300714D01*
X23049333Y-11144523D01*
X23049333Y-11027380D01*
X23010285Y-10871190D01*
X22971238Y-10793095D01*
X22893142Y-10715000D01*
X22776000Y-10675952D01*
X22697904Y-10675952D01*
X22580761Y-10715000D01*
X22541714Y-10754047D01*
X27578857Y-12065952D02*
X27071238Y-12065952D01*
X27344571Y-12378333D01*
X27227428Y-12378333D01*
X27149333Y-12417380D01*
X27110285Y-12456428D01*
X27071238Y-12534523D01*
X27071238Y-12729761D01*
X27110285Y-12807857D01*
X27149333Y-12846904D01*
X27227428Y-12885952D01*
X27461714Y-12885952D01*
X27539809Y-12846904D01*
X27578857Y-12807857D01*
X26524571Y-13159285D02*
X26524571Y-11987857D01*
X25977904Y-12144047D02*
X25938857Y-12105000D01*
X25860761Y-12065952D01*
X25665523Y-12065952D01*
X25587428Y-12105000D01*
X25548380Y-12144047D01*
X25509333Y-12222142D01*
X25509333Y-12300238D01*
X25548380Y-12417380D01*
X26016952Y-12885952D01*
X25509333Y-12885952D01*
X24533142Y-12885952D02*
X24533142Y-12065952D01*
X24259809Y-12651666D01*
X23986476Y-12065952D01*
X23986476Y-12885952D01*
X23596000Y-12885952D02*
X23596000Y-12065952D01*
X23244571Y-12846904D02*
X23127428Y-12885952D01*
X22932190Y-12885952D01*
X22854095Y-12846904D01*
X22815047Y-12807857D01*
X22776000Y-12729761D01*
X22776000Y-12651666D01*
X22815047Y-12573571D01*
X22854095Y-12534523D01*
X22932190Y-12495476D01*
X23088380Y-12456428D01*
X23166476Y-12417380D01*
X23205523Y-12378333D01*
X23244571Y-12300238D01*
X23244571Y-12222142D01*
X23205523Y-12144047D01*
X23166476Y-12105000D01*
X23088380Y-12065952D01*
X22893142Y-12065952D01*
X22776000Y-12105000D01*
X22268380Y-12065952D02*
X22112190Y-12065952D01*
X22034095Y-12105000D01*
X21956000Y-12183095D01*
X21916952Y-12339285D01*
X21916952Y-12612619D01*
X21956000Y-12768809D01*
X22034095Y-12846904D01*
X22112190Y-12885952D01*
X22268380Y-12885952D01*
X22346476Y-12846904D01*
X22424571Y-12768809D01*
X22463619Y-12612619D01*
X22463619Y-12339285D01*
X22424571Y-12183095D01*
X22346476Y-12105000D01*
X22268380Y-12065952D01*
X27149333Y-13729285D02*
X27149333Y-14275952D01*
X27344571Y-13416904D02*
X27539809Y-14002619D01*
X27032190Y-14002619D01*
X26524571Y-14549285D02*
X26524571Y-13377857D01*
X26016952Y-13455952D02*
X25470285Y-13455952D01*
X25821714Y-14275952D01*
X24533142Y-14275952D02*
X24533142Y-13455952D01*
X24533142Y-13846428D02*
X24064571Y-13846428D01*
X24064571Y-14275952D02*
X24064571Y-13455952D01*
X23517904Y-13455952D02*
X23361714Y-13455952D01*
X23283619Y-13495000D01*
X23205523Y-13573095D01*
X23166476Y-13729285D01*
X23166476Y-14002619D01*
X23205523Y-14158809D01*
X23283619Y-14236904D01*
X23361714Y-14275952D01*
X23517904Y-14275952D01*
X23596000Y-14236904D01*
X23674095Y-14158809D01*
X23713142Y-14002619D01*
X23713142Y-13729285D01*
X23674095Y-13573095D01*
X23596000Y-13495000D01*
X23517904Y-13455952D01*
X22424571Y-14275952D02*
X22815047Y-14275952D01*
X22815047Y-13455952D01*
X22151238Y-14275952D02*
X22151238Y-13455952D01*
X21956000Y-13455952D01*
X21838857Y-13495000D01*
X21760761Y-13573095D01*
X21721714Y-13651190D01*
X21682666Y-13807380D01*
X21682666Y-13924523D01*
X21721714Y-14080714D01*
X21760761Y-14158809D01*
X21838857Y-14236904D01*
X21956000Y-14275952D01*
X22151238Y-14275952D01*
X27110285Y-14845952D02*
X27500761Y-14845952D01*
X27539809Y-15236428D01*
X27500761Y-15197380D01*
X27422666Y-15158333D01*
X27227428Y-15158333D01*
X27149333Y-15197380D01*
X27110285Y-15236428D01*
X27071238Y-15314523D01*
X27071238Y-15509761D01*
X27110285Y-15587857D01*
X27149333Y-15626904D01*
X27227428Y-15665952D01*
X27422666Y-15665952D01*
X27500761Y-15626904D01*
X27539809Y-15587857D01*
X26524571Y-15939285D02*
X26524571Y-14767857D01*
X26016952Y-14845952D02*
X25509333Y-14845952D01*
X25782666Y-15158333D01*
X25665523Y-15158333D01*
X25587428Y-15197380D01*
X25548380Y-15236428D01*
X25509333Y-15314523D01*
X25509333Y-15509761D01*
X25548380Y-15587857D01*
X25587428Y-15626904D01*
X25665523Y-15665952D01*
X25899809Y-15665952D01*
X25977904Y-15626904D01*
X26016952Y-15587857D01*
X24611238Y-14845952D02*
X24416000Y-15665952D01*
X24259809Y-15080238D01*
X24103619Y-15665952D01*
X23908380Y-14845952D01*
X23596000Y-15665952D02*
X23596000Y-14845952D01*
X23283619Y-14845952D01*
X23205523Y-14885000D01*
X23166476Y-14924047D01*
X23127428Y-15002142D01*
X23127428Y-15119285D01*
X23166476Y-15197380D01*
X23205523Y-15236428D01*
X23283619Y-15275476D01*
X23596000Y-15275476D01*
X27149333Y-16235952D02*
X27305523Y-16235952D01*
X27383619Y-16275000D01*
X27422666Y-16314047D01*
X27500761Y-16431190D01*
X27539809Y-16587380D01*
X27539809Y-16899761D01*
X27500761Y-16977857D01*
X27461714Y-17016904D01*
X27383619Y-17055952D01*
X27227428Y-17055952D01*
X27149333Y-17016904D01*
X27110285Y-16977857D01*
X27071238Y-16899761D01*
X27071238Y-16704523D01*
X27110285Y-16626428D01*
X27149333Y-16587380D01*
X27227428Y-16548333D01*
X27383619Y-16548333D01*
X27461714Y-16587380D01*
X27500761Y-16626428D01*
X27539809Y-16704523D01*
X26524571Y-17329285D02*
X26524571Y-16157857D01*
X25587428Y-16235952D02*
X25743619Y-16235952D01*
X25821714Y-16275000D01*
X25860761Y-16314047D01*
X25938857Y-16431190D01*
X25977904Y-16587380D01*
X25977904Y-16899761D01*
X25938857Y-16977857D01*
X25899809Y-17016904D01*
X25821714Y-17055952D01*
X25665523Y-17055952D01*
X25587428Y-17016904D01*
X25548380Y-16977857D01*
X25509333Y-16899761D01*
X25509333Y-16704523D01*
X25548380Y-16626428D01*
X25587428Y-16587380D01*
X25665523Y-16548333D01*
X25821714Y-16548333D01*
X25899809Y-16587380D01*
X25938857Y-16626428D01*
X25977904Y-16704523D01*
X24572190Y-17016904D02*
X24455047Y-17055952D01*
X24259809Y-17055952D01*
X24181714Y-17016904D01*
X24142666Y-16977857D01*
X24103619Y-16899761D01*
X24103619Y-16821666D01*
X24142666Y-16743571D01*
X24181714Y-16704523D01*
X24259809Y-16665476D01*
X24416000Y-16626428D01*
X24494095Y-16587380D01*
X24533142Y-16548333D01*
X24572190Y-16470238D01*
X24572190Y-16392142D01*
X24533142Y-16314047D01*
X24494095Y-16275000D01*
X24416000Y-16235952D01*
X24220761Y-16235952D01*
X24103619Y-16275000D01*
X23283619Y-16977857D02*
X23322666Y-17016904D01*
X23439809Y-17055952D01*
X23517904Y-17055952D01*
X23635047Y-17016904D01*
X23713142Y-16938809D01*
X23752190Y-16860714D01*
X23791238Y-16704523D01*
X23791238Y-16587380D01*
X23752190Y-16431190D01*
X23713142Y-16353095D01*
X23635047Y-16275000D01*
X23517904Y-16235952D01*
X23439809Y-16235952D01*
X23322666Y-16275000D01*
X23283619Y-16314047D01*
X22932190Y-17055952D02*
X22932190Y-16235952D01*
X22463619Y-17055952D02*
X22815047Y-16587380D01*
X22463619Y-16235952D02*
X22932190Y-16704523D01*
X27578857Y-17625952D02*
X27032190Y-17625952D01*
X27383619Y-18445952D01*
X26524571Y-18719285D02*
X26524571Y-17547857D01*
X25587428Y-17899285D02*
X25587428Y-18445952D01*
X25782666Y-17586904D02*
X25977904Y-18172619D01*
X25470285Y-18172619D01*
X24103619Y-17665000D02*
X24181714Y-17625952D01*
X24298857Y-17625952D01*
X24416000Y-17665000D01*
X24494095Y-17743095D01*
X24533142Y-17821190D01*
X24572190Y-17977380D01*
X24572190Y-18094523D01*
X24533142Y-18250714D01*
X24494095Y-18328809D01*
X24416000Y-18406904D01*
X24298857Y-18445952D01*
X24220761Y-18445952D01*
X24103619Y-18406904D01*
X24064571Y-18367857D01*
X24064571Y-18094523D01*
X24220761Y-18094523D01*
X23713142Y-18445952D02*
X23713142Y-17625952D01*
X23244571Y-18445952D01*
X23244571Y-17625952D01*
X22854095Y-18445952D02*
X22854095Y-17625952D01*
X22658857Y-17625952D01*
X22541714Y-17665000D01*
X22463619Y-17743095D01*
X22424571Y-17821190D01*
X22385523Y-17977380D01*
X22385523Y-18094523D01*
X22424571Y-18250714D01*
X22463619Y-18328809D01*
X22541714Y-18406904D01*
X22658857Y-18445952D01*
X22854095Y-18445952D01*
X27383619Y-19367380D02*
X27461714Y-19328333D01*
X27500761Y-19289285D01*
X27539809Y-19211190D01*
X27539809Y-19172142D01*
X27500761Y-19094047D01*
X27461714Y-19055000D01*
X27383619Y-19015952D01*
X27227428Y-19015952D01*
X27149333Y-19055000D01*
X27110285Y-19094047D01*
X27071238Y-19172142D01*
X27071238Y-19211190D01*
X27110285Y-19289285D01*
X27149333Y-19328333D01*
X27227428Y-19367380D01*
X27383619Y-19367380D01*
X27461714Y-19406428D01*
X27500761Y-19445476D01*
X27539809Y-19523571D01*
X27539809Y-19679761D01*
X27500761Y-19757857D01*
X27461714Y-19796904D01*
X27383619Y-19835952D01*
X27227428Y-19835952D01*
X27149333Y-19796904D01*
X27110285Y-19757857D01*
X27071238Y-19679761D01*
X27071238Y-19523571D01*
X27110285Y-19445476D01*
X27149333Y-19406428D01*
X27227428Y-19367380D01*
X26524571Y-20109285D02*
X26524571Y-18937857D01*
X25548380Y-19015952D02*
X25938857Y-19015952D01*
X25977904Y-19406428D01*
X25938857Y-19367380D01*
X25860761Y-19328333D01*
X25665523Y-19328333D01*
X25587428Y-19367380D01*
X25548380Y-19406428D01*
X25509333Y-19484523D01*
X25509333Y-19679761D01*
X25548380Y-19757857D01*
X25587428Y-19796904D01*
X25665523Y-19835952D01*
X25860761Y-19835952D01*
X25938857Y-19796904D01*
X25977904Y-19757857D01*
X24533142Y-19835952D02*
X24533142Y-19015952D01*
X24259809Y-19601666D01*
X23986476Y-19015952D01*
X23986476Y-19835952D01*
X23439809Y-19015952D02*
X23283619Y-19015952D01*
X23205523Y-19055000D01*
X23127428Y-19133095D01*
X23088380Y-19289285D01*
X23088380Y-19562619D01*
X23127428Y-19718809D01*
X23205523Y-19796904D01*
X23283619Y-19835952D01*
X23439809Y-19835952D01*
X23517904Y-19796904D01*
X23596000Y-19718809D01*
X23635047Y-19562619D01*
X23635047Y-19289285D01*
X23596000Y-19133095D01*
X23517904Y-19055000D01*
X23439809Y-19015952D01*
X22776000Y-19796904D02*
X22658857Y-19835952D01*
X22463619Y-19835952D01*
X22385523Y-19796904D01*
X22346476Y-19757857D01*
X22307428Y-19679761D01*
X22307428Y-19601666D01*
X22346476Y-19523571D01*
X22385523Y-19484523D01*
X22463619Y-19445476D01*
X22619809Y-19406428D01*
X22697904Y-19367380D01*
X22736952Y-19328333D01*
X22776000Y-19250238D01*
X22776000Y-19172142D01*
X22736952Y-19094047D01*
X22697904Y-19055000D01*
X22619809Y-19015952D01*
X22424571Y-19015952D01*
X22307428Y-19055000D01*
X21956000Y-19835952D02*
X21956000Y-19015952D01*
X13239809Y-1436904D02*
X13161714Y-1475952D01*
X13005523Y-1475952D01*
X12927428Y-1436904D01*
X12888380Y-1358809D01*
X12888380Y-1319761D01*
X12927428Y-1241666D01*
X13005523Y-1202619D01*
X13122666Y-1202619D01*
X13200761Y-1163571D01*
X13239809Y-1085476D01*
X13239809Y-1046428D01*
X13200761Y-968333D01*
X13122666Y-929285D01*
X13005523Y-929285D01*
X12927428Y-968333D01*
X12536952Y-929285D02*
X12536952Y-1749285D01*
X12536952Y-968333D02*
X12458857Y-929285D01*
X12302666Y-929285D01*
X12224571Y-968333D01*
X12185523Y-1007380D01*
X12146476Y-1085476D01*
X12146476Y-1319761D01*
X12185523Y-1397857D01*
X12224571Y-1436904D01*
X12302666Y-1475952D01*
X12458857Y-1475952D01*
X12536952Y-1436904D01*
X11795047Y-1475952D02*
X11795047Y-929285D01*
X11795047Y-655952D02*
X11834095Y-695000D01*
X11795047Y-734047D01*
X11756000Y-695000D01*
X11795047Y-655952D01*
X11795047Y-734047D01*
X11404571Y-1163571D02*
X10779809Y-1163571D01*
X10506476Y-929285D02*
X10194095Y-929285D01*
X10389333Y-1475952D02*
X10389333Y-773095D01*
X10350285Y-695000D01*
X10272190Y-655952D01*
X10194095Y-655952D01*
X9803619Y-1475952D02*
X9881714Y-1436904D01*
X9920761Y-1358809D01*
X9920761Y-655952D01*
X9139809Y-1475952D02*
X9139809Y-1046428D01*
X9178857Y-968333D01*
X9256952Y-929285D01*
X9413142Y-929285D01*
X9491238Y-968333D01*
X9139809Y-1436904D02*
X9217904Y-1475952D01*
X9413142Y-1475952D01*
X9491238Y-1436904D01*
X9530285Y-1358809D01*
X9530285Y-1280714D01*
X9491238Y-1202619D01*
X9413142Y-1163571D01*
X9217904Y-1163571D01*
X9139809Y-1124523D01*
X8788380Y-1436904D02*
X8710285Y-1475952D01*
X8554095Y-1475952D01*
X8476000Y-1436904D01*
X8436952Y-1358809D01*
X8436952Y-1319761D01*
X8476000Y-1241666D01*
X8554095Y-1202619D01*
X8671238Y-1202619D01*
X8749333Y-1163571D01*
X8788380Y-1085476D01*
X8788380Y-1046428D01*
X8749333Y-968333D01*
X8671238Y-929285D01*
X8554095Y-929285D01*
X8476000Y-968333D01*
X8085523Y-1475952D02*
X8085523Y-655952D01*
X7734095Y-1475952D02*
X7734095Y-1046428D01*
X7773142Y-968333D01*
X7851238Y-929285D01*
X7968380Y-929285D01*
X8046476Y-968333D01*
X8085523Y-1007380D01*
X7031238Y-1436904D02*
X7109333Y-1475952D01*
X7265523Y-1475952D01*
X7343619Y-1436904D01*
X7382666Y-1358809D01*
X7382666Y-1046428D01*
X7343619Y-968333D01*
X7265523Y-929285D01*
X7109333Y-929285D01*
X7031238Y-968333D01*
X6992190Y-1046428D01*
X6992190Y-1124523D01*
X7382666Y-1202619D01*
X6640761Y-1475952D02*
X6640761Y-929285D01*
X6640761Y-1085476D02*
X6601714Y-1007380D01*
X6562666Y-968333D01*
X6484571Y-929285D01*
X6406476Y-929285D01*
X5586476Y-929285D02*
X5391238Y-1475952D01*
X5196000Y-929285D01*
X4454095Y-1475952D02*
X4922666Y-1475952D01*
X4688380Y-1475952D02*
X4688380Y-655952D01*
X4766476Y-773095D01*
X4844571Y-851190D01*
X4922666Y-890238D01*
X13317904Y-2319285D02*
X13005523Y-2319285D01*
X13200761Y-2865952D02*
X13200761Y-2163095D01*
X13161714Y-2085000D01*
X13083619Y-2045952D01*
X13005523Y-2045952D01*
X12615047Y-2865952D02*
X12693142Y-2826904D01*
X12732190Y-2748809D01*
X12732190Y-2045952D01*
X11795047Y-2475476D02*
X11834095Y-2436428D01*
X11912190Y-2397380D01*
X11990285Y-2397380D01*
X12068380Y-2436428D01*
X12107428Y-2475476D01*
X12146476Y-2553571D01*
X12146476Y-2631666D01*
X12107428Y-2709761D01*
X12068380Y-2748809D01*
X11990285Y-2787857D01*
X11912190Y-2787857D01*
X11834095Y-2748809D01*
X11795047Y-2709761D01*
X11795047Y-2397380D02*
X11795047Y-2709761D01*
X11756000Y-2748809D01*
X11716952Y-2748809D01*
X11638857Y-2709761D01*
X11599809Y-2631666D01*
X11599809Y-2436428D01*
X11677904Y-2319285D01*
X11795047Y-2241190D01*
X11951238Y-2202142D01*
X12107428Y-2241190D01*
X12224571Y-2319285D01*
X12302666Y-2436428D01*
X12341714Y-2592619D01*
X12302666Y-2748809D01*
X12224571Y-2865952D01*
X12107428Y-2944047D01*
X11951238Y-2983095D01*
X11795047Y-2944047D01*
X11677904Y-2865952D01*
X11248380Y-2319285D02*
X11248380Y-2865952D01*
X11248380Y-2397380D02*
X11209333Y-2358333D01*
X11131238Y-2319285D01*
X11014095Y-2319285D01*
X10936000Y-2358333D01*
X10896952Y-2436428D01*
X10896952Y-2865952D01*
X10155047Y-2045952D02*
X10311238Y-2045952D01*
X10389333Y-2085000D01*
X10428380Y-2124047D01*
X10506476Y-2241190D01*
X10545523Y-2397380D01*
X10545523Y-2709761D01*
X10506476Y-2787857D01*
X10467428Y-2826904D01*
X10389333Y-2865952D01*
X10233142Y-2865952D01*
X10155047Y-2826904D01*
X10116000Y-2787857D01*
X10076952Y-2709761D01*
X10076952Y-2514523D01*
X10116000Y-2436428D01*
X10155047Y-2397380D01*
X10233142Y-2358333D01*
X10389333Y-2358333D01*
X10467428Y-2397380D01*
X10506476Y-2436428D01*
X10545523Y-2514523D01*
X9764571Y-2124047D02*
X9725523Y-2085000D01*
X9647428Y-2045952D01*
X9452190Y-2045952D01*
X9374095Y-2085000D01*
X9335047Y-2124047D01*
X9296000Y-2202142D01*
X9296000Y-2280238D01*
X9335047Y-2397380D01*
X9803619Y-2865952D01*
X9296000Y-2865952D01*
X8515047Y-2865952D02*
X8983619Y-2865952D01*
X8749333Y-2865952D02*
X8749333Y-2045952D01*
X8827428Y-2163095D01*
X8905523Y-2241190D01*
X8983619Y-2280238D01*
X8163619Y-2787857D02*
X8124571Y-2826904D01*
X8163619Y-2865952D01*
X8202666Y-2826904D01*
X8163619Y-2787857D01*
X8163619Y-2865952D01*
X7421714Y-2865952D02*
X7421714Y-2045952D01*
X7421714Y-2826904D02*
X7499809Y-2865952D01*
X7656000Y-2865952D01*
X7734095Y-2826904D01*
X7773142Y-2787857D01*
X7812190Y-2709761D01*
X7812190Y-2475476D01*
X7773142Y-2397380D01*
X7734095Y-2358333D01*
X7656000Y-2319285D01*
X7499809Y-2319285D01*
X7421714Y-2358333D01*
X6718857Y-2826904D02*
X6796952Y-2865952D01*
X6953142Y-2865952D01*
X7031238Y-2826904D01*
X7070285Y-2748809D01*
X7070285Y-2436428D01*
X7031238Y-2358333D01*
X6953142Y-2319285D01*
X6796952Y-2319285D01*
X6718857Y-2358333D01*
X6679809Y-2436428D01*
X6679809Y-2514523D01*
X7070285Y-2592619D01*
M02*
